%TF.GenerationSoftware,KiCad,Pcbnew,8.0.5*%
%TF.CreationDate,2025-03-20T14:14:57-06:00*%
%TF.ProjectId,dspic30_simple,64737069-6333-4305-9f73-696d706c652e,rev?*%
%TF.SameCoordinates,Original*%
%TF.FileFunction,Drillmap*%
%TF.FilePolarity,Positive*%
%FSLAX45Y45*%
G04 Gerber Fmt 4.5, Leading zero omitted, Abs format (unit mm)*
G04 Created by KiCad (PCBNEW 8.0.5) date 2025-03-20 14:14:57*
%MOMM*%
%LPD*%
G01*
G04 APERTURE LIST*
%ADD10C,0.050000*%
%ADD11C,0.200000*%
%ADD12C,0.100000*%
%ADD13C,0.110000*%
G04 APERTURE END LIST*
D10*
X17300000Y-5300000D02*
X17300000Y-11800000D01*
X17300000Y-11800000D02*
X7800000Y-11800000D01*
X7800000Y-5300000D02*
X17300000Y-5300000D01*
X7800000Y-11800000D02*
X7800000Y-5300000D01*
D11*
D12*
X9310000Y-7110000D02*
X9390000Y-7190000D01*
X9390000Y-7110000D02*
X9310000Y-7190000D01*
X9310000Y-7490000D02*
X9390000Y-7570000D01*
X9390000Y-7490000D02*
X9310000Y-7570000D01*
X10272500Y-7110000D02*
X10352500Y-7190000D01*
X10352500Y-7110000D02*
X10272500Y-7190000D01*
X10272500Y-7490000D02*
X10352500Y-7570000D01*
X10352500Y-7490000D02*
X10272500Y-7570000D01*
X10410000Y-10229000D02*
X10490000Y-10309000D01*
X10490000Y-10229000D02*
X10410000Y-10309000D01*
X10410000Y-10991000D02*
X10490000Y-11071000D01*
X10490000Y-10991000D02*
X10410000Y-11071000D01*
X10731500Y-9877500D02*
X10811500Y-9957500D01*
X10811500Y-9877500D02*
X10731500Y-9957500D01*
X11310000Y-7021000D02*
X11390000Y-7101000D01*
X11390000Y-7021000D02*
X11310000Y-7101000D01*
X11310000Y-8545000D02*
X11390000Y-8625000D01*
X11390000Y-8545000D02*
X11310000Y-8625000D01*
X11493500Y-9877500D02*
X11573500Y-9957500D01*
X11573500Y-9877500D02*
X11493500Y-9957500D01*
X11564000Y-7021000D02*
X11644000Y-7101000D01*
X11644000Y-7021000D02*
X11564000Y-7101000D01*
X11564000Y-8545000D02*
X11644000Y-8625000D01*
X11644000Y-8545000D02*
X11564000Y-8625000D01*
X11818000Y-7021000D02*
X11898000Y-7101000D01*
X11898000Y-7021000D02*
X11818000Y-7101000D01*
X11818000Y-8545000D02*
X11898000Y-8625000D01*
X11898000Y-8545000D02*
X11818000Y-8625000D01*
X12072000Y-7021000D02*
X12152000Y-7101000D01*
X12152000Y-7021000D02*
X12072000Y-7101000D01*
X12072000Y-8545000D02*
X12152000Y-8625000D01*
X12152000Y-8545000D02*
X12072000Y-8625000D01*
X12326000Y-7021000D02*
X12406000Y-7101000D01*
X12406000Y-7021000D02*
X12326000Y-7101000D01*
X12326000Y-8545000D02*
X12406000Y-8625000D01*
X12406000Y-8545000D02*
X12326000Y-8625000D01*
X12580000Y-7021000D02*
X12660000Y-7101000D01*
X12660000Y-7021000D02*
X12580000Y-7101000D01*
X12580000Y-8545000D02*
X12660000Y-8625000D01*
X12660000Y-8545000D02*
X12580000Y-8625000D01*
X12834000Y-7021000D02*
X12914000Y-7101000D01*
X12914000Y-7021000D02*
X12834000Y-7101000D01*
X12834000Y-8545000D02*
X12914000Y-8625000D01*
X12914000Y-8545000D02*
X12834000Y-8625000D01*
X13088000Y-7021000D02*
X13168000Y-7101000D01*
X13168000Y-7021000D02*
X13088000Y-7101000D01*
X13088000Y-8545000D02*
X13168000Y-8625000D01*
X13168000Y-8545000D02*
X13088000Y-8625000D01*
X13340000Y-6492500D02*
X13420000Y-6572500D01*
X13420000Y-6492500D02*
X13340000Y-6572500D01*
X13340000Y-6742500D02*
X13420000Y-6822500D01*
X13420000Y-6742500D02*
X13340000Y-6822500D01*
X13342000Y-7021000D02*
X13422000Y-7101000D01*
X13422000Y-7021000D02*
X13342000Y-7101000D01*
X13342000Y-8545000D02*
X13422000Y-8625000D01*
X13422000Y-8545000D02*
X13342000Y-8625000D01*
X13596000Y-7021000D02*
X13676000Y-7101000D01*
X13676000Y-7021000D02*
X13596000Y-7101000D01*
X13596000Y-8545000D02*
X13676000Y-8625000D01*
X13676000Y-8545000D02*
X13596000Y-8625000D01*
X13850000Y-7021000D02*
X13930000Y-7101000D01*
X13930000Y-7021000D02*
X13850000Y-7101000D01*
X13850000Y-8545000D02*
X13930000Y-8625000D01*
X13930000Y-8545000D02*
X13850000Y-8625000D01*
X13855000Y-8820000D02*
X13935000Y-8900000D01*
X13935000Y-8820000D02*
X13855000Y-8900000D01*
X13855000Y-9070000D02*
X13935000Y-9150000D01*
X13935000Y-9070000D02*
X13855000Y-9150000D01*
X14104000Y-7021000D02*
X14184000Y-7101000D01*
X14184000Y-7021000D02*
X14104000Y-7101000D01*
X14104000Y-8545000D02*
X14184000Y-8625000D01*
X14184000Y-8545000D02*
X14104000Y-8625000D01*
X14358000Y-7021000D02*
X14438000Y-7101000D01*
X14438000Y-7021000D02*
X14358000Y-7101000D01*
X14358000Y-8545000D02*
X14438000Y-8625000D01*
X14438000Y-8545000D02*
X14358000Y-8625000D01*
X14612000Y-7021000D02*
X14692000Y-7101000D01*
X14692000Y-7021000D02*
X14612000Y-7101000D01*
X14612000Y-8545000D02*
X14692000Y-8625000D01*
X14692000Y-8545000D02*
X14612000Y-8625000D01*
X14866000Y-7021000D02*
X14946000Y-7101000D01*
X14946000Y-7021000D02*
X14866000Y-7101000D01*
X14866000Y-8545000D02*
X14946000Y-8625000D01*
X14946000Y-8545000D02*
X14866000Y-8625000D01*
X15120000Y-7021000D02*
X15200000Y-7101000D01*
X15200000Y-7021000D02*
X15120000Y-7101000D01*
X15120000Y-8545000D02*
X15200000Y-8625000D01*
X15200000Y-8545000D02*
X15120000Y-8625000D01*
X15374000Y-7021000D02*
X15454000Y-7101000D01*
X15454000Y-7021000D02*
X15374000Y-7101000D01*
X15374000Y-8545000D02*
X15454000Y-8625000D01*
X15454000Y-8545000D02*
X15374000Y-8625000D01*
X15628000Y-7021000D02*
X15708000Y-7101000D01*
X15708000Y-7021000D02*
X15628000Y-7101000D01*
X15628000Y-8545000D02*
X15708000Y-8625000D01*
X15708000Y-8545000D02*
X15628000Y-8625000D01*
X15882000Y-7021000D02*
X15962000Y-7101000D01*
X15962000Y-7021000D02*
X15882000Y-7101000D01*
X15882000Y-8545000D02*
X15962000Y-8625000D01*
X15962000Y-8545000D02*
X15882000Y-8625000D01*
X16136000Y-7021000D02*
X16216000Y-7101000D01*
X16216000Y-7021000D02*
X16136000Y-7101000D01*
X16136000Y-8545000D02*
X16216000Y-8625000D01*
X16216000Y-8545000D02*
X16136000Y-8625000D01*
X16140000Y-6525000D02*
X16220000Y-6605000D01*
X16220000Y-6525000D02*
X16140000Y-6605000D01*
X16140000Y-6775000D02*
X16220000Y-6855000D01*
X16220000Y-6775000D02*
X16140000Y-6855000D01*
X8782500Y-6205000D02*
G75*
G02*
X8682500Y-6205000I-50000J0D01*
G01*
X8682500Y-6205000D02*
G75*
G02*
X8782500Y-6205000I50000J0D01*
G01*
X8682500Y-6095000D02*
X8682500Y-6315000D01*
X8782500Y-6315000D02*
G75*
G02*
X8682500Y-6315000I-50000J0D01*
G01*
X8782500Y-6315000D02*
X8782500Y-6095000D01*
X8782500Y-6095000D02*
G75*
G03*
X8682500Y-6095000I-50000J0D01*
G01*
X9122500Y-6685000D02*
G75*
G02*
X9022500Y-6685000I-50000J0D01*
G01*
X9022500Y-6685000D02*
G75*
G02*
X9122500Y-6685000I50000J0D01*
G01*
X9182500Y-6635000D02*
X8962500Y-6635000D01*
X8962500Y-6735000D02*
G75*
G02*
X8962500Y-6635000I0J50000D01*
G01*
X8962500Y-6735000D02*
X9182500Y-6735000D01*
X9182500Y-6735000D02*
G75*
G03*
X9182500Y-6635000I0J50000D01*
G01*
X9412500Y-6205000D02*
G75*
G02*
X9312500Y-6205000I-50000J0D01*
G01*
X9312500Y-6205000D02*
G75*
G02*
X9412500Y-6205000I50000J0D01*
G01*
X9312500Y-6075000D02*
X9312500Y-6335000D01*
X9412500Y-6335000D02*
G75*
G02*
X9312500Y-6335000I-50000J0D01*
G01*
X9412500Y-6335000D02*
X9412500Y-6075000D01*
X9412500Y-6075000D02*
G75*
G03*
X9312500Y-6075000I-50000J0D01*
G01*
X11151000Y-5622500D02*
G75*
G02*
X11051000Y-5622500I-50000J0D01*
G01*
X11051000Y-5622500D02*
G75*
G02*
X11151000Y-5622500I50000J0D01*
G01*
X11405000Y-5622500D02*
G75*
G02*
X11305000Y-5622500I-50000J0D01*
G01*
X11305000Y-5622500D02*
G75*
G02*
X11405000Y-5622500I50000J0D01*
G01*
X11540500Y-11542500D02*
G75*
G02*
X11440500Y-11542500I-50000J0D01*
G01*
X11440500Y-11542500D02*
G75*
G02*
X11540500Y-11542500I50000J0D01*
G01*
X11659000Y-5622500D02*
G75*
G02*
X11559000Y-5622500I-50000J0D01*
G01*
X11559000Y-5622500D02*
G75*
G02*
X11659000Y-5622500I50000J0D01*
G01*
X11794500Y-11542500D02*
G75*
G02*
X11694500Y-11542500I-50000J0D01*
G01*
X11694500Y-11542500D02*
G75*
G02*
X11794500Y-11542500I50000J0D01*
G01*
X11913000Y-5622500D02*
G75*
G02*
X11813000Y-5622500I-50000J0D01*
G01*
X11813000Y-5622500D02*
G75*
G02*
X11913000Y-5622500I50000J0D01*
G01*
X12048500Y-11542500D02*
G75*
G02*
X11948500Y-11542500I-50000J0D01*
G01*
X11948500Y-11542500D02*
G75*
G02*
X12048500Y-11542500I50000J0D01*
G01*
X12167000Y-5622500D02*
G75*
G02*
X12067000Y-5622500I-50000J0D01*
G01*
X12067000Y-5622500D02*
G75*
G02*
X12167000Y-5622500I50000J0D01*
G01*
X12302500Y-11542500D02*
G75*
G02*
X12202500Y-11542500I-50000J0D01*
G01*
X12202500Y-11542500D02*
G75*
G02*
X12302500Y-11542500I50000J0D01*
G01*
X12421000Y-5622500D02*
G75*
G02*
X12321000Y-5622500I-50000J0D01*
G01*
X12321000Y-5622500D02*
G75*
G02*
X12421000Y-5622500I50000J0D01*
G01*
X12556500Y-11542500D02*
G75*
G02*
X12456500Y-11542500I-50000J0D01*
G01*
X12456500Y-11542500D02*
G75*
G02*
X12556500Y-11542500I50000J0D01*
G01*
X12675000Y-5622500D02*
G75*
G02*
X12575000Y-5622500I-50000J0D01*
G01*
X12575000Y-5622500D02*
G75*
G02*
X12675000Y-5622500I50000J0D01*
G01*
X12810500Y-11542500D02*
G75*
G02*
X12710500Y-11542500I-50000J0D01*
G01*
X12710500Y-11542500D02*
G75*
G02*
X12810500Y-11542500I50000J0D01*
G01*
X12929000Y-5622500D02*
G75*
G02*
X12829000Y-5622500I-50000J0D01*
G01*
X12829000Y-5622500D02*
G75*
G02*
X12929000Y-5622500I50000J0D01*
G01*
X13064500Y-11542500D02*
G75*
G02*
X12964500Y-11542500I-50000J0D01*
G01*
X12964500Y-11542500D02*
G75*
G02*
X13064500Y-11542500I50000J0D01*
G01*
X13183000Y-5622500D02*
G75*
G02*
X13083000Y-5622500I-50000J0D01*
G01*
X13083000Y-5622500D02*
G75*
G02*
X13183000Y-5622500I50000J0D01*
G01*
X13318500Y-11542500D02*
G75*
G02*
X13218500Y-11542500I-50000J0D01*
G01*
X13218500Y-11542500D02*
G75*
G02*
X13318500Y-11542500I50000J0D01*
G01*
X13437000Y-5622500D02*
G75*
G02*
X13337000Y-5622500I-50000J0D01*
G01*
X13337000Y-5622500D02*
G75*
G02*
X13437000Y-5622500I50000J0D01*
G01*
X13572500Y-11542500D02*
G75*
G02*
X13472500Y-11542500I-50000J0D01*
G01*
X13472500Y-11542500D02*
G75*
G02*
X13572500Y-11542500I50000J0D01*
G01*
X13691000Y-5622500D02*
G75*
G02*
X13591000Y-5622500I-50000J0D01*
G01*
X13591000Y-5622500D02*
G75*
G02*
X13691000Y-5622500I50000J0D01*
G01*
X13826500Y-11542500D02*
G75*
G02*
X13726500Y-11542500I-50000J0D01*
G01*
X13726500Y-11542500D02*
G75*
G02*
X13826500Y-11542500I50000J0D01*
G01*
X13945000Y-5622500D02*
G75*
G02*
X13845000Y-5622500I-50000J0D01*
G01*
X13845000Y-5622500D02*
G75*
G02*
X13945000Y-5622500I50000J0D01*
G01*
X14080500Y-11542500D02*
G75*
G02*
X13980500Y-11542500I-50000J0D01*
G01*
X13980500Y-11542500D02*
G75*
G02*
X14080500Y-11542500I50000J0D01*
G01*
X14199000Y-5622500D02*
G75*
G02*
X14099000Y-5622500I-50000J0D01*
G01*
X14099000Y-5622500D02*
G75*
G02*
X14199000Y-5622500I50000J0D01*
G01*
X14334500Y-11542500D02*
G75*
G02*
X14234500Y-11542500I-50000J0D01*
G01*
X14234500Y-11542500D02*
G75*
G02*
X14334500Y-11542500I50000J0D01*
G01*
X14453000Y-5622500D02*
G75*
G02*
X14353000Y-5622500I-50000J0D01*
G01*
X14353000Y-5622500D02*
G75*
G02*
X14453000Y-5622500I50000J0D01*
G01*
X14588500Y-11542500D02*
G75*
G02*
X14488500Y-11542500I-50000J0D01*
G01*
X14488500Y-11542500D02*
G75*
G02*
X14588500Y-11542500I50000J0D01*
G01*
X14707000Y-5622500D02*
G75*
G02*
X14607000Y-5622500I-50000J0D01*
G01*
X14607000Y-5622500D02*
G75*
G02*
X14707000Y-5622500I50000J0D01*
G01*
X14842500Y-11542500D02*
G75*
G02*
X14742500Y-11542500I-50000J0D01*
G01*
X14742500Y-11542500D02*
G75*
G02*
X14842500Y-11542500I50000J0D01*
G01*
X14961000Y-5622500D02*
G75*
G02*
X14861000Y-5622500I-50000J0D01*
G01*
X14861000Y-5622500D02*
G75*
G02*
X14961000Y-5622500I50000J0D01*
G01*
X15096500Y-11542500D02*
G75*
G02*
X14996500Y-11542500I-50000J0D01*
G01*
X14996500Y-11542500D02*
G75*
G02*
X15096500Y-11542500I50000J0D01*
G01*
X15215000Y-5622500D02*
G75*
G02*
X15115000Y-5622500I-50000J0D01*
G01*
X15115000Y-5622500D02*
G75*
G02*
X15215000Y-5622500I50000J0D01*
G01*
X15350500Y-11542500D02*
G75*
G02*
X15250500Y-11542500I-50000J0D01*
G01*
X15250500Y-11542500D02*
G75*
G02*
X15350500Y-11542500I50000J0D01*
G01*
X15469000Y-5622500D02*
G75*
G02*
X15369000Y-5622500I-50000J0D01*
G01*
X15369000Y-5622500D02*
G75*
G02*
X15469000Y-5622500I50000J0D01*
G01*
X15604500Y-11542500D02*
G75*
G02*
X15504500Y-11542500I-50000J0D01*
G01*
X15504500Y-11542500D02*
G75*
G02*
X15604500Y-11542500I50000J0D01*
G01*
X15723000Y-5622500D02*
G75*
G02*
X15623000Y-5622500I-50000J0D01*
G01*
X15623000Y-5622500D02*
G75*
G02*
X15723000Y-5622500I50000J0D01*
G01*
X15858500Y-11542500D02*
G75*
G02*
X15758500Y-11542500I-50000J0D01*
G01*
X15758500Y-11542500D02*
G75*
G02*
X15858500Y-11542500I50000J0D01*
G01*
X15977000Y-5622500D02*
G75*
G02*
X15877000Y-5622500I-50000J0D01*
G01*
X15877000Y-5622500D02*
G75*
G02*
X15977000Y-5622500I50000J0D01*
G01*
X16112500Y-11542500D02*
G75*
G02*
X16012500Y-11542500I-50000J0D01*
G01*
X16012500Y-11542500D02*
G75*
G02*
X16112500Y-11542500I50000J0D01*
G01*
X16231000Y-5622500D02*
G75*
G02*
X16131000Y-5622500I-50000J0D01*
G01*
X16131000Y-5622500D02*
G75*
G02*
X16231000Y-5622500I50000J0D01*
G01*
X16750000Y-7300000D02*
G75*
G02*
X16650000Y-7300000I-50000J0D01*
G01*
X16650000Y-7300000D02*
G75*
G02*
X16750000Y-7300000I50000J0D01*
G01*
X16750000Y-7554000D02*
G75*
G02*
X16650000Y-7554000I-50000J0D01*
G01*
X16650000Y-7554000D02*
G75*
G02*
X16750000Y-7554000I50000J0D01*
G01*
X16750000Y-7808000D02*
G75*
G02*
X16650000Y-7808000I-50000J0D01*
G01*
X16650000Y-7808000D02*
G75*
G02*
X16750000Y-7808000I50000J0D01*
G01*
X16750000Y-8062000D02*
G75*
G02*
X16650000Y-8062000I-50000J0D01*
G01*
X16650000Y-8062000D02*
G75*
G02*
X16750000Y-8062000I50000J0D01*
G01*
X16750000Y-8316000D02*
G75*
G02*
X16650000Y-8316000I-50000J0D01*
G01*
X16650000Y-8316000D02*
G75*
G02*
X16750000Y-8316000I50000J0D01*
G01*
X16750000Y-8570000D02*
G75*
G02*
X16650000Y-8570000I-50000J0D01*
G01*
X16650000Y-8570000D02*
G75*
G02*
X16750000Y-8570000I50000J0D01*
G01*
D13*
X8405000Y-7064000D02*
X8405000Y-7174000D01*
X8350000Y-7119000D02*
X8460000Y-7119000D01*
X8405000Y-7826000D02*
X8405000Y-7936000D01*
X8350000Y-7881000D02*
X8460000Y-7881000D01*
X10050000Y-8867500D02*
X10050000Y-8977500D01*
X9995000Y-8922500D02*
X10105000Y-8922500D01*
X10050000Y-9121500D02*
X10050000Y-9231500D01*
X9995000Y-9176500D02*
X10105000Y-9176500D01*
X10050000Y-9375500D02*
X10050000Y-9485500D01*
X9995000Y-9430500D02*
X10105000Y-9430500D01*
X10769000Y-9295000D02*
X10769000Y-9405000D01*
X10714000Y-9350000D02*
X10824000Y-9350000D01*
X10800000Y-10245000D02*
X10800000Y-10355000D01*
X10745000Y-10300000D02*
X10855000Y-10300000D01*
X10800000Y-10695000D02*
X10800000Y-10805000D01*
X10745000Y-10750000D02*
X10855000Y-10750000D01*
X11450000Y-10245000D02*
X11450000Y-10355000D01*
X11395000Y-10300000D02*
X11505000Y-10300000D01*
X11450000Y-10695000D02*
X11450000Y-10805000D01*
X11395000Y-10750000D02*
X11505000Y-10750000D01*
X11531000Y-9295000D02*
X11531000Y-9405000D01*
X11476000Y-9350000D02*
X11586000Y-9350000D01*
D11*
X8058277Y-12113984D02*
X8058277Y-11913984D01*
X8058277Y-11913984D02*
X8105896Y-11913984D01*
X8105896Y-11913984D02*
X8134467Y-11923508D01*
X8134467Y-11923508D02*
X8153515Y-11942555D01*
X8153515Y-11942555D02*
X8163039Y-11961603D01*
X8163039Y-11961603D02*
X8172562Y-11999698D01*
X8172562Y-11999698D02*
X8172562Y-12028269D01*
X8172562Y-12028269D02*
X8163039Y-12066365D01*
X8163039Y-12066365D02*
X8153515Y-12085412D01*
X8153515Y-12085412D02*
X8134467Y-12104460D01*
X8134467Y-12104460D02*
X8105896Y-12113984D01*
X8105896Y-12113984D02*
X8058277Y-12113984D01*
X8258277Y-12113984D02*
X8258277Y-11980650D01*
X8258277Y-12018746D02*
X8267801Y-11999698D01*
X8267801Y-11999698D02*
X8277324Y-11990174D01*
X8277324Y-11990174D02*
X8296372Y-11980650D01*
X8296372Y-11980650D02*
X8315420Y-11980650D01*
X8382086Y-12113984D02*
X8382086Y-11980650D01*
X8382086Y-11913984D02*
X8372562Y-11923508D01*
X8372562Y-11923508D02*
X8382086Y-11933031D01*
X8382086Y-11933031D02*
X8391610Y-11923508D01*
X8391610Y-11923508D02*
X8382086Y-11913984D01*
X8382086Y-11913984D02*
X8382086Y-11933031D01*
X8505896Y-12113984D02*
X8486848Y-12104460D01*
X8486848Y-12104460D02*
X8477324Y-12085412D01*
X8477324Y-12085412D02*
X8477324Y-11913984D01*
X8610658Y-12113984D02*
X8591610Y-12104460D01*
X8591610Y-12104460D02*
X8582086Y-12085412D01*
X8582086Y-12085412D02*
X8582086Y-11913984D01*
X8839229Y-12113984D02*
X8839229Y-11913984D01*
X8839229Y-11913984D02*
X8905896Y-12056841D01*
X8905896Y-12056841D02*
X8972563Y-11913984D01*
X8972563Y-11913984D02*
X8972563Y-12113984D01*
X9153515Y-12113984D02*
X9153515Y-12009222D01*
X9153515Y-12009222D02*
X9143991Y-11990174D01*
X9143991Y-11990174D02*
X9124944Y-11980650D01*
X9124944Y-11980650D02*
X9086848Y-11980650D01*
X9086848Y-11980650D02*
X9067801Y-11990174D01*
X9153515Y-12104460D02*
X9134467Y-12113984D01*
X9134467Y-12113984D02*
X9086848Y-12113984D01*
X9086848Y-12113984D02*
X9067801Y-12104460D01*
X9067801Y-12104460D02*
X9058277Y-12085412D01*
X9058277Y-12085412D02*
X9058277Y-12066365D01*
X9058277Y-12066365D02*
X9067801Y-12047317D01*
X9067801Y-12047317D02*
X9086848Y-12037793D01*
X9086848Y-12037793D02*
X9134467Y-12037793D01*
X9134467Y-12037793D02*
X9153515Y-12028269D01*
X9248753Y-11980650D02*
X9248753Y-12180650D01*
X9248753Y-11990174D02*
X9267801Y-11980650D01*
X9267801Y-11980650D02*
X9305896Y-11980650D01*
X9305896Y-11980650D02*
X9324944Y-11990174D01*
X9324944Y-11990174D02*
X9334467Y-11999698D01*
X9334467Y-11999698D02*
X9343991Y-12018746D01*
X9343991Y-12018746D02*
X9343991Y-12075888D01*
X9343991Y-12075888D02*
X9334467Y-12094936D01*
X9334467Y-12094936D02*
X9324944Y-12104460D01*
X9324944Y-12104460D02*
X9305896Y-12113984D01*
X9305896Y-12113984D02*
X9267801Y-12113984D01*
X9267801Y-12113984D02*
X9248753Y-12104460D01*
X9429705Y-12094936D02*
X9439229Y-12104460D01*
X9439229Y-12104460D02*
X9429705Y-12113984D01*
X9429705Y-12113984D02*
X9420182Y-12104460D01*
X9420182Y-12104460D02*
X9429705Y-12094936D01*
X9429705Y-12094936D02*
X9429705Y-12113984D01*
X9429705Y-11990174D02*
X9439229Y-11999698D01*
X9439229Y-11999698D02*
X9429705Y-12009222D01*
X9429705Y-12009222D02*
X9420182Y-11999698D01*
X9420182Y-11999698D02*
X9429705Y-11990174D01*
X9429705Y-11990174D02*
X9429705Y-12009222D01*
D12*
X7717500Y-12402500D02*
X7797500Y-12482500D01*
X7797500Y-12402500D02*
X7717500Y-12482500D01*
D11*
X8096372Y-12333984D02*
X8115420Y-12333984D01*
X8115420Y-12333984D02*
X8134467Y-12343508D01*
X8134467Y-12343508D02*
X8143991Y-12353031D01*
X8143991Y-12353031D02*
X8153515Y-12372079D01*
X8153515Y-12372079D02*
X8163039Y-12410174D01*
X8163039Y-12410174D02*
X8163039Y-12457793D01*
X8163039Y-12457793D02*
X8153515Y-12495888D01*
X8153515Y-12495888D02*
X8143991Y-12514936D01*
X8143991Y-12514936D02*
X8134467Y-12524460D01*
X8134467Y-12524460D02*
X8115420Y-12533984D01*
X8115420Y-12533984D02*
X8096372Y-12533984D01*
X8096372Y-12533984D02*
X8077324Y-12524460D01*
X8077324Y-12524460D02*
X8067801Y-12514936D01*
X8067801Y-12514936D02*
X8058277Y-12495888D01*
X8058277Y-12495888D02*
X8048753Y-12457793D01*
X8048753Y-12457793D02*
X8048753Y-12410174D01*
X8048753Y-12410174D02*
X8058277Y-12372079D01*
X8058277Y-12372079D02*
X8067801Y-12353031D01*
X8067801Y-12353031D02*
X8077324Y-12343508D01*
X8077324Y-12343508D02*
X8096372Y-12333984D01*
X8248753Y-12514936D02*
X8258277Y-12524460D01*
X8258277Y-12524460D02*
X8248753Y-12533984D01*
X8248753Y-12533984D02*
X8239229Y-12524460D01*
X8239229Y-12524460D02*
X8248753Y-12514936D01*
X8248753Y-12514936D02*
X8248753Y-12533984D01*
X8372562Y-12419698D02*
X8353515Y-12410174D01*
X8353515Y-12410174D02*
X8343991Y-12400650D01*
X8343991Y-12400650D02*
X8334467Y-12381603D01*
X8334467Y-12381603D02*
X8334467Y-12372079D01*
X8334467Y-12372079D02*
X8343991Y-12353031D01*
X8343991Y-12353031D02*
X8353515Y-12343508D01*
X8353515Y-12343508D02*
X8372562Y-12333984D01*
X8372562Y-12333984D02*
X8410658Y-12333984D01*
X8410658Y-12333984D02*
X8429705Y-12343508D01*
X8429705Y-12343508D02*
X8439229Y-12353031D01*
X8439229Y-12353031D02*
X8448753Y-12372079D01*
X8448753Y-12372079D02*
X8448753Y-12381603D01*
X8448753Y-12381603D02*
X8439229Y-12400650D01*
X8439229Y-12400650D02*
X8429705Y-12410174D01*
X8429705Y-12410174D02*
X8410658Y-12419698D01*
X8410658Y-12419698D02*
X8372562Y-12419698D01*
X8372562Y-12419698D02*
X8353515Y-12429222D01*
X8353515Y-12429222D02*
X8343991Y-12438746D01*
X8343991Y-12438746D02*
X8334467Y-12457793D01*
X8334467Y-12457793D02*
X8334467Y-12495888D01*
X8334467Y-12495888D02*
X8343991Y-12514936D01*
X8343991Y-12514936D02*
X8353515Y-12524460D01*
X8353515Y-12524460D02*
X8372562Y-12533984D01*
X8372562Y-12533984D02*
X8410658Y-12533984D01*
X8410658Y-12533984D02*
X8429705Y-12524460D01*
X8429705Y-12524460D02*
X8439229Y-12514936D01*
X8439229Y-12514936D02*
X8448753Y-12495888D01*
X8448753Y-12495888D02*
X8448753Y-12457793D01*
X8448753Y-12457793D02*
X8439229Y-12438746D01*
X8439229Y-12438746D02*
X8429705Y-12429222D01*
X8429705Y-12429222D02*
X8410658Y-12419698D01*
X8572563Y-12333984D02*
X8591610Y-12333984D01*
X8591610Y-12333984D02*
X8610658Y-12343508D01*
X8610658Y-12343508D02*
X8620182Y-12353031D01*
X8620182Y-12353031D02*
X8629705Y-12372079D01*
X8629705Y-12372079D02*
X8639229Y-12410174D01*
X8639229Y-12410174D02*
X8639229Y-12457793D01*
X8639229Y-12457793D02*
X8629705Y-12495888D01*
X8629705Y-12495888D02*
X8620182Y-12514936D01*
X8620182Y-12514936D02*
X8610658Y-12524460D01*
X8610658Y-12524460D02*
X8591610Y-12533984D01*
X8591610Y-12533984D02*
X8572563Y-12533984D01*
X8572563Y-12533984D02*
X8553515Y-12524460D01*
X8553515Y-12524460D02*
X8543991Y-12514936D01*
X8543991Y-12514936D02*
X8534467Y-12495888D01*
X8534467Y-12495888D02*
X8524944Y-12457793D01*
X8524944Y-12457793D02*
X8524944Y-12410174D01*
X8524944Y-12410174D02*
X8534467Y-12372079D01*
X8534467Y-12372079D02*
X8543991Y-12353031D01*
X8543991Y-12353031D02*
X8553515Y-12343508D01*
X8553515Y-12343508D02*
X8572563Y-12333984D01*
X8763039Y-12333984D02*
X8782086Y-12333984D01*
X8782086Y-12333984D02*
X8801134Y-12343508D01*
X8801134Y-12343508D02*
X8810658Y-12353031D01*
X8810658Y-12353031D02*
X8820182Y-12372079D01*
X8820182Y-12372079D02*
X8829705Y-12410174D01*
X8829705Y-12410174D02*
X8829705Y-12457793D01*
X8829705Y-12457793D02*
X8820182Y-12495888D01*
X8820182Y-12495888D02*
X8810658Y-12514936D01*
X8810658Y-12514936D02*
X8801134Y-12524460D01*
X8801134Y-12524460D02*
X8782086Y-12533984D01*
X8782086Y-12533984D02*
X8763039Y-12533984D01*
X8763039Y-12533984D02*
X8743991Y-12524460D01*
X8743991Y-12524460D02*
X8734467Y-12514936D01*
X8734467Y-12514936D02*
X8724944Y-12495888D01*
X8724944Y-12495888D02*
X8715420Y-12457793D01*
X8715420Y-12457793D02*
X8715420Y-12410174D01*
X8715420Y-12410174D02*
X8724944Y-12372079D01*
X8724944Y-12372079D02*
X8734467Y-12353031D01*
X8734467Y-12353031D02*
X8743991Y-12343508D01*
X8743991Y-12343508D02*
X8763039Y-12333984D01*
X8915420Y-12533984D02*
X8915420Y-12400650D01*
X8915420Y-12419698D02*
X8924944Y-12410174D01*
X8924944Y-12410174D02*
X8943991Y-12400650D01*
X8943991Y-12400650D02*
X8972563Y-12400650D01*
X8972563Y-12400650D02*
X8991610Y-12410174D01*
X8991610Y-12410174D02*
X9001134Y-12429222D01*
X9001134Y-12429222D02*
X9001134Y-12533984D01*
X9001134Y-12429222D02*
X9010658Y-12410174D01*
X9010658Y-12410174D02*
X9029705Y-12400650D01*
X9029705Y-12400650D02*
X9058277Y-12400650D01*
X9058277Y-12400650D02*
X9077325Y-12410174D01*
X9077325Y-12410174D02*
X9086848Y-12429222D01*
X9086848Y-12429222D02*
X9086848Y-12533984D01*
X9182086Y-12533984D02*
X9182086Y-12400650D01*
X9182086Y-12419698D02*
X9191610Y-12410174D01*
X9191610Y-12410174D02*
X9210658Y-12400650D01*
X9210658Y-12400650D02*
X9239229Y-12400650D01*
X9239229Y-12400650D02*
X9258277Y-12410174D01*
X9258277Y-12410174D02*
X9267801Y-12429222D01*
X9267801Y-12429222D02*
X9267801Y-12533984D01*
X9267801Y-12429222D02*
X9277325Y-12410174D01*
X9277325Y-12410174D02*
X9296372Y-12400650D01*
X9296372Y-12400650D02*
X9324944Y-12400650D01*
X9324944Y-12400650D02*
X9343991Y-12410174D01*
X9343991Y-12410174D02*
X9353515Y-12429222D01*
X9353515Y-12429222D02*
X9353515Y-12533984D01*
X9743991Y-12324460D02*
X9572563Y-12581603D01*
X10001134Y-12333984D02*
X10020182Y-12333984D01*
X10020182Y-12333984D02*
X10039229Y-12343508D01*
X10039229Y-12343508D02*
X10048753Y-12353031D01*
X10048753Y-12353031D02*
X10058277Y-12372079D01*
X10058277Y-12372079D02*
X10067801Y-12410174D01*
X10067801Y-12410174D02*
X10067801Y-12457793D01*
X10067801Y-12457793D02*
X10058277Y-12495888D01*
X10058277Y-12495888D02*
X10048753Y-12514936D01*
X10048753Y-12514936D02*
X10039229Y-12524460D01*
X10039229Y-12524460D02*
X10020182Y-12533984D01*
X10020182Y-12533984D02*
X10001134Y-12533984D01*
X10001134Y-12533984D02*
X9982087Y-12524460D01*
X9982087Y-12524460D02*
X9972563Y-12514936D01*
X9972563Y-12514936D02*
X9963039Y-12495888D01*
X9963039Y-12495888D02*
X9953515Y-12457793D01*
X9953515Y-12457793D02*
X9953515Y-12410174D01*
X9953515Y-12410174D02*
X9963039Y-12372079D01*
X9963039Y-12372079D02*
X9972563Y-12353031D01*
X9972563Y-12353031D02*
X9982087Y-12343508D01*
X9982087Y-12343508D02*
X10001134Y-12333984D01*
X10153515Y-12514936D02*
X10163039Y-12524460D01*
X10163039Y-12524460D02*
X10153515Y-12533984D01*
X10153515Y-12533984D02*
X10143991Y-12524460D01*
X10143991Y-12524460D02*
X10153515Y-12514936D01*
X10153515Y-12514936D02*
X10153515Y-12533984D01*
X10286848Y-12333984D02*
X10305896Y-12333984D01*
X10305896Y-12333984D02*
X10324944Y-12343508D01*
X10324944Y-12343508D02*
X10334468Y-12353031D01*
X10334468Y-12353031D02*
X10343991Y-12372079D01*
X10343991Y-12372079D02*
X10353515Y-12410174D01*
X10353515Y-12410174D02*
X10353515Y-12457793D01*
X10353515Y-12457793D02*
X10343991Y-12495888D01*
X10343991Y-12495888D02*
X10334468Y-12514936D01*
X10334468Y-12514936D02*
X10324944Y-12524460D01*
X10324944Y-12524460D02*
X10305896Y-12533984D01*
X10305896Y-12533984D02*
X10286848Y-12533984D01*
X10286848Y-12533984D02*
X10267801Y-12524460D01*
X10267801Y-12524460D02*
X10258277Y-12514936D01*
X10258277Y-12514936D02*
X10248753Y-12495888D01*
X10248753Y-12495888D02*
X10239229Y-12457793D01*
X10239229Y-12457793D02*
X10239229Y-12410174D01*
X10239229Y-12410174D02*
X10248753Y-12372079D01*
X10248753Y-12372079D02*
X10258277Y-12353031D01*
X10258277Y-12353031D02*
X10267801Y-12343508D01*
X10267801Y-12343508D02*
X10286848Y-12333984D01*
X10420182Y-12333984D02*
X10543991Y-12333984D01*
X10543991Y-12333984D02*
X10477325Y-12410174D01*
X10477325Y-12410174D02*
X10505896Y-12410174D01*
X10505896Y-12410174D02*
X10524944Y-12419698D01*
X10524944Y-12419698D02*
X10534468Y-12429222D01*
X10534468Y-12429222D02*
X10543991Y-12448269D01*
X10543991Y-12448269D02*
X10543991Y-12495888D01*
X10543991Y-12495888D02*
X10534468Y-12514936D01*
X10534468Y-12514936D02*
X10524944Y-12524460D01*
X10524944Y-12524460D02*
X10505896Y-12533984D01*
X10505896Y-12533984D02*
X10448753Y-12533984D01*
X10448753Y-12533984D02*
X10429706Y-12524460D01*
X10429706Y-12524460D02*
X10420182Y-12514936D01*
X10734468Y-12533984D02*
X10620182Y-12533984D01*
X10677325Y-12533984D02*
X10677325Y-12333984D01*
X10677325Y-12333984D02*
X10658277Y-12362555D01*
X10658277Y-12362555D02*
X10639229Y-12381603D01*
X10639229Y-12381603D02*
X10620182Y-12391127D01*
X10915420Y-12333984D02*
X10820182Y-12333984D01*
X10820182Y-12333984D02*
X10810658Y-12429222D01*
X10810658Y-12429222D02*
X10820182Y-12419698D01*
X10820182Y-12419698D02*
X10839229Y-12410174D01*
X10839229Y-12410174D02*
X10886849Y-12410174D01*
X10886849Y-12410174D02*
X10905896Y-12419698D01*
X10905896Y-12419698D02*
X10915420Y-12429222D01*
X10915420Y-12429222D02*
X10924944Y-12448269D01*
X10924944Y-12448269D02*
X10924944Y-12495888D01*
X10924944Y-12495888D02*
X10915420Y-12514936D01*
X10915420Y-12514936D02*
X10905896Y-12524460D01*
X10905896Y-12524460D02*
X10886849Y-12533984D01*
X10886849Y-12533984D02*
X10839229Y-12533984D01*
X10839229Y-12533984D02*
X10820182Y-12524460D01*
X10820182Y-12524460D02*
X10810658Y-12514936D01*
X11001134Y-12333984D02*
X11001134Y-12372079D01*
X11077325Y-12333984D02*
X11077325Y-12372079D01*
X11372563Y-12610174D02*
X11363039Y-12600650D01*
X11363039Y-12600650D02*
X11343991Y-12572079D01*
X11343991Y-12572079D02*
X11334468Y-12553031D01*
X11334468Y-12553031D02*
X11324944Y-12524460D01*
X11324944Y-12524460D02*
X11315420Y-12476841D01*
X11315420Y-12476841D02*
X11315420Y-12438746D01*
X11315420Y-12438746D02*
X11324944Y-12391127D01*
X11324944Y-12391127D02*
X11334468Y-12362555D01*
X11334468Y-12362555D02*
X11343991Y-12343508D01*
X11343991Y-12343508D02*
X11363039Y-12314936D01*
X11363039Y-12314936D02*
X11372563Y-12305412D01*
X11543991Y-12333984D02*
X11448753Y-12333984D01*
X11448753Y-12333984D02*
X11439229Y-12429222D01*
X11439229Y-12429222D02*
X11448753Y-12419698D01*
X11448753Y-12419698D02*
X11467801Y-12410174D01*
X11467801Y-12410174D02*
X11515420Y-12410174D01*
X11515420Y-12410174D02*
X11534468Y-12419698D01*
X11534468Y-12419698D02*
X11543991Y-12429222D01*
X11543991Y-12429222D02*
X11553515Y-12448269D01*
X11553515Y-12448269D02*
X11553515Y-12495888D01*
X11553515Y-12495888D02*
X11543991Y-12514936D01*
X11543991Y-12514936D02*
X11534468Y-12524460D01*
X11534468Y-12524460D02*
X11515420Y-12533984D01*
X11515420Y-12533984D02*
X11467801Y-12533984D01*
X11467801Y-12533984D02*
X11448753Y-12524460D01*
X11448753Y-12524460D02*
X11439229Y-12514936D01*
X11724944Y-12400650D02*
X11724944Y-12533984D01*
X11677325Y-12324460D02*
X11629706Y-12467317D01*
X11629706Y-12467317D02*
X11753515Y-12467317D01*
X11982087Y-12533984D02*
X11982087Y-12333984D01*
X12067801Y-12533984D02*
X12067801Y-12429222D01*
X12067801Y-12429222D02*
X12058277Y-12410174D01*
X12058277Y-12410174D02*
X12039230Y-12400650D01*
X12039230Y-12400650D02*
X12010658Y-12400650D01*
X12010658Y-12400650D02*
X11991610Y-12410174D01*
X11991610Y-12410174D02*
X11982087Y-12419698D01*
X12191610Y-12533984D02*
X12172563Y-12524460D01*
X12172563Y-12524460D02*
X12163039Y-12514936D01*
X12163039Y-12514936D02*
X12153515Y-12495888D01*
X12153515Y-12495888D02*
X12153515Y-12438746D01*
X12153515Y-12438746D02*
X12163039Y-12419698D01*
X12163039Y-12419698D02*
X12172563Y-12410174D01*
X12172563Y-12410174D02*
X12191610Y-12400650D01*
X12191610Y-12400650D02*
X12220182Y-12400650D01*
X12220182Y-12400650D02*
X12239230Y-12410174D01*
X12239230Y-12410174D02*
X12248753Y-12419698D01*
X12248753Y-12419698D02*
X12258277Y-12438746D01*
X12258277Y-12438746D02*
X12258277Y-12495888D01*
X12258277Y-12495888D02*
X12248753Y-12514936D01*
X12248753Y-12514936D02*
X12239230Y-12524460D01*
X12239230Y-12524460D02*
X12220182Y-12533984D01*
X12220182Y-12533984D02*
X12191610Y-12533984D01*
X12372563Y-12533984D02*
X12353515Y-12524460D01*
X12353515Y-12524460D02*
X12343991Y-12505412D01*
X12343991Y-12505412D02*
X12343991Y-12333984D01*
X12524944Y-12524460D02*
X12505896Y-12533984D01*
X12505896Y-12533984D02*
X12467801Y-12533984D01*
X12467801Y-12533984D02*
X12448753Y-12524460D01*
X12448753Y-12524460D02*
X12439230Y-12505412D01*
X12439230Y-12505412D02*
X12439230Y-12429222D01*
X12439230Y-12429222D02*
X12448753Y-12410174D01*
X12448753Y-12410174D02*
X12467801Y-12400650D01*
X12467801Y-12400650D02*
X12505896Y-12400650D01*
X12505896Y-12400650D02*
X12524944Y-12410174D01*
X12524944Y-12410174D02*
X12534468Y-12429222D01*
X12534468Y-12429222D02*
X12534468Y-12448269D01*
X12534468Y-12448269D02*
X12439230Y-12467317D01*
X12610658Y-12524460D02*
X12629706Y-12533984D01*
X12629706Y-12533984D02*
X12667801Y-12533984D01*
X12667801Y-12533984D02*
X12686849Y-12524460D01*
X12686849Y-12524460D02*
X12696372Y-12505412D01*
X12696372Y-12505412D02*
X12696372Y-12495888D01*
X12696372Y-12495888D02*
X12686849Y-12476841D01*
X12686849Y-12476841D02*
X12667801Y-12467317D01*
X12667801Y-12467317D02*
X12639230Y-12467317D01*
X12639230Y-12467317D02*
X12620182Y-12457793D01*
X12620182Y-12457793D02*
X12610658Y-12438746D01*
X12610658Y-12438746D02*
X12610658Y-12429222D01*
X12610658Y-12429222D02*
X12620182Y-12410174D01*
X12620182Y-12410174D02*
X12639230Y-12400650D01*
X12639230Y-12400650D02*
X12667801Y-12400650D01*
X12667801Y-12400650D02*
X12686849Y-12410174D01*
X12763039Y-12610174D02*
X12772563Y-12600650D01*
X12772563Y-12600650D02*
X12791611Y-12572079D01*
X12791611Y-12572079D02*
X12801134Y-12553031D01*
X12801134Y-12553031D02*
X12810658Y-12524460D01*
X12810658Y-12524460D02*
X12820182Y-12476841D01*
X12820182Y-12476841D02*
X12820182Y-12438746D01*
X12820182Y-12438746D02*
X12810658Y-12391127D01*
X12810658Y-12391127D02*
X12801134Y-12362555D01*
X12801134Y-12362555D02*
X12791611Y-12343508D01*
X12791611Y-12343508D02*
X12772563Y-12314936D01*
X12772563Y-12314936D02*
X12763039Y-12305412D01*
D12*
X7797500Y-12706500D02*
G75*
G02*
X7697500Y-12706500I-50000J0D01*
G01*
X7697500Y-12706500D02*
G75*
G02*
X7797500Y-12706500I50000J0D01*
G01*
D11*
X8163039Y-12797984D02*
X8048753Y-12797984D01*
X8105896Y-12797984D02*
X8105896Y-12597984D01*
X8105896Y-12597984D02*
X8086848Y-12626555D01*
X8086848Y-12626555D02*
X8067801Y-12645603D01*
X8067801Y-12645603D02*
X8048753Y-12655127D01*
X8248753Y-12778936D02*
X8258277Y-12788460D01*
X8258277Y-12788460D02*
X8248753Y-12797984D01*
X8248753Y-12797984D02*
X8239229Y-12788460D01*
X8239229Y-12788460D02*
X8248753Y-12778936D01*
X8248753Y-12778936D02*
X8248753Y-12797984D01*
X8382086Y-12597984D02*
X8401134Y-12597984D01*
X8401134Y-12597984D02*
X8420182Y-12607508D01*
X8420182Y-12607508D02*
X8429705Y-12617031D01*
X8429705Y-12617031D02*
X8439229Y-12636079D01*
X8439229Y-12636079D02*
X8448753Y-12674174D01*
X8448753Y-12674174D02*
X8448753Y-12721793D01*
X8448753Y-12721793D02*
X8439229Y-12759888D01*
X8439229Y-12759888D02*
X8429705Y-12778936D01*
X8429705Y-12778936D02*
X8420182Y-12788460D01*
X8420182Y-12788460D02*
X8401134Y-12797984D01*
X8401134Y-12797984D02*
X8382086Y-12797984D01*
X8382086Y-12797984D02*
X8363039Y-12788460D01*
X8363039Y-12788460D02*
X8353515Y-12778936D01*
X8353515Y-12778936D02*
X8343991Y-12759888D01*
X8343991Y-12759888D02*
X8334467Y-12721793D01*
X8334467Y-12721793D02*
X8334467Y-12674174D01*
X8334467Y-12674174D02*
X8343991Y-12636079D01*
X8343991Y-12636079D02*
X8353515Y-12617031D01*
X8353515Y-12617031D02*
X8363039Y-12607508D01*
X8363039Y-12607508D02*
X8382086Y-12597984D01*
X8572563Y-12597984D02*
X8591610Y-12597984D01*
X8591610Y-12597984D02*
X8610658Y-12607508D01*
X8610658Y-12607508D02*
X8620182Y-12617031D01*
X8620182Y-12617031D02*
X8629705Y-12636079D01*
X8629705Y-12636079D02*
X8639229Y-12674174D01*
X8639229Y-12674174D02*
X8639229Y-12721793D01*
X8639229Y-12721793D02*
X8629705Y-12759888D01*
X8629705Y-12759888D02*
X8620182Y-12778936D01*
X8620182Y-12778936D02*
X8610658Y-12788460D01*
X8610658Y-12788460D02*
X8591610Y-12797984D01*
X8591610Y-12797984D02*
X8572563Y-12797984D01*
X8572563Y-12797984D02*
X8553515Y-12788460D01*
X8553515Y-12788460D02*
X8543991Y-12778936D01*
X8543991Y-12778936D02*
X8534467Y-12759888D01*
X8534467Y-12759888D02*
X8524944Y-12721793D01*
X8524944Y-12721793D02*
X8524944Y-12674174D01*
X8524944Y-12674174D02*
X8534467Y-12636079D01*
X8534467Y-12636079D02*
X8543991Y-12617031D01*
X8543991Y-12617031D02*
X8553515Y-12607508D01*
X8553515Y-12607508D02*
X8572563Y-12597984D01*
X8763039Y-12597984D02*
X8782086Y-12597984D01*
X8782086Y-12597984D02*
X8801134Y-12607508D01*
X8801134Y-12607508D02*
X8810658Y-12617031D01*
X8810658Y-12617031D02*
X8820182Y-12636079D01*
X8820182Y-12636079D02*
X8829705Y-12674174D01*
X8829705Y-12674174D02*
X8829705Y-12721793D01*
X8829705Y-12721793D02*
X8820182Y-12759888D01*
X8820182Y-12759888D02*
X8810658Y-12778936D01*
X8810658Y-12778936D02*
X8801134Y-12788460D01*
X8801134Y-12788460D02*
X8782086Y-12797984D01*
X8782086Y-12797984D02*
X8763039Y-12797984D01*
X8763039Y-12797984D02*
X8743991Y-12788460D01*
X8743991Y-12788460D02*
X8734467Y-12778936D01*
X8734467Y-12778936D02*
X8724944Y-12759888D01*
X8724944Y-12759888D02*
X8715420Y-12721793D01*
X8715420Y-12721793D02*
X8715420Y-12674174D01*
X8715420Y-12674174D02*
X8724944Y-12636079D01*
X8724944Y-12636079D02*
X8734467Y-12617031D01*
X8734467Y-12617031D02*
X8743991Y-12607508D01*
X8743991Y-12607508D02*
X8763039Y-12597984D01*
X8915420Y-12797984D02*
X8915420Y-12664650D01*
X8915420Y-12683698D02*
X8924944Y-12674174D01*
X8924944Y-12674174D02*
X8943991Y-12664650D01*
X8943991Y-12664650D02*
X8972563Y-12664650D01*
X8972563Y-12664650D02*
X8991610Y-12674174D01*
X8991610Y-12674174D02*
X9001134Y-12693222D01*
X9001134Y-12693222D02*
X9001134Y-12797984D01*
X9001134Y-12693222D02*
X9010658Y-12674174D01*
X9010658Y-12674174D02*
X9029705Y-12664650D01*
X9029705Y-12664650D02*
X9058277Y-12664650D01*
X9058277Y-12664650D02*
X9077325Y-12674174D01*
X9077325Y-12674174D02*
X9086848Y-12693222D01*
X9086848Y-12693222D02*
X9086848Y-12797984D01*
X9182086Y-12797984D02*
X9182086Y-12664650D01*
X9182086Y-12683698D02*
X9191610Y-12674174D01*
X9191610Y-12674174D02*
X9210658Y-12664650D01*
X9210658Y-12664650D02*
X9239229Y-12664650D01*
X9239229Y-12664650D02*
X9258277Y-12674174D01*
X9258277Y-12674174D02*
X9267801Y-12693222D01*
X9267801Y-12693222D02*
X9267801Y-12797984D01*
X9267801Y-12693222D02*
X9277325Y-12674174D01*
X9277325Y-12674174D02*
X9296372Y-12664650D01*
X9296372Y-12664650D02*
X9324944Y-12664650D01*
X9324944Y-12664650D02*
X9343991Y-12674174D01*
X9343991Y-12674174D02*
X9353515Y-12693222D01*
X9353515Y-12693222D02*
X9353515Y-12797984D01*
X9743991Y-12588460D02*
X9572563Y-12845603D01*
X10001134Y-12597984D02*
X10020182Y-12597984D01*
X10020182Y-12597984D02*
X10039229Y-12607508D01*
X10039229Y-12607508D02*
X10048753Y-12617031D01*
X10048753Y-12617031D02*
X10058277Y-12636079D01*
X10058277Y-12636079D02*
X10067801Y-12674174D01*
X10067801Y-12674174D02*
X10067801Y-12721793D01*
X10067801Y-12721793D02*
X10058277Y-12759888D01*
X10058277Y-12759888D02*
X10048753Y-12778936D01*
X10048753Y-12778936D02*
X10039229Y-12788460D01*
X10039229Y-12788460D02*
X10020182Y-12797984D01*
X10020182Y-12797984D02*
X10001134Y-12797984D01*
X10001134Y-12797984D02*
X9982087Y-12788460D01*
X9982087Y-12788460D02*
X9972563Y-12778936D01*
X9972563Y-12778936D02*
X9963039Y-12759888D01*
X9963039Y-12759888D02*
X9953515Y-12721793D01*
X9953515Y-12721793D02*
X9953515Y-12674174D01*
X9953515Y-12674174D02*
X9963039Y-12636079D01*
X9963039Y-12636079D02*
X9972563Y-12617031D01*
X9972563Y-12617031D02*
X9982087Y-12607508D01*
X9982087Y-12607508D02*
X10001134Y-12597984D01*
X10153515Y-12778936D02*
X10163039Y-12788460D01*
X10163039Y-12788460D02*
X10153515Y-12797984D01*
X10153515Y-12797984D02*
X10143991Y-12788460D01*
X10143991Y-12788460D02*
X10153515Y-12778936D01*
X10153515Y-12778936D02*
X10153515Y-12797984D01*
X10286848Y-12597984D02*
X10305896Y-12597984D01*
X10305896Y-12597984D02*
X10324944Y-12607508D01*
X10324944Y-12607508D02*
X10334468Y-12617031D01*
X10334468Y-12617031D02*
X10343991Y-12636079D01*
X10343991Y-12636079D02*
X10353515Y-12674174D01*
X10353515Y-12674174D02*
X10353515Y-12721793D01*
X10353515Y-12721793D02*
X10343991Y-12759888D01*
X10343991Y-12759888D02*
X10334468Y-12778936D01*
X10334468Y-12778936D02*
X10324944Y-12788460D01*
X10324944Y-12788460D02*
X10305896Y-12797984D01*
X10305896Y-12797984D02*
X10286848Y-12797984D01*
X10286848Y-12797984D02*
X10267801Y-12788460D01*
X10267801Y-12788460D02*
X10258277Y-12778936D01*
X10258277Y-12778936D02*
X10248753Y-12759888D01*
X10248753Y-12759888D02*
X10239229Y-12721793D01*
X10239229Y-12721793D02*
X10239229Y-12674174D01*
X10239229Y-12674174D02*
X10248753Y-12636079D01*
X10248753Y-12636079D02*
X10258277Y-12617031D01*
X10258277Y-12617031D02*
X10267801Y-12607508D01*
X10267801Y-12607508D02*
X10286848Y-12597984D01*
X10420182Y-12597984D02*
X10543991Y-12597984D01*
X10543991Y-12597984D02*
X10477325Y-12674174D01*
X10477325Y-12674174D02*
X10505896Y-12674174D01*
X10505896Y-12674174D02*
X10524944Y-12683698D01*
X10524944Y-12683698D02*
X10534468Y-12693222D01*
X10534468Y-12693222D02*
X10543991Y-12712269D01*
X10543991Y-12712269D02*
X10543991Y-12759888D01*
X10543991Y-12759888D02*
X10534468Y-12778936D01*
X10534468Y-12778936D02*
X10524944Y-12788460D01*
X10524944Y-12788460D02*
X10505896Y-12797984D01*
X10505896Y-12797984D02*
X10448753Y-12797984D01*
X10448753Y-12797984D02*
X10429706Y-12788460D01*
X10429706Y-12788460D02*
X10420182Y-12778936D01*
X10639229Y-12797984D02*
X10677325Y-12797984D01*
X10677325Y-12797984D02*
X10696372Y-12788460D01*
X10696372Y-12788460D02*
X10705896Y-12778936D01*
X10705896Y-12778936D02*
X10724944Y-12750365D01*
X10724944Y-12750365D02*
X10734468Y-12712269D01*
X10734468Y-12712269D02*
X10734468Y-12636079D01*
X10734468Y-12636079D02*
X10724944Y-12617031D01*
X10724944Y-12617031D02*
X10715420Y-12607508D01*
X10715420Y-12607508D02*
X10696372Y-12597984D01*
X10696372Y-12597984D02*
X10658277Y-12597984D01*
X10658277Y-12597984D02*
X10639229Y-12607508D01*
X10639229Y-12607508D02*
X10629706Y-12617031D01*
X10629706Y-12617031D02*
X10620182Y-12636079D01*
X10620182Y-12636079D02*
X10620182Y-12683698D01*
X10620182Y-12683698D02*
X10629706Y-12702746D01*
X10629706Y-12702746D02*
X10639229Y-12712269D01*
X10639229Y-12712269D02*
X10658277Y-12721793D01*
X10658277Y-12721793D02*
X10696372Y-12721793D01*
X10696372Y-12721793D02*
X10715420Y-12712269D01*
X10715420Y-12712269D02*
X10724944Y-12702746D01*
X10724944Y-12702746D02*
X10734468Y-12683698D01*
X10905896Y-12664650D02*
X10905896Y-12797984D01*
X10858277Y-12588460D02*
X10810658Y-12731317D01*
X10810658Y-12731317D02*
X10934468Y-12731317D01*
X11001134Y-12597984D02*
X11001134Y-12636079D01*
X11077325Y-12597984D02*
X11077325Y-12636079D01*
X11372563Y-12874174D02*
X11363039Y-12864650D01*
X11363039Y-12864650D02*
X11343991Y-12836079D01*
X11343991Y-12836079D02*
X11334468Y-12817031D01*
X11334468Y-12817031D02*
X11324944Y-12788460D01*
X11324944Y-12788460D02*
X11315420Y-12740841D01*
X11315420Y-12740841D02*
X11315420Y-12702746D01*
X11315420Y-12702746D02*
X11324944Y-12655127D01*
X11324944Y-12655127D02*
X11334468Y-12626555D01*
X11334468Y-12626555D02*
X11343991Y-12607508D01*
X11343991Y-12607508D02*
X11363039Y-12578936D01*
X11363039Y-12578936D02*
X11372563Y-12569412D01*
X11534468Y-12664650D02*
X11534468Y-12797984D01*
X11486848Y-12588460D02*
X11439229Y-12731317D01*
X11439229Y-12731317D02*
X11563039Y-12731317D01*
X11724944Y-12597984D02*
X11686848Y-12597984D01*
X11686848Y-12597984D02*
X11667801Y-12607508D01*
X11667801Y-12607508D02*
X11658277Y-12617031D01*
X11658277Y-12617031D02*
X11639229Y-12645603D01*
X11639229Y-12645603D02*
X11629706Y-12683698D01*
X11629706Y-12683698D02*
X11629706Y-12759888D01*
X11629706Y-12759888D02*
X11639229Y-12778936D01*
X11639229Y-12778936D02*
X11648753Y-12788460D01*
X11648753Y-12788460D02*
X11667801Y-12797984D01*
X11667801Y-12797984D02*
X11705896Y-12797984D01*
X11705896Y-12797984D02*
X11724944Y-12788460D01*
X11724944Y-12788460D02*
X11734468Y-12778936D01*
X11734468Y-12778936D02*
X11743991Y-12759888D01*
X11743991Y-12759888D02*
X11743991Y-12712269D01*
X11743991Y-12712269D02*
X11734468Y-12693222D01*
X11734468Y-12693222D02*
X11724944Y-12683698D01*
X11724944Y-12683698D02*
X11705896Y-12674174D01*
X11705896Y-12674174D02*
X11667801Y-12674174D01*
X11667801Y-12674174D02*
X11648753Y-12683698D01*
X11648753Y-12683698D02*
X11639229Y-12693222D01*
X11639229Y-12693222D02*
X11629706Y-12712269D01*
X11982087Y-12797984D02*
X11982087Y-12597984D01*
X12067801Y-12797984D02*
X12067801Y-12693222D01*
X12067801Y-12693222D02*
X12058277Y-12674174D01*
X12058277Y-12674174D02*
X12039230Y-12664650D01*
X12039230Y-12664650D02*
X12010658Y-12664650D01*
X12010658Y-12664650D02*
X11991610Y-12674174D01*
X11991610Y-12674174D02*
X11982087Y-12683698D01*
X12191610Y-12797984D02*
X12172563Y-12788460D01*
X12172563Y-12788460D02*
X12163039Y-12778936D01*
X12163039Y-12778936D02*
X12153515Y-12759888D01*
X12153515Y-12759888D02*
X12153515Y-12702746D01*
X12153515Y-12702746D02*
X12163039Y-12683698D01*
X12163039Y-12683698D02*
X12172563Y-12674174D01*
X12172563Y-12674174D02*
X12191610Y-12664650D01*
X12191610Y-12664650D02*
X12220182Y-12664650D01*
X12220182Y-12664650D02*
X12239230Y-12674174D01*
X12239230Y-12674174D02*
X12248753Y-12683698D01*
X12248753Y-12683698D02*
X12258277Y-12702746D01*
X12258277Y-12702746D02*
X12258277Y-12759888D01*
X12258277Y-12759888D02*
X12248753Y-12778936D01*
X12248753Y-12778936D02*
X12239230Y-12788460D01*
X12239230Y-12788460D02*
X12220182Y-12797984D01*
X12220182Y-12797984D02*
X12191610Y-12797984D01*
X12372563Y-12797984D02*
X12353515Y-12788460D01*
X12353515Y-12788460D02*
X12343991Y-12769412D01*
X12343991Y-12769412D02*
X12343991Y-12597984D01*
X12524944Y-12788460D02*
X12505896Y-12797984D01*
X12505896Y-12797984D02*
X12467801Y-12797984D01*
X12467801Y-12797984D02*
X12448753Y-12788460D01*
X12448753Y-12788460D02*
X12439230Y-12769412D01*
X12439230Y-12769412D02*
X12439230Y-12693222D01*
X12439230Y-12693222D02*
X12448753Y-12674174D01*
X12448753Y-12674174D02*
X12467801Y-12664650D01*
X12467801Y-12664650D02*
X12505896Y-12664650D01*
X12505896Y-12664650D02*
X12524944Y-12674174D01*
X12524944Y-12674174D02*
X12534468Y-12693222D01*
X12534468Y-12693222D02*
X12534468Y-12712269D01*
X12534468Y-12712269D02*
X12439230Y-12731317D01*
X12610658Y-12788460D02*
X12629706Y-12797984D01*
X12629706Y-12797984D02*
X12667801Y-12797984D01*
X12667801Y-12797984D02*
X12686849Y-12788460D01*
X12686849Y-12788460D02*
X12696372Y-12769412D01*
X12696372Y-12769412D02*
X12696372Y-12759888D01*
X12696372Y-12759888D02*
X12686849Y-12740841D01*
X12686849Y-12740841D02*
X12667801Y-12731317D01*
X12667801Y-12731317D02*
X12639230Y-12731317D01*
X12639230Y-12731317D02*
X12620182Y-12721793D01*
X12620182Y-12721793D02*
X12610658Y-12702746D01*
X12610658Y-12702746D02*
X12610658Y-12693222D01*
X12610658Y-12693222D02*
X12620182Y-12674174D01*
X12620182Y-12674174D02*
X12639230Y-12664650D01*
X12639230Y-12664650D02*
X12667801Y-12664650D01*
X12667801Y-12664650D02*
X12686849Y-12674174D01*
X12934468Y-12721793D02*
X13086849Y-12721793D01*
X13010658Y-12797984D02*
X13010658Y-12645603D01*
X13315420Y-12597984D02*
X13439230Y-12597984D01*
X13439230Y-12597984D02*
X13372563Y-12674174D01*
X13372563Y-12674174D02*
X13401134Y-12674174D01*
X13401134Y-12674174D02*
X13420182Y-12683698D01*
X13420182Y-12683698D02*
X13429706Y-12693222D01*
X13429706Y-12693222D02*
X13439230Y-12712269D01*
X13439230Y-12712269D02*
X13439230Y-12759888D01*
X13439230Y-12759888D02*
X13429706Y-12778936D01*
X13429706Y-12778936D02*
X13420182Y-12788460D01*
X13420182Y-12788460D02*
X13401134Y-12797984D01*
X13401134Y-12797984D02*
X13343992Y-12797984D01*
X13343992Y-12797984D02*
X13324944Y-12788460D01*
X13324944Y-12788460D02*
X13315420Y-12778936D01*
X13667801Y-12788460D02*
X13686849Y-12797984D01*
X13686849Y-12797984D02*
X13724944Y-12797984D01*
X13724944Y-12797984D02*
X13743992Y-12788460D01*
X13743992Y-12788460D02*
X13753515Y-12769412D01*
X13753515Y-12769412D02*
X13753515Y-12759888D01*
X13753515Y-12759888D02*
X13743992Y-12740841D01*
X13743992Y-12740841D02*
X13724944Y-12731317D01*
X13724944Y-12731317D02*
X13696373Y-12731317D01*
X13696373Y-12731317D02*
X13677325Y-12721793D01*
X13677325Y-12721793D02*
X13667801Y-12702746D01*
X13667801Y-12702746D02*
X13667801Y-12693222D01*
X13667801Y-12693222D02*
X13677325Y-12674174D01*
X13677325Y-12674174D02*
X13696373Y-12664650D01*
X13696373Y-12664650D02*
X13724944Y-12664650D01*
X13724944Y-12664650D02*
X13743992Y-12674174D01*
X13867801Y-12797984D02*
X13848754Y-12788460D01*
X13848754Y-12788460D02*
X13839230Y-12769412D01*
X13839230Y-12769412D02*
X13839230Y-12597984D01*
X13972563Y-12797984D02*
X13953515Y-12788460D01*
X13953515Y-12788460D02*
X13943992Y-12778936D01*
X13943992Y-12778936D02*
X13934468Y-12759888D01*
X13934468Y-12759888D02*
X13934468Y-12702746D01*
X13934468Y-12702746D02*
X13943992Y-12683698D01*
X13943992Y-12683698D02*
X13953515Y-12674174D01*
X13953515Y-12674174D02*
X13972563Y-12664650D01*
X13972563Y-12664650D02*
X14001135Y-12664650D01*
X14001135Y-12664650D02*
X14020182Y-12674174D01*
X14020182Y-12674174D02*
X14029706Y-12683698D01*
X14029706Y-12683698D02*
X14039230Y-12702746D01*
X14039230Y-12702746D02*
X14039230Y-12759888D01*
X14039230Y-12759888D02*
X14029706Y-12778936D01*
X14029706Y-12778936D02*
X14020182Y-12788460D01*
X14020182Y-12788460D02*
X14001135Y-12797984D01*
X14001135Y-12797984D02*
X13972563Y-12797984D01*
X14096373Y-12664650D02*
X14172563Y-12664650D01*
X14124944Y-12597984D02*
X14124944Y-12769412D01*
X14124944Y-12769412D02*
X14134468Y-12788460D01*
X14134468Y-12788460D02*
X14153515Y-12797984D01*
X14153515Y-12797984D02*
X14172563Y-12797984D01*
X14229706Y-12788460D02*
X14248754Y-12797984D01*
X14248754Y-12797984D02*
X14286849Y-12797984D01*
X14286849Y-12797984D02*
X14305896Y-12788460D01*
X14305896Y-12788460D02*
X14315420Y-12769412D01*
X14315420Y-12769412D02*
X14315420Y-12759888D01*
X14315420Y-12759888D02*
X14305896Y-12740841D01*
X14305896Y-12740841D02*
X14286849Y-12731317D01*
X14286849Y-12731317D02*
X14258277Y-12731317D01*
X14258277Y-12731317D02*
X14239230Y-12721793D01*
X14239230Y-12721793D02*
X14229706Y-12702746D01*
X14229706Y-12702746D02*
X14229706Y-12693222D01*
X14229706Y-12693222D02*
X14239230Y-12674174D01*
X14239230Y-12674174D02*
X14258277Y-12664650D01*
X14258277Y-12664650D02*
X14286849Y-12664650D01*
X14286849Y-12664650D02*
X14305896Y-12674174D01*
X14382087Y-12874174D02*
X14391611Y-12864650D01*
X14391611Y-12864650D02*
X14410658Y-12836079D01*
X14410658Y-12836079D02*
X14420182Y-12817031D01*
X14420182Y-12817031D02*
X14429706Y-12788460D01*
X14429706Y-12788460D02*
X14439230Y-12740841D01*
X14439230Y-12740841D02*
X14439230Y-12702746D01*
X14439230Y-12702746D02*
X14429706Y-12655127D01*
X14429706Y-12655127D02*
X14420182Y-12626555D01*
X14420182Y-12626555D02*
X14410658Y-12607508D01*
X14410658Y-12607508D02*
X14391611Y-12578936D01*
X14391611Y-12578936D02*
X14382087Y-12569412D01*
D13*
X7742500Y-12915500D02*
X7742500Y-13025500D01*
X7687500Y-12970500D02*
X7797500Y-12970500D01*
D11*
X8163039Y-13061984D02*
X8048753Y-13061984D01*
X8105896Y-13061984D02*
X8105896Y-12861984D01*
X8105896Y-12861984D02*
X8086848Y-12890555D01*
X8086848Y-12890555D02*
X8067801Y-12909603D01*
X8067801Y-12909603D02*
X8048753Y-12919127D01*
X8248753Y-13042936D02*
X8258277Y-13052460D01*
X8258277Y-13052460D02*
X8248753Y-13061984D01*
X8248753Y-13061984D02*
X8239229Y-13052460D01*
X8239229Y-13052460D02*
X8248753Y-13042936D01*
X8248753Y-13042936D02*
X8248753Y-13061984D01*
X8448753Y-13061984D02*
X8334467Y-13061984D01*
X8391610Y-13061984D02*
X8391610Y-12861984D01*
X8391610Y-12861984D02*
X8372562Y-12890555D01*
X8372562Y-12890555D02*
X8353515Y-12909603D01*
X8353515Y-12909603D02*
X8334467Y-12919127D01*
X8572563Y-12861984D02*
X8591610Y-12861984D01*
X8591610Y-12861984D02*
X8610658Y-12871508D01*
X8610658Y-12871508D02*
X8620182Y-12881031D01*
X8620182Y-12881031D02*
X8629705Y-12900079D01*
X8629705Y-12900079D02*
X8639229Y-12938174D01*
X8639229Y-12938174D02*
X8639229Y-12985793D01*
X8639229Y-12985793D02*
X8629705Y-13023888D01*
X8629705Y-13023888D02*
X8620182Y-13042936D01*
X8620182Y-13042936D02*
X8610658Y-13052460D01*
X8610658Y-13052460D02*
X8591610Y-13061984D01*
X8591610Y-13061984D02*
X8572563Y-13061984D01*
X8572563Y-13061984D02*
X8553515Y-13052460D01*
X8553515Y-13052460D02*
X8543991Y-13042936D01*
X8543991Y-13042936D02*
X8534467Y-13023888D01*
X8534467Y-13023888D02*
X8524944Y-12985793D01*
X8524944Y-12985793D02*
X8524944Y-12938174D01*
X8524944Y-12938174D02*
X8534467Y-12900079D01*
X8534467Y-12900079D02*
X8543991Y-12881031D01*
X8543991Y-12881031D02*
X8553515Y-12871508D01*
X8553515Y-12871508D02*
X8572563Y-12861984D01*
X8763039Y-12861984D02*
X8782086Y-12861984D01*
X8782086Y-12861984D02*
X8801134Y-12871508D01*
X8801134Y-12871508D02*
X8810658Y-12881031D01*
X8810658Y-12881031D02*
X8820182Y-12900079D01*
X8820182Y-12900079D02*
X8829705Y-12938174D01*
X8829705Y-12938174D02*
X8829705Y-12985793D01*
X8829705Y-12985793D02*
X8820182Y-13023888D01*
X8820182Y-13023888D02*
X8810658Y-13042936D01*
X8810658Y-13042936D02*
X8801134Y-13052460D01*
X8801134Y-13052460D02*
X8782086Y-13061984D01*
X8782086Y-13061984D02*
X8763039Y-13061984D01*
X8763039Y-13061984D02*
X8743991Y-13052460D01*
X8743991Y-13052460D02*
X8734467Y-13042936D01*
X8734467Y-13042936D02*
X8724944Y-13023888D01*
X8724944Y-13023888D02*
X8715420Y-12985793D01*
X8715420Y-12985793D02*
X8715420Y-12938174D01*
X8715420Y-12938174D02*
X8724944Y-12900079D01*
X8724944Y-12900079D02*
X8734467Y-12881031D01*
X8734467Y-12881031D02*
X8743991Y-12871508D01*
X8743991Y-12871508D02*
X8763039Y-12861984D01*
X8915420Y-13061984D02*
X8915420Y-12928650D01*
X8915420Y-12947698D02*
X8924944Y-12938174D01*
X8924944Y-12938174D02*
X8943991Y-12928650D01*
X8943991Y-12928650D02*
X8972563Y-12928650D01*
X8972563Y-12928650D02*
X8991610Y-12938174D01*
X8991610Y-12938174D02*
X9001134Y-12957222D01*
X9001134Y-12957222D02*
X9001134Y-13061984D01*
X9001134Y-12957222D02*
X9010658Y-12938174D01*
X9010658Y-12938174D02*
X9029705Y-12928650D01*
X9029705Y-12928650D02*
X9058277Y-12928650D01*
X9058277Y-12928650D02*
X9077325Y-12938174D01*
X9077325Y-12938174D02*
X9086848Y-12957222D01*
X9086848Y-12957222D02*
X9086848Y-13061984D01*
X9182086Y-13061984D02*
X9182086Y-12928650D01*
X9182086Y-12947698D02*
X9191610Y-12938174D01*
X9191610Y-12938174D02*
X9210658Y-12928650D01*
X9210658Y-12928650D02*
X9239229Y-12928650D01*
X9239229Y-12928650D02*
X9258277Y-12938174D01*
X9258277Y-12938174D02*
X9267801Y-12957222D01*
X9267801Y-12957222D02*
X9267801Y-13061984D01*
X9267801Y-12957222D02*
X9277325Y-12938174D01*
X9277325Y-12938174D02*
X9296372Y-12928650D01*
X9296372Y-12928650D02*
X9324944Y-12928650D01*
X9324944Y-12928650D02*
X9343991Y-12938174D01*
X9343991Y-12938174D02*
X9353515Y-12957222D01*
X9353515Y-12957222D02*
X9353515Y-13061984D01*
X9743991Y-12852460D02*
X9572563Y-13109603D01*
X10001134Y-12861984D02*
X10020182Y-12861984D01*
X10020182Y-12861984D02*
X10039229Y-12871508D01*
X10039229Y-12871508D02*
X10048753Y-12881031D01*
X10048753Y-12881031D02*
X10058277Y-12900079D01*
X10058277Y-12900079D02*
X10067801Y-12938174D01*
X10067801Y-12938174D02*
X10067801Y-12985793D01*
X10067801Y-12985793D02*
X10058277Y-13023888D01*
X10058277Y-13023888D02*
X10048753Y-13042936D01*
X10048753Y-13042936D02*
X10039229Y-13052460D01*
X10039229Y-13052460D02*
X10020182Y-13061984D01*
X10020182Y-13061984D02*
X10001134Y-13061984D01*
X10001134Y-13061984D02*
X9982087Y-13052460D01*
X9982087Y-13052460D02*
X9972563Y-13042936D01*
X9972563Y-13042936D02*
X9963039Y-13023888D01*
X9963039Y-13023888D02*
X9953515Y-12985793D01*
X9953515Y-12985793D02*
X9953515Y-12938174D01*
X9953515Y-12938174D02*
X9963039Y-12900079D01*
X9963039Y-12900079D02*
X9972563Y-12881031D01*
X9972563Y-12881031D02*
X9982087Y-12871508D01*
X9982087Y-12871508D02*
X10001134Y-12861984D01*
X10153515Y-13042936D02*
X10163039Y-13052460D01*
X10163039Y-13052460D02*
X10153515Y-13061984D01*
X10153515Y-13061984D02*
X10143991Y-13052460D01*
X10143991Y-13052460D02*
X10153515Y-13042936D01*
X10153515Y-13042936D02*
X10153515Y-13061984D01*
X10286848Y-12861984D02*
X10305896Y-12861984D01*
X10305896Y-12861984D02*
X10324944Y-12871508D01*
X10324944Y-12871508D02*
X10334468Y-12881031D01*
X10334468Y-12881031D02*
X10343991Y-12900079D01*
X10343991Y-12900079D02*
X10353515Y-12938174D01*
X10353515Y-12938174D02*
X10353515Y-12985793D01*
X10353515Y-12985793D02*
X10343991Y-13023888D01*
X10343991Y-13023888D02*
X10334468Y-13042936D01*
X10334468Y-13042936D02*
X10324944Y-13052460D01*
X10324944Y-13052460D02*
X10305896Y-13061984D01*
X10305896Y-13061984D02*
X10286848Y-13061984D01*
X10286848Y-13061984D02*
X10267801Y-13052460D01*
X10267801Y-13052460D02*
X10258277Y-13042936D01*
X10258277Y-13042936D02*
X10248753Y-13023888D01*
X10248753Y-13023888D02*
X10239229Y-12985793D01*
X10239229Y-12985793D02*
X10239229Y-12938174D01*
X10239229Y-12938174D02*
X10248753Y-12900079D01*
X10248753Y-12900079D02*
X10258277Y-12881031D01*
X10258277Y-12881031D02*
X10267801Y-12871508D01*
X10267801Y-12871508D02*
X10286848Y-12861984D01*
X10524944Y-12928650D02*
X10524944Y-13061984D01*
X10477325Y-12852460D02*
X10429706Y-12995317D01*
X10429706Y-12995317D02*
X10553515Y-12995317D01*
X10610658Y-12861984D02*
X10734468Y-12861984D01*
X10734468Y-12861984D02*
X10667801Y-12938174D01*
X10667801Y-12938174D02*
X10696372Y-12938174D01*
X10696372Y-12938174D02*
X10715420Y-12947698D01*
X10715420Y-12947698D02*
X10724944Y-12957222D01*
X10724944Y-12957222D02*
X10734468Y-12976269D01*
X10734468Y-12976269D02*
X10734468Y-13023888D01*
X10734468Y-13023888D02*
X10724944Y-13042936D01*
X10724944Y-13042936D02*
X10715420Y-13052460D01*
X10715420Y-13052460D02*
X10696372Y-13061984D01*
X10696372Y-13061984D02*
X10639229Y-13061984D01*
X10639229Y-13061984D02*
X10620182Y-13052460D01*
X10620182Y-13052460D02*
X10610658Y-13042936D01*
X10801134Y-12861984D02*
X10924944Y-12861984D01*
X10924944Y-12861984D02*
X10858277Y-12938174D01*
X10858277Y-12938174D02*
X10886849Y-12938174D01*
X10886849Y-12938174D02*
X10905896Y-12947698D01*
X10905896Y-12947698D02*
X10915420Y-12957222D01*
X10915420Y-12957222D02*
X10924944Y-12976269D01*
X10924944Y-12976269D02*
X10924944Y-13023888D01*
X10924944Y-13023888D02*
X10915420Y-13042936D01*
X10915420Y-13042936D02*
X10905896Y-13052460D01*
X10905896Y-13052460D02*
X10886849Y-13061984D01*
X10886849Y-13061984D02*
X10829706Y-13061984D01*
X10829706Y-13061984D02*
X10810658Y-13052460D01*
X10810658Y-13052460D02*
X10801134Y-13042936D01*
X11001134Y-12861984D02*
X11001134Y-12900079D01*
X11077325Y-12861984D02*
X11077325Y-12900079D01*
X11372563Y-13138174D02*
X11363039Y-13128650D01*
X11363039Y-13128650D02*
X11343991Y-13100079D01*
X11343991Y-13100079D02*
X11334468Y-13081031D01*
X11334468Y-13081031D02*
X11324944Y-13052460D01*
X11324944Y-13052460D02*
X11315420Y-13004841D01*
X11315420Y-13004841D02*
X11315420Y-12966746D01*
X11315420Y-12966746D02*
X11324944Y-12919127D01*
X11324944Y-12919127D02*
X11334468Y-12890555D01*
X11334468Y-12890555D02*
X11343991Y-12871508D01*
X11343991Y-12871508D02*
X11363039Y-12842936D01*
X11363039Y-12842936D02*
X11372563Y-12833412D01*
X11553515Y-13061984D02*
X11439229Y-13061984D01*
X11496372Y-13061984D02*
X11496372Y-12861984D01*
X11496372Y-12861984D02*
X11477325Y-12890555D01*
X11477325Y-12890555D02*
X11458277Y-12909603D01*
X11458277Y-12909603D02*
X11439229Y-12919127D01*
X11743991Y-13061984D02*
X11629706Y-13061984D01*
X11686848Y-13061984D02*
X11686848Y-12861984D01*
X11686848Y-12861984D02*
X11667801Y-12890555D01*
X11667801Y-12890555D02*
X11648753Y-12909603D01*
X11648753Y-12909603D02*
X11629706Y-12919127D01*
X11982087Y-13061984D02*
X11982087Y-12861984D01*
X12067801Y-13061984D02*
X12067801Y-12957222D01*
X12067801Y-12957222D02*
X12058277Y-12938174D01*
X12058277Y-12938174D02*
X12039230Y-12928650D01*
X12039230Y-12928650D02*
X12010658Y-12928650D01*
X12010658Y-12928650D02*
X11991610Y-12938174D01*
X11991610Y-12938174D02*
X11982087Y-12947698D01*
X12191610Y-13061984D02*
X12172563Y-13052460D01*
X12172563Y-13052460D02*
X12163039Y-13042936D01*
X12163039Y-13042936D02*
X12153515Y-13023888D01*
X12153515Y-13023888D02*
X12153515Y-12966746D01*
X12153515Y-12966746D02*
X12163039Y-12947698D01*
X12163039Y-12947698D02*
X12172563Y-12938174D01*
X12172563Y-12938174D02*
X12191610Y-12928650D01*
X12191610Y-12928650D02*
X12220182Y-12928650D01*
X12220182Y-12928650D02*
X12239230Y-12938174D01*
X12239230Y-12938174D02*
X12248753Y-12947698D01*
X12248753Y-12947698D02*
X12258277Y-12966746D01*
X12258277Y-12966746D02*
X12258277Y-13023888D01*
X12258277Y-13023888D02*
X12248753Y-13042936D01*
X12248753Y-13042936D02*
X12239230Y-13052460D01*
X12239230Y-13052460D02*
X12220182Y-13061984D01*
X12220182Y-13061984D02*
X12191610Y-13061984D01*
X12372563Y-13061984D02*
X12353515Y-13052460D01*
X12353515Y-13052460D02*
X12343991Y-13033412D01*
X12343991Y-13033412D02*
X12343991Y-12861984D01*
X12524944Y-13052460D02*
X12505896Y-13061984D01*
X12505896Y-13061984D02*
X12467801Y-13061984D01*
X12467801Y-13061984D02*
X12448753Y-13052460D01*
X12448753Y-13052460D02*
X12439230Y-13033412D01*
X12439230Y-13033412D02*
X12439230Y-12957222D01*
X12439230Y-12957222D02*
X12448753Y-12938174D01*
X12448753Y-12938174D02*
X12467801Y-12928650D01*
X12467801Y-12928650D02*
X12505896Y-12928650D01*
X12505896Y-12928650D02*
X12524944Y-12938174D01*
X12524944Y-12938174D02*
X12534468Y-12957222D01*
X12534468Y-12957222D02*
X12534468Y-12976269D01*
X12534468Y-12976269D02*
X12439230Y-12995317D01*
X12610658Y-13052460D02*
X12629706Y-13061984D01*
X12629706Y-13061984D02*
X12667801Y-13061984D01*
X12667801Y-13061984D02*
X12686849Y-13052460D01*
X12686849Y-13052460D02*
X12696372Y-13033412D01*
X12696372Y-13033412D02*
X12696372Y-13023888D01*
X12696372Y-13023888D02*
X12686849Y-13004841D01*
X12686849Y-13004841D02*
X12667801Y-12995317D01*
X12667801Y-12995317D02*
X12639230Y-12995317D01*
X12639230Y-12995317D02*
X12620182Y-12985793D01*
X12620182Y-12985793D02*
X12610658Y-12966746D01*
X12610658Y-12966746D02*
X12610658Y-12957222D01*
X12610658Y-12957222D02*
X12620182Y-12938174D01*
X12620182Y-12938174D02*
X12639230Y-12928650D01*
X12639230Y-12928650D02*
X12667801Y-12928650D01*
X12667801Y-12928650D02*
X12686849Y-12938174D01*
X12763039Y-13138174D02*
X12772563Y-13128650D01*
X12772563Y-13128650D02*
X12791611Y-13100079D01*
X12791611Y-13100079D02*
X12801134Y-13081031D01*
X12801134Y-13081031D02*
X12810658Y-13052460D01*
X12810658Y-13052460D02*
X12820182Y-13004841D01*
X12820182Y-13004841D02*
X12820182Y-12966746D01*
X12820182Y-12966746D02*
X12810658Y-12919127D01*
X12810658Y-12919127D02*
X12801134Y-12890555D01*
X12801134Y-12890555D02*
X12791611Y-12871508D01*
X12791611Y-12871508D02*
X12772563Y-12842936D01*
X12772563Y-12842936D02*
X12763039Y-12833412D01*
M02*
