M48
; DRILL file {KiCad 8.0.5} date 2025-03-20T11:39:31-0600
; FORMAT={-:-/ absolute / inch / decimal}
; #@! TF.CreationDate,2025-03-20T11:39:31-06:00
; #@! TF.GenerationSoftware,Kicad,Pcbnew,8.0.5
; #@! TF.FileFunction,Plated,1,2,PTH
FMAT,2
INCH
; #@! TA.AperFunction,Plated,PTH,ComponentDrill
T1C0.0315
; #@! TA.AperFunction,Plated,PTH,ComponentDrill
T2C0.0394
; #@! TA.AperFunction,Plated,PTH,ComponentDrill
T3C0.0433
%
G90
G05
T1
X4.1142Y-4.0429
X4.1142Y-4.3429
X4.2407Y-3.9045
X4.4685Y-2.7799
X4.4685Y-3.3799
X4.5407Y-3.9045
X4.5685Y-2.7799
X4.5685Y-3.3799
X4.6685Y-2.7799
X4.6685Y-3.3799
X4.7685Y-2.7799
X4.7685Y-3.3799
X4.8685Y-2.7799
X4.8685Y-3.3799
X4.9685Y-2.7799
X4.9685Y-3.3799
X5.0685Y-2.7799
X5.0685Y-3.3799
X5.1685Y-2.7799
X5.1685Y-3.3799
X5.2677Y-2.5719
X5.2677Y-2.6703
X5.2685Y-2.7799
X5.2685Y-3.3799
X5.3685Y-2.7799
X5.3685Y-3.3799
X5.4685Y-2.7799
X5.4685Y-3.3799
X5.4705Y-3.4882
X5.4705Y-3.5866
X5.4961Y-3.9685
X5.4961Y-4.0669
X5.5685Y-2.7799
X5.5685Y-3.3799
X5.6685Y-2.7799
X5.6685Y-3.3799
X5.7685Y-2.7799
X5.7685Y-3.3799
X5.8685Y-2.7799
X5.8685Y-3.3799
X5.9055Y-3.6122
X5.9055Y-3.7106
X5.9685Y-2.7799
X5.9685Y-3.3799
X6.0685Y-2.7799
X6.0685Y-3.3799
X6.1685Y-2.7799
X6.1685Y-3.3799
X6.2685Y-2.7799
X6.2685Y-3.3799
X6.3685Y-2.7799
X6.3685Y-3.3799
X6.3701Y-2.5846
X6.3701Y-2.6831
T2
X4.3705Y-2.2136
X4.4705Y-2.2136
X4.5238Y-4.5443
X4.5705Y-2.2136
X4.6238Y-4.5443
X4.6705Y-2.2136
X4.7238Y-4.5443
X4.7705Y-2.2136
X4.8238Y-4.5443
X4.8705Y-2.2136
X4.9238Y-4.5443
X4.9705Y-2.2136
X5.0238Y-4.5443
X5.0705Y-2.2136
X5.1238Y-4.5443
X5.1705Y-2.2136
X5.2238Y-4.5443
X5.2705Y-2.2136
X5.3238Y-4.5443
X5.3705Y-2.2136
X5.4238Y-4.5443
X5.4705Y-2.2136
X5.5238Y-4.5443
X5.5705Y-2.2136
X5.6238Y-4.5443
X5.6705Y-2.2136
X5.7238Y-4.5443
X5.7705Y-2.2136
X5.8238Y-4.5443
X5.8705Y-2.2136
X5.9238Y-4.5443
X5.9705Y-2.2136
X6.0238Y-4.5443
X6.0705Y-2.2136
X6.1238Y-4.5443
X6.1705Y-2.2136
X6.2238Y-4.5443
X6.2705Y-2.2136
X6.3238Y-4.5443
X6.3705Y-2.2136
X6.7323Y-2.8465
X6.7323Y-2.9465
X6.7323Y-3.0465
X6.7323Y-3.1465
X6.7323Y-3.2465
X6.7323Y-3.3465
T3
X3.3091Y-2.8028
X3.3091Y-3.1028
X3.9567Y-3.5128
X3.9567Y-3.6128
X3.9567Y-3.7128
X4.2398Y-3.6811
X4.5398Y-3.6811
T2
G00X3.438Y-2.3996
M15
G01X3.438Y-2.4862
M16
G05
G00X3.6152Y-2.6319
M15
G01X3.5285Y-2.6319
M16
G05
G00X3.686Y-2.3917
M15
G01X3.686Y-2.4941
M16
G05
M30
