%TF.GenerationSoftware,KiCad,Pcbnew,8.0.5*%
%TF.CreationDate,2025-03-20T14:14:57-06:00*%
%TF.ProjectId,dspic30_simple,64737069-6333-4305-9f73-696d706c652e,rev?*%
%TF.SameCoordinates,Original*%
%TF.FileFunction,Drillmap*%
%TF.FilePolarity,Positive*%
%FSLAX45Y45*%
G04 Gerber Fmt 4.5, Leading zero omitted, Abs format (unit mm)*
G04 Created by KiCad (PCBNEW 8.0.5) date 2025-03-20 14:14:57*
%MOMM*%
%LPD*%
G01*
G04 APERTURE LIST*
%ADD10C,0.050000*%
%ADD11C,0.200000*%
%ADD12C,0.350000*%
G04 APERTURE END LIST*
D10*
X17300000Y-5300000D02*
X17300000Y-11800000D01*
X17300000Y-11800000D02*
X7800000Y-11800000D01*
X7800000Y-5300000D02*
X17300000Y-5300000D01*
X7800000Y-11800000D02*
X7800000Y-5300000D01*
D11*
D12*
X8209000Y-9001500D02*
X8559000Y-9351500D01*
X8559000Y-9001500D02*
X8209000Y-9351500D01*
D11*
X8058277Y-12113984D02*
X8058277Y-11913984D01*
X8058277Y-11913984D02*
X8105896Y-11913984D01*
X8105896Y-11913984D02*
X8134467Y-11923508D01*
X8134467Y-11923508D02*
X8153515Y-11942555D01*
X8153515Y-11942555D02*
X8163039Y-11961603D01*
X8163039Y-11961603D02*
X8172562Y-11999698D01*
X8172562Y-11999698D02*
X8172562Y-12028269D01*
X8172562Y-12028269D02*
X8163039Y-12066365D01*
X8163039Y-12066365D02*
X8153515Y-12085412D01*
X8153515Y-12085412D02*
X8134467Y-12104460D01*
X8134467Y-12104460D02*
X8105896Y-12113984D01*
X8105896Y-12113984D02*
X8058277Y-12113984D01*
X8258277Y-12113984D02*
X8258277Y-11980650D01*
X8258277Y-12018746D02*
X8267801Y-11999698D01*
X8267801Y-11999698D02*
X8277324Y-11990174D01*
X8277324Y-11990174D02*
X8296372Y-11980650D01*
X8296372Y-11980650D02*
X8315420Y-11980650D01*
X8382086Y-12113984D02*
X8382086Y-11980650D01*
X8382086Y-11913984D02*
X8372562Y-11923508D01*
X8372562Y-11923508D02*
X8382086Y-11933031D01*
X8382086Y-11933031D02*
X8391610Y-11923508D01*
X8391610Y-11923508D02*
X8382086Y-11913984D01*
X8382086Y-11913984D02*
X8382086Y-11933031D01*
X8505896Y-12113984D02*
X8486848Y-12104460D01*
X8486848Y-12104460D02*
X8477324Y-12085412D01*
X8477324Y-12085412D02*
X8477324Y-11913984D01*
X8610658Y-12113984D02*
X8591610Y-12104460D01*
X8591610Y-12104460D02*
X8582086Y-12085412D01*
X8582086Y-12085412D02*
X8582086Y-11913984D01*
X8839229Y-12113984D02*
X8839229Y-11913984D01*
X8839229Y-11913984D02*
X8905896Y-12056841D01*
X8905896Y-12056841D02*
X8972563Y-11913984D01*
X8972563Y-11913984D02*
X8972563Y-12113984D01*
X9153515Y-12113984D02*
X9153515Y-12009222D01*
X9153515Y-12009222D02*
X9143991Y-11990174D01*
X9143991Y-11990174D02*
X9124944Y-11980650D01*
X9124944Y-11980650D02*
X9086848Y-11980650D01*
X9086848Y-11980650D02*
X9067801Y-11990174D01*
X9153515Y-12104460D02*
X9134467Y-12113984D01*
X9134467Y-12113984D02*
X9086848Y-12113984D01*
X9086848Y-12113984D02*
X9067801Y-12104460D01*
X9067801Y-12104460D02*
X9058277Y-12085412D01*
X9058277Y-12085412D02*
X9058277Y-12066365D01*
X9058277Y-12066365D02*
X9067801Y-12047317D01*
X9067801Y-12047317D02*
X9086848Y-12037793D01*
X9086848Y-12037793D02*
X9134467Y-12037793D01*
X9134467Y-12037793D02*
X9153515Y-12028269D01*
X9248753Y-11980650D02*
X9248753Y-12180650D01*
X9248753Y-11990174D02*
X9267801Y-11980650D01*
X9267801Y-11980650D02*
X9305896Y-11980650D01*
X9305896Y-11980650D02*
X9324944Y-11990174D01*
X9324944Y-11990174D02*
X9334467Y-11999698D01*
X9334467Y-11999698D02*
X9343991Y-12018746D01*
X9343991Y-12018746D02*
X9343991Y-12075888D01*
X9343991Y-12075888D02*
X9334467Y-12094936D01*
X9334467Y-12094936D02*
X9324944Y-12104460D01*
X9324944Y-12104460D02*
X9305896Y-12113984D01*
X9305896Y-12113984D02*
X9267801Y-12113984D01*
X9267801Y-12113984D02*
X9248753Y-12104460D01*
X9429705Y-12094936D02*
X9439229Y-12104460D01*
X9439229Y-12104460D02*
X9429705Y-12113984D01*
X9429705Y-12113984D02*
X9420182Y-12104460D01*
X9420182Y-12104460D02*
X9429705Y-12094936D01*
X9429705Y-12094936D02*
X9429705Y-12113984D01*
X9429705Y-11990174D02*
X9439229Y-11999698D01*
X9439229Y-11999698D02*
X9429705Y-12009222D01*
X9429705Y-12009222D02*
X9420182Y-11999698D01*
X9420182Y-11999698D02*
X9429705Y-11990174D01*
X9429705Y-11990174D02*
X9429705Y-12009222D01*
X7597500Y-12342500D02*
X7797500Y-12542500D01*
X7797500Y-12342500D02*
X7597500Y-12542500D01*
X8039229Y-12333984D02*
X8163039Y-12333984D01*
X8163039Y-12333984D02*
X8096372Y-12410174D01*
X8096372Y-12410174D02*
X8124943Y-12410174D01*
X8124943Y-12410174D02*
X8143991Y-12419698D01*
X8143991Y-12419698D02*
X8153515Y-12429222D01*
X8153515Y-12429222D02*
X8163039Y-12448269D01*
X8163039Y-12448269D02*
X8163039Y-12495888D01*
X8163039Y-12495888D02*
X8153515Y-12514936D01*
X8153515Y-12514936D02*
X8143991Y-12524460D01*
X8143991Y-12524460D02*
X8124943Y-12533984D01*
X8124943Y-12533984D02*
X8067801Y-12533984D01*
X8067801Y-12533984D02*
X8048753Y-12524460D01*
X8048753Y-12524460D02*
X8039229Y-12514936D01*
X8248753Y-12514936D02*
X8258277Y-12524460D01*
X8258277Y-12524460D02*
X8248753Y-12533984D01*
X8248753Y-12533984D02*
X8239229Y-12524460D01*
X8239229Y-12524460D02*
X8248753Y-12514936D01*
X8248753Y-12514936D02*
X8248753Y-12533984D01*
X8439229Y-12333984D02*
X8343991Y-12333984D01*
X8343991Y-12333984D02*
X8334467Y-12429222D01*
X8334467Y-12429222D02*
X8343991Y-12419698D01*
X8343991Y-12419698D02*
X8363039Y-12410174D01*
X8363039Y-12410174D02*
X8410658Y-12410174D01*
X8410658Y-12410174D02*
X8429705Y-12419698D01*
X8429705Y-12419698D02*
X8439229Y-12429222D01*
X8439229Y-12429222D02*
X8448753Y-12448269D01*
X8448753Y-12448269D02*
X8448753Y-12495888D01*
X8448753Y-12495888D02*
X8439229Y-12514936D01*
X8439229Y-12514936D02*
X8429705Y-12524460D01*
X8429705Y-12524460D02*
X8410658Y-12533984D01*
X8410658Y-12533984D02*
X8363039Y-12533984D01*
X8363039Y-12533984D02*
X8343991Y-12524460D01*
X8343991Y-12524460D02*
X8334467Y-12514936D01*
X8572563Y-12333984D02*
X8591610Y-12333984D01*
X8591610Y-12333984D02*
X8610658Y-12343508D01*
X8610658Y-12343508D02*
X8620182Y-12353031D01*
X8620182Y-12353031D02*
X8629705Y-12372079D01*
X8629705Y-12372079D02*
X8639229Y-12410174D01*
X8639229Y-12410174D02*
X8639229Y-12457793D01*
X8639229Y-12457793D02*
X8629705Y-12495888D01*
X8629705Y-12495888D02*
X8620182Y-12514936D01*
X8620182Y-12514936D02*
X8610658Y-12524460D01*
X8610658Y-12524460D02*
X8591610Y-12533984D01*
X8591610Y-12533984D02*
X8572563Y-12533984D01*
X8572563Y-12533984D02*
X8553515Y-12524460D01*
X8553515Y-12524460D02*
X8543991Y-12514936D01*
X8543991Y-12514936D02*
X8534467Y-12495888D01*
X8534467Y-12495888D02*
X8524944Y-12457793D01*
X8524944Y-12457793D02*
X8524944Y-12410174D01*
X8524944Y-12410174D02*
X8534467Y-12372079D01*
X8534467Y-12372079D02*
X8543991Y-12353031D01*
X8543991Y-12353031D02*
X8553515Y-12343508D01*
X8553515Y-12343508D02*
X8572563Y-12333984D01*
X8763039Y-12333984D02*
X8782086Y-12333984D01*
X8782086Y-12333984D02*
X8801134Y-12343508D01*
X8801134Y-12343508D02*
X8810658Y-12353031D01*
X8810658Y-12353031D02*
X8820182Y-12372079D01*
X8820182Y-12372079D02*
X8829705Y-12410174D01*
X8829705Y-12410174D02*
X8829705Y-12457793D01*
X8829705Y-12457793D02*
X8820182Y-12495888D01*
X8820182Y-12495888D02*
X8810658Y-12514936D01*
X8810658Y-12514936D02*
X8801134Y-12524460D01*
X8801134Y-12524460D02*
X8782086Y-12533984D01*
X8782086Y-12533984D02*
X8763039Y-12533984D01*
X8763039Y-12533984D02*
X8743991Y-12524460D01*
X8743991Y-12524460D02*
X8734467Y-12514936D01*
X8734467Y-12514936D02*
X8724944Y-12495888D01*
X8724944Y-12495888D02*
X8715420Y-12457793D01*
X8715420Y-12457793D02*
X8715420Y-12410174D01*
X8715420Y-12410174D02*
X8724944Y-12372079D01*
X8724944Y-12372079D02*
X8734467Y-12353031D01*
X8734467Y-12353031D02*
X8743991Y-12343508D01*
X8743991Y-12343508D02*
X8763039Y-12333984D01*
X8915420Y-12533984D02*
X8915420Y-12400650D01*
X8915420Y-12419698D02*
X8924944Y-12410174D01*
X8924944Y-12410174D02*
X8943991Y-12400650D01*
X8943991Y-12400650D02*
X8972563Y-12400650D01*
X8972563Y-12400650D02*
X8991610Y-12410174D01*
X8991610Y-12410174D02*
X9001134Y-12429222D01*
X9001134Y-12429222D02*
X9001134Y-12533984D01*
X9001134Y-12429222D02*
X9010658Y-12410174D01*
X9010658Y-12410174D02*
X9029705Y-12400650D01*
X9029705Y-12400650D02*
X9058277Y-12400650D01*
X9058277Y-12400650D02*
X9077325Y-12410174D01*
X9077325Y-12410174D02*
X9086848Y-12429222D01*
X9086848Y-12429222D02*
X9086848Y-12533984D01*
X9182086Y-12533984D02*
X9182086Y-12400650D01*
X9182086Y-12419698D02*
X9191610Y-12410174D01*
X9191610Y-12410174D02*
X9210658Y-12400650D01*
X9210658Y-12400650D02*
X9239229Y-12400650D01*
X9239229Y-12400650D02*
X9258277Y-12410174D01*
X9258277Y-12410174D02*
X9267801Y-12429222D01*
X9267801Y-12429222D02*
X9267801Y-12533984D01*
X9267801Y-12429222D02*
X9277325Y-12410174D01*
X9277325Y-12410174D02*
X9296372Y-12400650D01*
X9296372Y-12400650D02*
X9324944Y-12400650D01*
X9324944Y-12400650D02*
X9343991Y-12410174D01*
X9343991Y-12410174D02*
X9353515Y-12429222D01*
X9353515Y-12429222D02*
X9353515Y-12533984D01*
X9743991Y-12324460D02*
X9572563Y-12581603D01*
X10001134Y-12333984D02*
X10020182Y-12333984D01*
X10020182Y-12333984D02*
X10039229Y-12343508D01*
X10039229Y-12343508D02*
X10048753Y-12353031D01*
X10048753Y-12353031D02*
X10058277Y-12372079D01*
X10058277Y-12372079D02*
X10067801Y-12410174D01*
X10067801Y-12410174D02*
X10067801Y-12457793D01*
X10067801Y-12457793D02*
X10058277Y-12495888D01*
X10058277Y-12495888D02*
X10048753Y-12514936D01*
X10048753Y-12514936D02*
X10039229Y-12524460D01*
X10039229Y-12524460D02*
X10020182Y-12533984D01*
X10020182Y-12533984D02*
X10001134Y-12533984D01*
X10001134Y-12533984D02*
X9982087Y-12524460D01*
X9982087Y-12524460D02*
X9972563Y-12514936D01*
X9972563Y-12514936D02*
X9963039Y-12495888D01*
X9963039Y-12495888D02*
X9953515Y-12457793D01*
X9953515Y-12457793D02*
X9953515Y-12410174D01*
X9953515Y-12410174D02*
X9963039Y-12372079D01*
X9963039Y-12372079D02*
X9972563Y-12353031D01*
X9972563Y-12353031D02*
X9982087Y-12343508D01*
X9982087Y-12343508D02*
X10001134Y-12333984D01*
X10153515Y-12514936D02*
X10163039Y-12524460D01*
X10163039Y-12524460D02*
X10153515Y-12533984D01*
X10153515Y-12533984D02*
X10143991Y-12524460D01*
X10143991Y-12524460D02*
X10153515Y-12514936D01*
X10153515Y-12514936D02*
X10153515Y-12533984D01*
X10353515Y-12533984D02*
X10239229Y-12533984D01*
X10296372Y-12533984D02*
X10296372Y-12333984D01*
X10296372Y-12333984D02*
X10277325Y-12362555D01*
X10277325Y-12362555D02*
X10258277Y-12381603D01*
X10258277Y-12381603D02*
X10239229Y-12391127D01*
X10420182Y-12333984D02*
X10543991Y-12333984D01*
X10543991Y-12333984D02*
X10477325Y-12410174D01*
X10477325Y-12410174D02*
X10505896Y-12410174D01*
X10505896Y-12410174D02*
X10524944Y-12419698D01*
X10524944Y-12419698D02*
X10534468Y-12429222D01*
X10534468Y-12429222D02*
X10543991Y-12448269D01*
X10543991Y-12448269D02*
X10543991Y-12495888D01*
X10543991Y-12495888D02*
X10534468Y-12514936D01*
X10534468Y-12514936D02*
X10524944Y-12524460D01*
X10524944Y-12524460D02*
X10505896Y-12533984D01*
X10505896Y-12533984D02*
X10448753Y-12533984D01*
X10448753Y-12533984D02*
X10429706Y-12524460D01*
X10429706Y-12524460D02*
X10420182Y-12514936D01*
X10610658Y-12333984D02*
X10743991Y-12333984D01*
X10743991Y-12333984D02*
X10658277Y-12533984D01*
X10848753Y-12419698D02*
X10829706Y-12410174D01*
X10829706Y-12410174D02*
X10820182Y-12400650D01*
X10820182Y-12400650D02*
X10810658Y-12381603D01*
X10810658Y-12381603D02*
X10810658Y-12372079D01*
X10810658Y-12372079D02*
X10820182Y-12353031D01*
X10820182Y-12353031D02*
X10829706Y-12343508D01*
X10829706Y-12343508D02*
X10848753Y-12333984D01*
X10848753Y-12333984D02*
X10886849Y-12333984D01*
X10886849Y-12333984D02*
X10905896Y-12343508D01*
X10905896Y-12343508D02*
X10915420Y-12353031D01*
X10915420Y-12353031D02*
X10924944Y-12372079D01*
X10924944Y-12372079D02*
X10924944Y-12381603D01*
X10924944Y-12381603D02*
X10915420Y-12400650D01*
X10915420Y-12400650D02*
X10905896Y-12410174D01*
X10905896Y-12410174D02*
X10886849Y-12419698D01*
X10886849Y-12419698D02*
X10848753Y-12419698D01*
X10848753Y-12419698D02*
X10829706Y-12429222D01*
X10829706Y-12429222D02*
X10820182Y-12438746D01*
X10820182Y-12438746D02*
X10810658Y-12457793D01*
X10810658Y-12457793D02*
X10810658Y-12495888D01*
X10810658Y-12495888D02*
X10820182Y-12514936D01*
X10820182Y-12514936D02*
X10829706Y-12524460D01*
X10829706Y-12524460D02*
X10848753Y-12533984D01*
X10848753Y-12533984D02*
X10886849Y-12533984D01*
X10886849Y-12533984D02*
X10905896Y-12524460D01*
X10905896Y-12524460D02*
X10915420Y-12514936D01*
X10915420Y-12514936D02*
X10924944Y-12495888D01*
X10924944Y-12495888D02*
X10924944Y-12457793D01*
X10924944Y-12457793D02*
X10915420Y-12438746D01*
X10915420Y-12438746D02*
X10905896Y-12429222D01*
X10905896Y-12429222D02*
X10886849Y-12419698D01*
X11001134Y-12333984D02*
X11001134Y-12372079D01*
X11077325Y-12333984D02*
X11077325Y-12372079D01*
X11372563Y-12610174D02*
X11363039Y-12600650D01*
X11363039Y-12600650D02*
X11343991Y-12572079D01*
X11343991Y-12572079D02*
X11334468Y-12553031D01*
X11334468Y-12553031D02*
X11324944Y-12524460D01*
X11324944Y-12524460D02*
X11315420Y-12476841D01*
X11315420Y-12476841D02*
X11315420Y-12438746D01*
X11315420Y-12438746D02*
X11324944Y-12391127D01*
X11324944Y-12391127D02*
X11334468Y-12362555D01*
X11334468Y-12362555D02*
X11343991Y-12343508D01*
X11343991Y-12343508D02*
X11363039Y-12314936D01*
X11363039Y-12314936D02*
X11372563Y-12305412D01*
X11553515Y-12533984D02*
X11439229Y-12533984D01*
X11496372Y-12533984D02*
X11496372Y-12333984D01*
X11496372Y-12333984D02*
X11477325Y-12362555D01*
X11477325Y-12362555D02*
X11458277Y-12381603D01*
X11458277Y-12381603D02*
X11439229Y-12391127D01*
X11791610Y-12533984D02*
X11791610Y-12333984D01*
X11877325Y-12533984D02*
X11877325Y-12429222D01*
X11877325Y-12429222D02*
X11867801Y-12410174D01*
X11867801Y-12410174D02*
X11848753Y-12400650D01*
X11848753Y-12400650D02*
X11820182Y-12400650D01*
X11820182Y-12400650D02*
X11801134Y-12410174D01*
X11801134Y-12410174D02*
X11791610Y-12419698D01*
X12001134Y-12533984D02*
X11982087Y-12524460D01*
X11982087Y-12524460D02*
X11972563Y-12514936D01*
X11972563Y-12514936D02*
X11963039Y-12495888D01*
X11963039Y-12495888D02*
X11963039Y-12438746D01*
X11963039Y-12438746D02*
X11972563Y-12419698D01*
X11972563Y-12419698D02*
X11982087Y-12410174D01*
X11982087Y-12410174D02*
X12001134Y-12400650D01*
X12001134Y-12400650D02*
X12029706Y-12400650D01*
X12029706Y-12400650D02*
X12048753Y-12410174D01*
X12048753Y-12410174D02*
X12058277Y-12419698D01*
X12058277Y-12419698D02*
X12067801Y-12438746D01*
X12067801Y-12438746D02*
X12067801Y-12495888D01*
X12067801Y-12495888D02*
X12058277Y-12514936D01*
X12058277Y-12514936D02*
X12048753Y-12524460D01*
X12048753Y-12524460D02*
X12029706Y-12533984D01*
X12029706Y-12533984D02*
X12001134Y-12533984D01*
X12182087Y-12533984D02*
X12163039Y-12524460D01*
X12163039Y-12524460D02*
X12153515Y-12505412D01*
X12153515Y-12505412D02*
X12153515Y-12333984D01*
X12334468Y-12524460D02*
X12315420Y-12533984D01*
X12315420Y-12533984D02*
X12277325Y-12533984D01*
X12277325Y-12533984D02*
X12258277Y-12524460D01*
X12258277Y-12524460D02*
X12248753Y-12505412D01*
X12248753Y-12505412D02*
X12248753Y-12429222D01*
X12248753Y-12429222D02*
X12258277Y-12410174D01*
X12258277Y-12410174D02*
X12277325Y-12400650D01*
X12277325Y-12400650D02*
X12315420Y-12400650D01*
X12315420Y-12400650D02*
X12334468Y-12410174D01*
X12334468Y-12410174D02*
X12343991Y-12429222D01*
X12343991Y-12429222D02*
X12343991Y-12448269D01*
X12343991Y-12448269D02*
X12248753Y-12467317D01*
X12410658Y-12610174D02*
X12420182Y-12600650D01*
X12420182Y-12600650D02*
X12439230Y-12572079D01*
X12439230Y-12572079D02*
X12448753Y-12553031D01*
X12448753Y-12553031D02*
X12458277Y-12524460D01*
X12458277Y-12524460D02*
X12467801Y-12476841D01*
X12467801Y-12476841D02*
X12467801Y-12438746D01*
X12467801Y-12438746D02*
X12458277Y-12391127D01*
X12458277Y-12391127D02*
X12448753Y-12362555D01*
X12448753Y-12362555D02*
X12439230Y-12343508D01*
X12439230Y-12343508D02*
X12420182Y-12314936D01*
X12420182Y-12314936D02*
X12410658Y-12305412D01*
X12772563Y-12610174D02*
X12763039Y-12600650D01*
X12763039Y-12600650D02*
X12743991Y-12572079D01*
X12743991Y-12572079D02*
X12734468Y-12553031D01*
X12734468Y-12553031D02*
X12724944Y-12524460D01*
X12724944Y-12524460D02*
X12715420Y-12476841D01*
X12715420Y-12476841D02*
X12715420Y-12438746D01*
X12715420Y-12438746D02*
X12724944Y-12391127D01*
X12724944Y-12391127D02*
X12734468Y-12362555D01*
X12734468Y-12362555D02*
X12743991Y-12343508D01*
X12743991Y-12343508D02*
X12763039Y-12314936D01*
X12763039Y-12314936D02*
X12772563Y-12305412D01*
X12848753Y-12400650D02*
X12848753Y-12533984D01*
X12848753Y-12419698D02*
X12858277Y-12410174D01*
X12858277Y-12410174D02*
X12877325Y-12400650D01*
X12877325Y-12400650D02*
X12905896Y-12400650D01*
X12905896Y-12400650D02*
X12924944Y-12410174D01*
X12924944Y-12410174D02*
X12934468Y-12429222D01*
X12934468Y-12429222D02*
X12934468Y-12533984D01*
X13058277Y-12533984D02*
X13039230Y-12524460D01*
X13039230Y-12524460D02*
X13029706Y-12514936D01*
X13029706Y-12514936D02*
X13020182Y-12495888D01*
X13020182Y-12495888D02*
X13020182Y-12438746D01*
X13020182Y-12438746D02*
X13029706Y-12419698D01*
X13029706Y-12419698D02*
X13039230Y-12410174D01*
X13039230Y-12410174D02*
X13058277Y-12400650D01*
X13058277Y-12400650D02*
X13086849Y-12400650D01*
X13086849Y-12400650D02*
X13105896Y-12410174D01*
X13105896Y-12410174D02*
X13115420Y-12419698D01*
X13115420Y-12419698D02*
X13124944Y-12438746D01*
X13124944Y-12438746D02*
X13124944Y-12495888D01*
X13124944Y-12495888D02*
X13115420Y-12514936D01*
X13115420Y-12514936D02*
X13105896Y-12524460D01*
X13105896Y-12524460D02*
X13086849Y-12533984D01*
X13086849Y-12533984D02*
X13058277Y-12533984D01*
X13182087Y-12400650D02*
X13258277Y-12400650D01*
X13210658Y-12333984D02*
X13210658Y-12505412D01*
X13210658Y-12505412D02*
X13220182Y-12524460D01*
X13220182Y-12524460D02*
X13239230Y-12533984D01*
X13239230Y-12533984D02*
X13258277Y-12533984D01*
X13477325Y-12400650D02*
X13477325Y-12600650D01*
X13477325Y-12410174D02*
X13496372Y-12400650D01*
X13496372Y-12400650D02*
X13534468Y-12400650D01*
X13534468Y-12400650D02*
X13553515Y-12410174D01*
X13553515Y-12410174D02*
X13563039Y-12419698D01*
X13563039Y-12419698D02*
X13572563Y-12438746D01*
X13572563Y-12438746D02*
X13572563Y-12495888D01*
X13572563Y-12495888D02*
X13563039Y-12514936D01*
X13563039Y-12514936D02*
X13553515Y-12524460D01*
X13553515Y-12524460D02*
X13534468Y-12533984D01*
X13534468Y-12533984D02*
X13496372Y-12533984D01*
X13496372Y-12533984D02*
X13477325Y-12524460D01*
X13686849Y-12533984D02*
X13667801Y-12524460D01*
X13667801Y-12524460D02*
X13658277Y-12505412D01*
X13658277Y-12505412D02*
X13658277Y-12333984D01*
X13848753Y-12533984D02*
X13848753Y-12429222D01*
X13848753Y-12429222D02*
X13839230Y-12410174D01*
X13839230Y-12410174D02*
X13820182Y-12400650D01*
X13820182Y-12400650D02*
X13782087Y-12400650D01*
X13782087Y-12400650D02*
X13763039Y-12410174D01*
X13848753Y-12524460D02*
X13829706Y-12533984D01*
X13829706Y-12533984D02*
X13782087Y-12533984D01*
X13782087Y-12533984D02*
X13763039Y-12524460D01*
X13763039Y-12524460D02*
X13753515Y-12505412D01*
X13753515Y-12505412D02*
X13753515Y-12486365D01*
X13753515Y-12486365D02*
X13763039Y-12467317D01*
X13763039Y-12467317D02*
X13782087Y-12457793D01*
X13782087Y-12457793D02*
X13829706Y-12457793D01*
X13829706Y-12457793D02*
X13848753Y-12448269D01*
X13915420Y-12400650D02*
X13991611Y-12400650D01*
X13943992Y-12333984D02*
X13943992Y-12505412D01*
X13943992Y-12505412D02*
X13953515Y-12524460D01*
X13953515Y-12524460D02*
X13972563Y-12533984D01*
X13972563Y-12533984D02*
X13991611Y-12533984D01*
X14134468Y-12524460D02*
X14115420Y-12533984D01*
X14115420Y-12533984D02*
X14077325Y-12533984D01*
X14077325Y-12533984D02*
X14058277Y-12524460D01*
X14058277Y-12524460D02*
X14048753Y-12505412D01*
X14048753Y-12505412D02*
X14048753Y-12429222D01*
X14048753Y-12429222D02*
X14058277Y-12410174D01*
X14058277Y-12410174D02*
X14077325Y-12400650D01*
X14077325Y-12400650D02*
X14115420Y-12400650D01*
X14115420Y-12400650D02*
X14134468Y-12410174D01*
X14134468Y-12410174D02*
X14143992Y-12429222D01*
X14143992Y-12429222D02*
X14143992Y-12448269D01*
X14143992Y-12448269D02*
X14048753Y-12467317D01*
X14315420Y-12533984D02*
X14315420Y-12333984D01*
X14315420Y-12524460D02*
X14296373Y-12533984D01*
X14296373Y-12533984D02*
X14258277Y-12533984D01*
X14258277Y-12533984D02*
X14239230Y-12524460D01*
X14239230Y-12524460D02*
X14229706Y-12514936D01*
X14229706Y-12514936D02*
X14220182Y-12495888D01*
X14220182Y-12495888D02*
X14220182Y-12438746D01*
X14220182Y-12438746D02*
X14229706Y-12419698D01*
X14229706Y-12419698D02*
X14239230Y-12410174D01*
X14239230Y-12410174D02*
X14258277Y-12400650D01*
X14258277Y-12400650D02*
X14296373Y-12400650D01*
X14296373Y-12400650D02*
X14315420Y-12410174D01*
X14391611Y-12610174D02*
X14401134Y-12600650D01*
X14401134Y-12600650D02*
X14420182Y-12572079D01*
X14420182Y-12572079D02*
X14429706Y-12553031D01*
X14429706Y-12553031D02*
X14439230Y-12524460D01*
X14439230Y-12524460D02*
X14448753Y-12476841D01*
X14448753Y-12476841D02*
X14448753Y-12438746D01*
X14448753Y-12438746D02*
X14439230Y-12391127D01*
X14439230Y-12391127D02*
X14429706Y-12362555D01*
X14429706Y-12362555D02*
X14420182Y-12343508D01*
X14420182Y-12343508D02*
X14401134Y-12314936D01*
X14401134Y-12314936D02*
X14391611Y-12305412D01*
M02*
