%TF.GenerationSoftware,KiCad,Pcbnew,8.0.5*%
<<<<<<< HEAD
%TF.CreationDate,2025-03-20T14:14:49-06:00*%
=======
%TF.CreationDate,2025-03-20T11:39:28-06:00*%
>>>>>>> master
%TF.ProjectId,dspic30_simple,64737069-6333-4305-9f73-696d706c652e,rev?*%
%TF.SameCoordinates,Original*%
%TF.FileFunction,Copper,L1,Top*%
%TF.FilePolarity,Positive*%
%FSLAX46Y46*%
G04 Gerber Fmt 4.6, Leading zero omitted, Abs format (unit mm)*
<<<<<<< HEAD
G04 Created by KiCad (PCBNEW 8.0.5) date 2025-03-20 14:14:49*
=======
G04 Created by KiCad (PCBNEW 8.0.5) date 2025-03-20 11:39:28*
>>>>>>> master
%MOMM*%
%LPD*%
G01*
G04 APERTURE LIST*
G04 Aperture macros list*
%AMRoundRect*
0 Rectangle with rounded corners*
0 $1 Rounding radius*
0 $2 $3 $4 $5 $6 $7 $8 $9 X,Y pos of 4 corners*
0 Add a 4 corners polygon primitive as box body*
4,1,4,$2,$3,$4,$5,$6,$7,$8,$9,$2,$3,0*
0 Add four circle primitives for the rounded corners*
1,1,$1+$1,$2,$3*
1,1,$1+$1,$4,$5*
1,1,$1+$1,$6,$7*
1,1,$1+$1,$8,$9*
0 Add four rect primitives between the rounded corners*
20,1,$1+$1,$2,$3,$4,$5,0*
20,1,$1+$1,$4,$5,$6,$7,0*
20,1,$1+$1,$6,$7,$8,$9,0*
20,1,$1+$1,$8,$9,$2,$3,0*%
G04 Aperture macros list end*
%TA.AperFunction,ComponentPad*%
<<<<<<< HEAD
%ADD10R,1.600000X1.600000*%
%TD*%
%TA.AperFunction,ComponentPad*%
%ADD11C,1.600000*%
%TD*%
%TA.AperFunction,ComponentPad*%
%ADD12O,1.600000X1.600000*%
%TD*%
%TA.AperFunction,ComponentPad*%
%ADD13R,2.200000X2.200000*%
%TD*%
%TA.AperFunction,ComponentPad*%
%ADD14O,2.200000X2.200000*%
%TD*%
%TA.AperFunction,SMDPad,CuDef*%
%ADD15RoundRect,0.250000X-0.375000X-0.625000X0.375000X-0.625000X0.375000X0.625000X-0.375000X0.625000X0*%
%TD*%
%TA.AperFunction,ComponentPad*%
%ADD16R,1.700000X1.700000*%
%TD*%
%TA.AperFunction,ComponentPad*%
%ADD17O,1.700000X1.700000*%
%TD*%
%TA.AperFunction,SMDPad,CuDef*%
%ADD18RoundRect,0.250000X-0.312500X-0.625000X0.312500X-0.625000X0.312500X0.625000X-0.312500X0.625000X0*%
%TD*%
%TA.AperFunction,ComponentPad*%
%ADD19C,2.000000*%
%TD*%
%TA.AperFunction,ComponentPad*%
%ADD20R,2.000000X4.600000*%
%TD*%
%TA.AperFunction,ComponentPad*%
%ADD21O,2.000000X4.200000*%
%TD*%
%TA.AperFunction,ComponentPad*%
%ADD22O,4.200000X2.000000*%
%TD*%
%TA.AperFunction,ComponentPad*%
%ADD23R,2.000000X1.905000*%
%TD*%
%TA.AperFunction,ComponentPad*%
%ADD24O,2.000000X1.905000*%
%TD*%
%TA.AperFunction,Conductor*%
%ADD25C,0.600000*%
%TD*%
%TA.AperFunction,Conductor*%
%ADD26C,0.508000*%
%TD*%
%TA.AperFunction,Conductor*%
%ADD27C,1.000000*%
%TD*%
%TA.AperFunction,Conductor*%
%ADD28C,0.254000*%
%TD*%
%TA.AperFunction,Conductor*%
%ADD29C,0.200000*%
%TD*%
%TA.AperFunction,Conductor*%
%ADD30C,0.152400*%
%TD*%
%TA.AperFunction,Conductor*%
%ADD31C,0.400000*%
%TD*%
%TA.AperFunction,Conductor*%
%ADD32C,0.762000*%
%TD*%
%TA.AperFunction,Conductor*%
%ADD33C,0.304800*%
%TD*%
G04 APERTURE END LIST*
D10*
%TO.P,C1,1*%
%TO.N,Net-(Dee1-K)*%
X93500000Y-75300000D03*
D11*
%TO.P,C1,2*%
%TO.N,GND*%
X93500000Y-71500000D03*
%TD*%
%TO.P,R1,1*%
%TO.N,/5VLDO*%
X104500000Y-110310000D03*
D12*
=======
%ADD10R,1.700000X1.700000*%
%TD*%
%TA.AperFunction,ComponentPad*%
%ADD11O,1.700000X1.700000*%
%TD*%
%TA.AperFunction,SMDPad,CuDef*%
%ADD12RoundRect,0.250000X1.000000X-1.500000X1.000000X1.500000X-1.000000X1.500000X-1.000000X-1.500000X0*%
%TD*%
%TA.AperFunction,ComponentPad*%
%ADD13C,1.600000*%
%TD*%
%TA.AperFunction,ComponentPad*%
%ADD14O,1.600000X1.600000*%
%TD*%
%TA.AperFunction,ComponentPad*%
%ADD15R,2.200000X2.200000*%
%TD*%
%TA.AperFunction,ComponentPad*%
%ADD16O,2.200000X2.200000*%
%TD*%
%TA.AperFunction,SMDPad,CuDef*%
%ADD17RoundRect,0.250000X0.525000X0.250000X-0.525000X0.250000X-0.525000X-0.250000X0.525000X-0.250000X0*%
%TD*%
%TA.AperFunction,ComponentPad*%
%ADD18R,1.600000X1.600000*%
%TD*%
%TA.AperFunction,SMDPad,CuDef*%
%ADD19RoundRect,0.250000X-0.375000X-0.625000X0.375000X-0.625000X0.375000X0.625000X-0.375000X0.625000X0*%
%TD*%
%TA.AperFunction,SMDPad,CuDef*%
%ADD20RoundRect,0.250000X-0.312500X-0.625000X0.312500X-0.625000X0.312500X0.625000X-0.312500X0.625000X0*%
%TD*%
%TA.AperFunction,SMDPad,CuDef*%
%ADD21R,2.000000X7.875000*%
%TD*%
%TA.AperFunction,ComponentPad*%
%ADD22R,2.000000X4.600000*%
%TD*%
%TA.AperFunction,ComponentPad*%
%ADD23O,2.000000X4.200000*%
%TD*%
%TA.AperFunction,ComponentPad*%
%ADD24O,4.200000X2.000000*%
%TD*%
%TA.AperFunction,ComponentPad*%
%ADD25R,2.000000X1.905000*%
%TD*%
%TA.AperFunction,ComponentPad*%
%ADD26O,2.000000X1.905000*%
%TD*%
%TA.AperFunction,Conductor*%
%ADD27C,0.200000*%
%TD*%
%TA.AperFunction,Conductor*%
%ADD28C,1.000000*%
%TD*%
%TA.AperFunction,Conductor*%
%ADD29C,0.400000*%
%TD*%
%TA.AperFunction,Conductor*%
%ADD30C,0.600000*%
%TD*%
G04 APERTURE END LIST*
D10*
%TO.P,ICSP1,1,~{MCLR}/VPP*%
%TO.N,/RESET*%
X171000000Y-72300000D03*
D11*
%TO.P,ICSP1,2,VDD*%
%TO.N,/5VLDO*%
X171000000Y-74840000D03*
%TO.P,ICSP1,3,VSS*%
%TO.N,GND*%
X171000000Y-77380000D03*
%TO.P,ICSP1,4,PGD/ICSPDAT*%
%TO.N,/PGD*%
X171000000Y-79920000D03*
%TO.P,ICSP1,5,PGC/ICSPCLK*%
%TO.N,/PGC*%
X171000000Y-82460000D03*
%TO.P,ICSP1,6,PGM/LVP*%
%TO.N,unconnected-(ICSP1-PGM{slash}LVP-Pad6)*%
X171000000Y-85000000D03*
%TD*%
D12*
%TO.P,C1,1*%
%TO.N,Net-(Dee1-K)*%
X93275000Y-78550000D03*
%TO.P,C1,2*%
%TO.N,GND*%
X93275000Y-72050000D03*
%TD*%
D13*
%TO.P,R1,1*%
%TO.N,/5VLDO*%
X104500000Y-110310000D03*
D14*
>>>>>>> master
%TO.P,R1,2*%
%TO.N,/RESET_BOTON*%
X104500000Y-102690000D03*
%TD*%
<<<<<<< HEAD
D13*
%TO.P,D2,1,K*%
%TO.N,/RESET*%
X107690000Y-93500000D03*
D14*
=======
D15*
%TO.P,D2,1,K*%
%TO.N,/RESET*%
X107690000Y-93500000D03*
D16*
>>>>>>> master
%TO.P,D2,2,A*%
%TO.N,/RESET_BOTON*%
X115310000Y-93500000D03*
%TD*%
<<<<<<< HEAD
D10*
%TO.P,U1,1,Vpp/~{MCLR}/RE3*%
%TO.N,/RESET*%
X113500000Y-85850000D03*
D12*
=======
D17*
%TO.P,SW1,1,1*%
%TO.N,GND*%
X114125000Y-108100000D03*
X108875000Y-108100000D03*
%TO.P,SW1,2,2*%
%TO.N,/RESET_BOTON*%
X114125000Y-104900000D03*
X108875000Y-104900000D03*
%TD*%
D18*
%TO.P,U1,1,Vpp/~{MCLR}/RE3*%
%TO.N,/RESET*%
X113500000Y-85850000D03*
D14*
>>>>>>> master
%TO.P,U1,2,RA0/AN0*%
%TO.N,/RBO*%
X116040000Y-85850000D03*
%TO.P,U1,3,RA1/AN1*%
%TO.N,/RB1*%
X118580000Y-85850000D03*
%TO.P,U1,4,RA2/AN2/Vref-/CVref*%
%TO.N,/RB2*%
X121120000Y-85850000D03*
%TO.P,U1,5,RA3/AN3/Vref+*%
%TO.N,/RB3*%
X123660000Y-85850000D03*
%TO.P,U1,6,RA4/T0CKI/C1OUT/RCV*%
%TO.N,/RB4*%
X126200000Y-85850000D03*
%TO.P,U1,7,RA5/AN4/~{SS}/HLVDIN/C2OUT*%
%TO.N,/RB5*%
X128740000Y-85850000D03*
%TO.P,U1,8,CK1SPP/AN5/RE0*%
%TO.N,/RB6*%
X131280000Y-85850000D03*
%TO.P,U1,9,CK2SPP/AN6/RE1*%
%TO.N,/RB7*%
X133820000Y-85850000D03*
%TO.P,U1,10,OESPP/AN7/RE2*%
%TO.N,/RB8*%
X136360000Y-85850000D03*
%TO.P,U1,11,VDD*%
%TO.N,/5VLDO*%
X138900000Y-85850000D03*
%TO.P,U1,12,VSS*%
%TO.N,GND*%
X141440000Y-85850000D03*
%TO.P,U1,13,OSC1/CLKI*%
<<<<<<< HEAD
%TO.N,/CLKI*%
X143980000Y-85850000D03*
%TO.P,U1,14,RA6/OSC2/CLKO*%
%TO.N,/RC15*%
=======
%TO.N,Net-(U1-OSC1{slash}CLKI)*%
X143980000Y-85850000D03*
%TO.P,U1,14,RA6/OSC2/CLKO*%
%TO.N,Net-(U1-RA6{slash}OSC2{slash}CLKO)*%
>>>>>>> master
X146520000Y-85850000D03*
%TO.P,U1,15,T1OSO/T13CKI/RC0*%
%TO.N,/RC13*%
X149060000Y-85850000D03*
%TO.P,U1,16,~{UOE}/CCP2/T1OSI/RC1*%
%TO.N,/RC14*%
X151600000Y-85850000D03*
%TO.P,U1,17,P1A/CCP1/RC2*%
%TO.N,/RE8*%
X154140000Y-85850000D03*
%TO.P,U1,18,VUSB*%
%TO.N,/RD1*%
X156680000Y-85850000D03*
%TO.P,U1,19,SPP0/RD0*%
%TO.N,/RD3*%
X159220000Y-85850000D03*
%TO.P,U1,20,SPP1/RD1*%
%TO.N,GND*%
X161760000Y-85850000D03*
%TO.P,U1,21,SPP2/RD2*%
%TO.N,/5VLDO*%
X161760000Y-70610000D03*
%TO.P,U1,22,SPP3/RD3*%
%TO.N,/RD2*%
X159220000Y-70610000D03*
%TO.P,U1,23,VM/D-/RC4*%
%TO.N,/RD0*%
X156680000Y-70610000D03*
%TO.P,U1,24,VP/D+/RC5*%
%TO.N,/RF6*%
X154140000Y-70610000D03*
%TO.P,U1,25,TX/CK/RC6*%
%TO.N,/PGD*%
X151600000Y-70610000D03*
%TO.P,U1,26,SDO/RX/DT/RC7*%
%TO.N,/PGC*%
X149060000Y-70610000D03*
%TO.P,U1,27,SPP4/RD4*%
%TO.N,/RF5*%
X146520000Y-70610000D03*
%TO.P,U1,28,P1B/SPP5/RD5*%
%TO.N,/RF4*%
X143980000Y-70610000D03*
%TO.P,U1,29,P1C/SPP6/RD6*%
%TO.N,/RF1*%
X141440000Y-70610000D03*
%TO.P,U1,30,P1D/SPP7/RD7*%
%TO.N,/RF0*%
X138900000Y-70610000D03*
%TO.P,U1,31,VSS*%
%TO.N,GND*%
X136360000Y-70610000D03*
%TO.P,U1,32,VDD*%
%TO.N,/5VLDO*%
X133820000Y-70610000D03*
%TO.P,U1,33,RB0/AN12/INT0/FLT0/SDI/SDA*%
%TO.N,/RE5*%
X131280000Y-70610000D03*
%TO.P,U1,34,RB1/AN10/INT1/SCK/SCL*%
%TO.N,/RE4*%
X128740000Y-70610000D03*
%TO.P,U1,35,RB2/AN8/INT2/VMO*%
%TO.N,/RE3*%
X126200000Y-70610000D03*
%TO.P,U1,36,RB3/AN9/CCP2/VPO*%
%TO.N,/RE2*%
X123660000Y-70610000D03*
%TO.P,U1,37,RB4/AN11/KBI0/CSSPP*%
%TO.N,/RE1*%
X121120000Y-70610000D03*
%TO.P,U1,38,RB5/KBI1/PGM*%
%TO.N,/RE0*%
X118580000Y-70610000D03*
%TO.P,U1,39,RB6/KBI2/PGC*%
%TO.N,/AVSS*%
X116040000Y-70610000D03*
%TO.P,U1,40,RB7/KBI3/PGD*%
%TO.N,/AVDD*%
X113500000Y-70610000D03*
%TD*%
<<<<<<< HEAD
D11*
=======
D13*
>>>>>>> master
%TO.P,C6,1*%
%TO.N,/5VLDO*%
X138950000Y-88600000D03*
%TO.P,C6,2*%
%TO.N,GND*%
X138950000Y-91100000D03*
%TD*%
<<<<<<< HEAD
D15*
=======
D19*
>>>>>>> master
%TO.P,D1,1,K*%
%TO.N,GND*%
X103530000Y-62610000D03*
%TO.P,D1,2,A*%
%TO.N,Net-(D1-A)*%
X106330000Y-62610000D03*
%TD*%
<<<<<<< HEAD
D16*
%TO.P,J2,1,Pin_1*%
%TO.N,unconnected-(J2-Pin_1-Pad1)*%
X114905000Y-115425000D03*
D17*
=======
D10*
%TO.P,J2,1,Pin_1*%
%TO.N,unconnected-(J2-Pin_1-Pad1)*%
X114905000Y-115425000D03*
D11*
>>>>>>> master
%TO.P,J2,2,Pin_2*%
%TO.N,/5VLDO*%
X117445000Y-115425000D03*
%TO.P,J2,3,Pin_3*%
%TO.N,GND*%
X119985000Y-115425000D03*
%TO.P,J2,4,Pin_4*%
%TO.N,/RBO*%
X122525000Y-115425000D03*
%TO.P,J2,5,Pin_5*%
%TO.N,/RB1*%
X125065000Y-115425000D03*
%TO.P,J2,6,Pin_6*%
%TO.N,/RB2*%
X127605000Y-115425000D03*
%TO.P,J2,7,Pin_7*%
%TO.N,/RB3*%
X130145000Y-115425000D03*
%TO.P,J2,8,Pin_8*%
%TO.N,/RB4*%
X132685000Y-115425000D03*
%TO.P,J2,9,Pin_9*%
%TO.N,/RB5*%
X135225000Y-115425000D03*
%TO.P,J2,10,Pin_10*%
%TO.N,/RB6*%
X137765000Y-115425000D03*
%TO.P,J2,11,Pin_11*%
%TO.N,/RB7*%
X140305000Y-115425000D03*
%TO.P,J2,12,Pin_12*%
%TO.N,/RB8*%
X142845000Y-115425000D03*
%TO.P,J2,13,Pin_13*%
<<<<<<< HEAD
%TO.N,/CLKI*%
X145385000Y-115425000D03*
%TO.P,J2,14,Pin_14*%
%TO.N,/RC15*%
X147925000Y-115425000D03*
%TO.P,J2,15,Pin_15*%
%TO.N,/RC13*%
=======
%TO.N,/RC13*%
X145385000Y-115425000D03*
%TO.P,J2,14,Pin_14*%
%TO.N,GND*%
X147925000Y-115425000D03*
%TO.P,J2,15,Pin_15*%
>>>>>>> master
X150465000Y-115425000D03*
%TO.P,J2,16,Pin_16*%
%TO.N,/RC14*%
X153005000Y-115425000D03*
%TO.P,J2,17,Pin_17*%
%TO.N,/RE8*%
X155545000Y-115425000D03*
%TO.P,J2,18,Pin_18*%
%TO.N,/RD1*%
X158085000Y-115425000D03*
%TO.P,J2,19,Pin_19*%
%TO.N,/RD3*%
X160625000Y-115425000D03*
%TD*%
<<<<<<< HEAD
D16*
%TO.P,J4,1,Pin_1*%
%TO.N,unconnected-(J4-Pin_1-Pad1)*%
X161810000Y-56225000D03*
D17*
=======
D10*
%TO.P,J4,1,Pin_1*%
%TO.N,unconnected-(J4-Pin_1-Pad1)*%
X161810000Y-56225000D03*
D11*
>>>>>>> master
%TO.P,J4,2,Pin_2*%
%TO.N,/RD2*%
X159270000Y-56225000D03*
%TO.P,J4,3,Pin_3*%
%TO.N,/RD0*%
X156730000Y-56225000D03*
%TO.P,J4,4,Pin_4*%
%TO.N,/RF6*%
X154190000Y-56225000D03*
%TO.P,J4,5,Pin_5*%
%TO.N,/PGD*%
X151650000Y-56225000D03*
%TO.P,J4,6,Pin_6*%
%TO.N,/PGC*%
X149110000Y-56225000D03*
%TO.P,J4,7,Pin_7*%
%TO.N,/RF5*%
X146570000Y-56225000D03*
%TO.P,J4,8,Pin_8*%
%TO.N,/RF4*%
X144030000Y-56225000D03*
%TO.P,J4,9,Pin_9*%
%TO.N,/RF1*%
X141490000Y-56225000D03*
%TO.P,J4,10,Pin_10*%
%TO.N,/RF0*%
X138950000Y-56225000D03*
%TO.P,J4,11,Pin_11*%
%TO.N,GND*%
X136410000Y-56225000D03*
%TO.P,J4,12,Pin_12*%
X133870000Y-56225000D03*
%TO.P,J4,13,Pin_13*%
X131330000Y-56225000D03*
%TO.P,J4,14,Pin_14*%
%TO.N,/RE5*%
X128790000Y-56225000D03*
%TO.P,J4,15,Pin_15*%
%TO.N,/RE4*%
X126250000Y-56225000D03*
%TO.P,J4,16,Pin_16*%
%TO.N,/RE3*%
X123710000Y-56225000D03*
%TO.P,J4,17,Pin_17*%
%TO.N,/RE2*%
X121170000Y-56225000D03*
%TO.P,J4,18,Pin_18*%
%TO.N,/RE1*%
X118630000Y-56225000D03*
%TO.P,J4,19,Pin_19*%
%TO.N,/RE0*%
X116090000Y-56225000D03*
%TO.P,J4,20,Pin_20*%
%TO.N,GND*%
X113550000Y-56225000D03*
%TO.P,J4,21,Pin_21*%
%TO.N,/5VLDO*%
X111010000Y-56225000D03*
%TD*%
<<<<<<< HEAD
D18*
=======
D20*
>>>>>>> master
%TO.P,R2,1*%
%TO.N,/5VLDO*%
X103250000Y-66300000D03*
%TO.P,R2,2*%
%TO.N,Net-(D1-A)*%
X106175000Y-66300000D03*
%TD*%
<<<<<<< HEAD
D11*
=======
D21*
%TO.P,Y1,1,1*%
%TO.N,Net-(U1-RA6{slash}OSC2{slash}CLKO)*%
X145000000Y-92062500D03*
%TO.P,Y1,2,2*%
%TO.N,Net-(U1-OSC1{slash}CLKI)*%
X145000000Y-103937500D03*
%TD*%
D13*
%TO.P,C3,1*%
%TO.N,Net-(U1-RA6{slash}OSC2{slash}CLKO)*%
X150000000Y-91750000D03*
%TO.P,C3,2*%
%TO.N,GND*%
X150000000Y-94250000D03*
%TD*%
>>>>>>> master
%TO.P,C7,1*%
%TO.N,/5VLDO*%
X161800000Y-68150000D03*
%TO.P,C7,2*%
%TO.N,GND*%
X161800000Y-65650000D03*
%TD*%
<<<<<<< HEAD
D10*
%TO.P,C2,1*%
%TO.N,/5VLDO*%
X103125000Y-75300000D03*
D11*
%TO.P,C2,2*%
%TO.N,GND*%
X103125000Y-71500000D03*
%TD*%
D19*
%TO.P,SW1,1,1*%
%TO.N,GND*%
X114500000Y-107500000D03*
X108000000Y-107500000D03*
%TO.P,SW1,2,2*%
%TO.N,/RESET_BOTON*%
X114500000Y-103000000D03*
X108000000Y-103000000D03*
%TD*%
D20*
%TO.P,J1,1*%
%TO.N,GND*%
X93625000Y-62050000D03*
D21*
%TO.P,J1,2*%
%TO.N,Net-(Dee1-A)*%
X87325000Y-62050000D03*
D22*
=======
D12*
%TO.P,C2,1*%
%TO.N,/5VLDO*%
X103125000Y-78550000D03*
%TO.P,C2,2*%
%TO.N,GND*%
X103125000Y-72050000D03*
%TD*%
D22*
%TO.P,J1,1*%
%TO.N,GND*%
X93625000Y-62050000D03*
D23*
%TO.P,J1,2*%
%TO.N,Net-(Dee1-A)*%
X87325000Y-62050000D03*
D24*
>>>>>>> master
%TO.P,J1,3*%
%TO.N,N/C*%
X90725000Y-66850000D03*
%TD*%
<<<<<<< HEAD
D23*
%TO.P,U2,1,IN*%
%TO.N,Net-(Dee1-K)*%
X100500000Y-94305000D03*
D24*
=======
D25*
%TO.P,U2,1,IN*%
%TO.N,Net-(Dee1-K)*%
X100500000Y-94305000D03*
D26*
>>>>>>> master
%TO.P,U2,2,GND*%
%TO.N,GND*%
X100500000Y-91765000D03*
%TO.P,U2,3,OUT*%
%TO.N,/5VLDO*%
X100500000Y-89225000D03*
%TD*%
<<<<<<< HEAD
D13*
%TO.P,Dee1,1,K*%
%TO.N,Net-(Dee1-K)*%
X84050000Y-78810000D03*
D14*
=======
D15*
%TO.P,Dee1,1,K*%
%TO.N,Net-(Dee1-K)*%
X84050000Y-78810000D03*
D16*
>>>>>>> master
%TO.P,Dee1,2,A*%
%TO.N,Net-(Dee1-A)*%
X84050000Y-71190000D03*
%TD*%
<<<<<<< HEAD
D16*
%TO.P,ICSP1,1,~{MCLR}/VPP*%
%TO.N,/RESET*%
X167000000Y-73000000D03*
D17*
%TO.P,ICSP1,2,VDD*%
%TO.N,/5VLDO*%
X167000000Y-75540000D03*
%TO.P,ICSP1,3,VSS*%
%TO.N,GND*%
X167000000Y-78080000D03*
%TO.P,ICSP1,4,PGD/ICSPDAT*%
%TO.N,/PGD*%
X167000000Y-80620000D03*
%TO.P,ICSP1,5,PGC/ICSPCLK*%
%TO.N,/PGC*%
X167000000Y-83160000D03*
%TO.P,ICSP1,6,PGM/LVP*%
%TO.N,unconnected-(ICSP1-PGM{slash}LVP-Pad6)*%
X167000000Y-85700000D03*
%TD*%
D11*
=======
D13*
>>>>>>> master
%TO.P,C5,1*%
%TO.N,/5VLDO*%
X133800000Y-67825000D03*
%TO.P,C5,2*%
%TO.N,GND*%
X133800000Y-65325000D03*
%TD*%
%TO.P,R3,1*%
%TO.N,/RESET*%
X107715000Y-99175000D03*
<<<<<<< HEAD
D12*
=======
D14*
>>>>>>> master
%TO.P,R3,2*%
%TO.N,/RESET_BOTON*%
X115335000Y-99175000D03*
%TD*%
<<<<<<< HEAD
D25*
%TO.N,/RC15*%
X147925000Y-93425000D02*
X147925000Y-115425000D01*
X146520000Y-92020000D02*
X147925000Y-93425000D01*
X146520000Y-85850000D02*
X146520000Y-92020000D01*
D26*
%TO.N,/CLKI*%
X144000000Y-92000000D02*
X144000000Y-91000000D01*
X145385000Y-93385000D02*
X144000000Y-92000000D01*
X144000000Y-91000000D02*
X143980000Y-90980000D01*
X143980000Y-90980000D02*
X143980000Y-85850000D01*
X145385000Y-115425000D02*
X145385000Y-93385000D01*
%TO.N,/PGD*%
X161610000Y-80620000D02*
X151600000Y-70610000D01*
X167000000Y-80620000D02*
X161610000Y-80620000D01*
D25*
%TO.N,/PGC*%
X149060000Y-70610000D02*
X161610000Y-83160000D01*
X161610000Y-83160000D02*
X167000000Y-83160000D01*
D27*
%TO.N,/5VLDO*%
X163540000Y-75540000D02*
X167000000Y-75540000D01*
X163000000Y-75500000D02*
X163500000Y-75500000D01*
X163500000Y-75500000D02*
X163540000Y-75540000D01*
X161760000Y-74260000D02*
X163000000Y-75500000D01*
X161760000Y-70610000D02*
X161760000Y-74260000D01*
%TO.N,GND*%
X103530000Y-62610000D02*
X94185000Y-62610000D01*
D28*
X114500000Y-108515000D02*
X119985000Y-114000000D01*
D29*
X120000000Y-115440000D02*
X120000000Y-115500000D01*
X119985000Y-113960000D02*
X119985000Y-114000000D01*
X119985000Y-115425000D02*
X120000000Y-115440000D01*
D27*
X94185000Y-62610000D02*
X93625000Y-62050000D01*
D28*
X114500000Y-107500000D02*
X114500000Y-108515000D01*
X108000000Y-107500000D02*
X114500000Y-107500000D01*
D29*
X119985000Y-114000000D02*
X119985000Y-115425000D01*
D27*
=======
D13*
%TO.P,C4,1*%
%TO.N,Net-(U1-OSC1{slash}CLKI)*%
X139600000Y-100800000D03*
%TO.P,C4,2*%
%TO.N,GND*%
X139600000Y-103300000D03*
%TD*%
D27*
%TO.N,/RESET_BOTON*%
X106710000Y-104900000D02*
X108875000Y-104900000D01*
X104500000Y-102690000D02*
X106710000Y-104900000D01*
%TO.N,GND*%
X108875000Y-108100000D02*
X114125000Y-108100000D01*
D28*
X103530000Y-62610000D02*
X94185000Y-62610000D01*
D27*
X120000000Y-115440000D02*
X120000000Y-115500000D01*
D28*
X93275000Y-72050000D02*
X93625000Y-71700000D01*
D27*
X119985000Y-113960000D02*
X119985000Y-115425000D01*
X119985000Y-115425000D02*
X120000000Y-115440000D01*
D28*
X94185000Y-62610000D02*
X93625000Y-62050000D01*
X93625000Y-71700000D02*
X93625000Y-62050000D01*
D27*
X114125000Y-108100000D02*
X119985000Y-113960000D01*
D28*
X103125000Y-72050000D02*
X93275000Y-72050000D01*
>>>>>>> master
%TO.N,Net-(Dee1-K)*%
X100500000Y-94305000D02*
X94805000Y-94305000D01*
X93000000Y-92500000D02*
X93000000Y-91500000D01*
X93000000Y-91500000D02*
X93275000Y-91225000D01*
<<<<<<< HEAD
X93500000Y-78325000D02*
X93500000Y-75300000D01*
X84050000Y-78810000D02*
X93015000Y-78810000D01*
X93015000Y-78810000D02*
X93500000Y-78325000D01*
D30*
X93500000Y-75300000D02*
X93500000Y-75500000D01*
D27*
X93015000Y-78810000D02*
=======
X84050000Y-78810000D02*
X93015000Y-78810000D01*
X93015000Y-78810000D02*
>>>>>>> master
X93275000Y-78550000D01*
X94805000Y-94305000D02*
X93000000Y-92500000D01*
X93275000Y-91225000D02*
X93275000Y-78550000D01*
<<<<<<< HEAD
=======
D29*
%TO.N,Net-(U1-RA6{slash}OSC2{slash}CLKO)*%
X145312500Y-91750000D02*
X145000000Y-92062500D01*
D30*
X146900000Y-86230000D02*
X146520000Y-85850000D01*
D29*
X145000000Y-92062500D02*
X145000000Y-87370000D01*
X145000000Y-87370000D02*
X146520000Y-85850000D01*
X150000000Y-91750000D02*
X145312500Y-91750000D01*
%TO.N,Net-(U1-OSC1{slash}CLKI)*%
X143180001Y-102117501D02*
X143180001Y-86649999D01*
X145000000Y-103937500D02*
X143180001Y-102117501D01*
X143180001Y-86649999D02*
X143980000Y-85850000D01*
X143180001Y-102117501D02*
X141862500Y-100800000D01*
X141862500Y-100800000D02*
X139600000Y-100800000D01*
D28*
>>>>>>> master
%TO.N,Net-(Dee1-A)*%
X84050000Y-71190000D02*
X84050000Y-65325000D01*
X84050000Y-65325000D02*
X87325000Y-62050000D01*
<<<<<<< HEAD
D25*
=======
D30*
>>>>>>> master
%TO.N,/RB2*%
X127605000Y-115425000D02*
X121120000Y-108940000D01*
X121120000Y-108940000D02*
X121120000Y-85850000D01*
<<<<<<< HEAD
D31*
=======
D29*
>>>>>>> master
%TO.N,/RD1*%
X158085000Y-87255000D02*
X156680000Y-85850000D01*
X158085000Y-115425000D02*
X158085000Y-87255000D01*
<<<<<<< HEAD
D25*
=======
D30*
>>>>>>> master
%TO.N,/RB7*%
X133820000Y-108940000D02*
X133820000Y-85850000D01*
X140305000Y-115425000D02*
X133820000Y-108940000D01*
%TO.N,/RB4*%
X132685000Y-115425000D02*
X126200000Y-108940000D01*
X126200000Y-108940000D02*
X126200000Y-85850000D01*
%TO.N,/RBO*%
X116040000Y-85850000D02*
X116910000Y-86720000D01*
X116910000Y-86720000D02*
X116910000Y-109810000D01*
X116910000Y-109810000D02*
X122525000Y-115425000D01*
%TO.N,/RB3*%
X130145000Y-115425000D02*
X123660000Y-108940000D01*
X123660000Y-108940000D02*
X123660000Y-85850000D01*
%TO.N,/RB5*%
X135225000Y-115425000D02*
X128740000Y-108940000D01*
X128740000Y-108940000D02*
X128740000Y-85850000D01*
<<<<<<< HEAD
%TO.N,/RC15*%
X146900000Y-86230000D02*
X146520000Y-85850000D01*
=======
>>>>>>> master
%TO.N,/RB6*%
X137765000Y-115425000D02*
X131280000Y-108940000D01*
X131280000Y-108940000D02*
X131280000Y-85850000D01*
%TO.N,/RB1*%
X125065000Y-115425000D02*
X118580000Y-108940000D01*
X118580000Y-108940000D02*
X118580000Y-85850000D01*
<<<<<<< HEAD
D31*
=======
D29*
>>>>>>> master
%TO.N,/RD3*%
X159220000Y-114020000D02*
X160625000Y-115425000D01*
X159220000Y-85850000D02*
X159220000Y-114020000D01*
<<<<<<< HEAD
D25*
=======
D30*
>>>>>>> master
%TO.N,/RESET*%
X107715000Y-99175000D02*
X107715000Y-93525000D01*
X107715000Y-93525000D02*
X107690000Y-93500000D01*
X107690000Y-93500000D02*
X107690000Y-91660000D01*
X107690000Y-91660000D02*
X113500000Y-85850000D01*
<<<<<<< HEAD
D27*
=======
D28*
>>>>>>> master
%TO.N,/5VLDO*%
X105075000Y-68125000D02*
X105075000Y-76600000D01*
X117445000Y-114222919D02*
X113532081Y-110310000D01*
X133820000Y-70610000D02*
X133820000Y-70820000D01*
<<<<<<< HEAD
D32*
X103775000Y-75300000D02*
X105075000Y-76600000D01*
D27*
X161475000Y-67825000D02*
X161800000Y-68150000D01*
=======
X161475000Y-67825000D02*
X161800000Y-68150000D01*
X161760000Y-74185000D02*
X162500000Y-74925000D01*
>>>>>>> master
X138950000Y-88600000D02*
X138950000Y-86218679D01*
X131600000Y-78550000D02*
X138900000Y-85850000D01*
X100500000Y-89225000D02*
X102200000Y-90925000D01*
X100500000Y-89225000D02*
X100500000Y-81175000D01*
<<<<<<< HEAD
=======
X162500000Y-74925000D02*
X170875000Y-74925000D01*
>>>>>>> master
X106637930Y-68125000D02*
X105075000Y-68125000D01*
X113532081Y-110310000D02*
X104500000Y-110310000D01*
X138950000Y-88600000D02*
X138950000Y-85900000D01*
X133800000Y-70590000D02*
X133820000Y-70610000D01*
X133800000Y-67825000D02*
X133800000Y-70590000D01*
X111010000Y-56225000D02*
X111010000Y-63752930D01*
X161760000Y-70610000D02*
X161760000Y-68190000D01*
X115082070Y-67825000D02*
X111010000Y-63752930D01*
X161760000Y-68190000D02*
X161800000Y-68150000D01*
X133800000Y-67825000D02*
X115082070Y-67825000D01*
X102200000Y-108010000D02*
X104500000Y-110310000D01*
X103125000Y-78550000D02*
X131600000Y-78550000D01*
X117445000Y-115425000D02*
X117445000Y-114222919D01*
<<<<<<< HEAD
=======
X161760000Y-70610000D02*
X161760000Y-74185000D01*
>>>>>>> master
X100500000Y-81175000D02*
X103125000Y-78550000D01*
X102200000Y-90925000D02*
X102200000Y-108010000D01*
X111010000Y-63752930D02*
X106637930Y-68125000D01*
<<<<<<< HEAD
D32*
X103125000Y-75300000D02*
X103775000Y-75300000D01*
D27*
=======
>>>>>>> master
X105075000Y-76600000D02*
X103125000Y-78550000D01*
X133800000Y-67825000D02*
X161475000Y-67825000D01*
X138900000Y-85850000D02*
X138950000Y-85900000D01*
X103250000Y-66300000D02*
X105075000Y-68125000D01*
%TO.N,Net-(D1-A)*%
X106175000Y-62765000D02*
X106330000Y-62610000D01*
X106175000Y-66300000D02*
X106175000Y-62765000D01*
<<<<<<< HEAD
D25*
%TO.N,/PGD*%
X151600000Y-70610000D02*
X152110000Y-70610000D01*
D33*
%TO.N,/RESET_BOTON*%
X107690000Y-102690000D02*
X108000000Y-103000000D01*
X114500000Y-103000000D02*
X114500000Y-100010000D01*
X114500000Y-100010000D02*
X115335000Y-99175000D01*
D25*
X115335000Y-93525000D02*
X115310000Y-93500000D01*
D33*
X108000000Y-103000000D02*
X114500000Y-103000000D01*
D25*
X115335000Y-99175000D02*
X115335000Y-93525000D01*
D33*
X104500000Y-102690000D02*
X107690000Y-102690000D01*
D31*
=======
D30*
%TO.N,/PGD*%
X151600000Y-70610000D02*
X152110000Y-70610000D01*
X161505000Y-80005000D02*
X170875000Y-80005000D01*
X152110000Y-70610000D02*
X161505000Y-80005000D01*
%TO.N,/PGC*%
X170875000Y-82545000D02*
X160995000Y-82545000D01*
X160995000Y-82545000D02*
X149060000Y-70610000D01*
%TO.N,/RESET_BOTON*%
X115335000Y-103690000D02*
X114125000Y-104900000D01*
X115335000Y-93525000D02*
X115310000Y-93500000D01*
X114125000Y-104900000D02*
X108875000Y-104900000D01*
X115335000Y-99175000D02*
X115335000Y-93525000D01*
X115335000Y-99175000D02*
X115335000Y-103690000D01*
D29*
>>>>>>> master
%TO.N,/RC14*%
X153005000Y-87255000D02*
X151600000Y-85850000D01*
X153005000Y-115425000D02*
X153005000Y-87255000D01*
%TO.N,/RE8*%
X154140000Y-85850000D02*
X154140000Y-114020000D01*
X154140000Y-114020000D02*
X155545000Y-115425000D01*
<<<<<<< HEAD
D25*
=======
D30*
>>>>>>> master
%TO.N,/RB8*%
X142845000Y-115425000D02*
X136360000Y-108940000D01*
X136360000Y-108940000D02*
X136360000Y-85850000D01*
<<<<<<< HEAD
D26*
%TO.N,/RC13*%
X149060000Y-85850000D02*
X149060000Y-92060000D01*
X150500000Y-94500000D02*
X150465000Y-94535000D01*
X149060000Y-92060000D02*
X150500000Y-93500000D01*
X150500000Y-93500000D02*
X150500000Y-94500000D01*
X150465000Y-94535000D02*
X150465000Y-115425000D01*
=======
>>>>>>> master
%TD*%
M02*
