%TF.GenerationSoftware,KiCad,Pcbnew,8.0.5*%
%TF.CreationDate,2025-03-20T11:39:28-06:00*%
%TF.ProjectId,dspic30_simple,64737069-6333-4305-9f73-696d706c652e,rev?*%
%TF.SameCoordinates,Original*%
%TF.FileFunction,Copper,L2,Bot*%
%TF.FilePolarity,Positive*%
%FSLAX46Y46*%
G04 Gerber Fmt 4.6, Leading zero omitted, Abs format (unit mm)*
G04 Created by KiCad (PCBNEW 8.0.5) date 2025-03-20 11:39:28*
%MOMM*%
%LPD*%
G01*
G04 APERTURE LIST*
%TA.AperFunction,ComponentPad*%
%ADD10R,1.700000X1.700000*%
%TD*%
%TA.AperFunction,ComponentPad*%
%ADD11O,1.700000X1.700000*%
%TD*%
%TA.AperFunction,ComponentPad*%
%ADD12C,1.600000*%
%TD*%
%TA.AperFunction,ComponentPad*%
%ADD13O,1.600000X1.600000*%
%TD*%
%TA.AperFunction,ComponentPad*%
%ADD14R,2.200000X2.200000*%
%TD*%
%TA.AperFunction,ComponentPad*%
%ADD15O,2.200000X2.200000*%
%TD*%
%TA.AperFunction,ComponentPad*%
%ADD16R,1.600000X1.600000*%
%TD*%
%TA.AperFunction,ComponentPad*%
%ADD17R,2.000000X4.600000*%
%TD*%
%TA.AperFunction,ComponentPad*%
%ADD18O,2.000000X4.200000*%
%TD*%
%TA.AperFunction,ComponentPad*%
%ADD19O,4.200000X2.000000*%
%TD*%
%TA.AperFunction,ComponentPad*%
%ADD20R,2.000000X1.905000*%
%TD*%
%TA.AperFunction,ComponentPad*%
%ADD21O,2.000000X1.905000*%
%TD*%
%TA.AperFunction,Conductor*%
%ADD22C,0.300000*%
%TD*%
%TA.AperFunction,Conductor*%
%ADD23C,0.200000*%
%TD*%
%TA.AperFunction,Conductor*%
%ADD24C,0.600000*%
%TD*%
%TA.AperFunction,Conductor*%
%ADD25C,0.400000*%
%TD*%
G04 APERTURE END LIST*
D10*
%TO.P,ICSP1,1,~{MCLR}/VPP*%
%TO.N,/RESET*%
X171000000Y-72300000D03*
D11*
%TO.P,ICSP1,2,VDD*%
%TO.N,/5VLDO*%
X171000000Y-74840000D03*
%TO.P,ICSP1,3,VSS*%
%TO.N,GND*%
X171000000Y-77380000D03*
%TO.P,ICSP1,4,PGD/ICSPDAT*%
%TO.N,/PGD*%
X171000000Y-79920000D03*
%TO.P,ICSP1,5,PGC/ICSPCLK*%
%TO.N,/PGC*%
X171000000Y-82460000D03*
%TO.P,ICSP1,6,PGM/LVP*%
%TO.N,unconnected-(ICSP1-PGM{slash}LVP-Pad6)*%
X171000000Y-85000000D03*
%TD*%
D12*
%TO.P,R1,1*%
%TO.N,/5VLDO*%
X104500000Y-110310000D03*
D13*
%TO.P,R1,2*%
%TO.N,/RESET_BOTON*%
X104500000Y-102690000D03*
%TD*%
D14*
%TO.P,D2,1,K*%
%TO.N,/RESET*%
X107690000Y-93500000D03*
D15*
%TO.P,D2,2,A*%
%TO.N,/RESET_BOTON*%
X115310000Y-93500000D03*
%TD*%
D16*
%TO.P,U1,1,Vpp/~{MCLR}/RE3*%
%TO.N,/RESET*%
X113500000Y-85850000D03*
D13*
%TO.P,U1,2,RA0/AN0*%
%TO.N,/RBO*%
X116040000Y-85850000D03*
%TO.P,U1,3,RA1/AN1*%
%TO.N,/RB1*%
X118580000Y-85850000D03*
%TO.P,U1,4,RA2/AN2/Vref-/CVref*%
%TO.N,/RB2*%
X121120000Y-85850000D03*
%TO.P,U1,5,RA3/AN3/Vref+*%
%TO.N,/RB3*%
X123660000Y-85850000D03*
%TO.P,U1,6,RA4/T0CKI/C1OUT/RCV*%
%TO.N,/RB4*%
X126200000Y-85850000D03*
%TO.P,U1,7,RA5/AN4/~{SS}/HLVDIN/C2OUT*%
%TO.N,/RB5*%
X128740000Y-85850000D03*
%TO.P,U1,8,CK1SPP/AN5/RE0*%
%TO.N,/RB6*%
X131280000Y-85850000D03*
%TO.P,U1,9,CK2SPP/AN6/RE1*%
%TO.N,/RB7*%
X133820000Y-85850000D03*
%TO.P,U1,10,OESPP/AN7/RE2*%
%TO.N,/RB8*%
X136360000Y-85850000D03*
%TO.P,U1,11,VDD*%
%TO.N,/5VLDO*%
X138900000Y-85850000D03*
%TO.P,U1,12,VSS*%
%TO.N,GND*%
X141440000Y-85850000D03*
%TO.P,U1,13,OSC1/CLKI*%
%TO.N,Net-(U1-OSC1{slash}CLKI)*%
X143980000Y-85850000D03*
%TO.P,U1,14,RA6/OSC2/CLKO*%
%TO.N,Net-(U1-RA6{slash}OSC2{slash}CLKO)*%
X146520000Y-85850000D03*
%TO.P,U1,15,T1OSO/T13CKI/RC0*%
%TO.N,/RC13*%
X149060000Y-85850000D03*
%TO.P,U1,16,~{UOE}/CCP2/T1OSI/RC1*%
%TO.N,/RC14*%
X151600000Y-85850000D03*
%TO.P,U1,17,P1A/CCP1/RC2*%
%TO.N,/RE8*%
X154140000Y-85850000D03*
%TO.P,U1,18,VUSB*%
%TO.N,/RD1*%
X156680000Y-85850000D03*
%TO.P,U1,19,SPP0/RD0*%
%TO.N,/RD3*%
X159220000Y-85850000D03*
%TO.P,U1,20,SPP1/RD1*%
%TO.N,GND*%
X161760000Y-85850000D03*
%TO.P,U1,21,SPP2/RD2*%
%TO.N,/5VLDO*%
X161760000Y-70610000D03*
%TO.P,U1,22,SPP3/RD3*%
%TO.N,/RD2*%
X159220000Y-70610000D03*
%TO.P,U1,23,VM/D-/RC4*%
%TO.N,/RD0*%
X156680000Y-70610000D03*
%TO.P,U1,24,VP/D+/RC5*%
%TO.N,/RF6*%
X154140000Y-70610000D03*
%TO.P,U1,25,TX/CK/RC6*%
%TO.N,/PGD*%
X151600000Y-70610000D03*
%TO.P,U1,26,SDO/RX/DT/RC7*%
%TO.N,/PGC*%
X149060000Y-70610000D03*
%TO.P,U1,27,SPP4/RD4*%
%TO.N,/RF5*%
X146520000Y-70610000D03*
%TO.P,U1,28,P1B/SPP5/RD5*%
%TO.N,/RF4*%
X143980000Y-70610000D03*
%TO.P,U1,29,P1C/SPP6/RD6*%
%TO.N,/RF1*%
X141440000Y-70610000D03*
%TO.P,U1,30,P1D/SPP7/RD7*%
%TO.N,/RF0*%
X138900000Y-70610000D03*
%TO.P,U1,31,VSS*%
%TO.N,GND*%
X136360000Y-70610000D03*
%TO.P,U1,32,VDD*%
%TO.N,/5VLDO*%
X133820000Y-70610000D03*
%TO.P,U1,33,RB0/AN12/INT0/FLT0/SDI/SDA*%
%TO.N,/RE5*%
X131280000Y-70610000D03*
%TO.P,U1,34,RB1/AN10/INT1/SCK/SCL*%
%TO.N,/RE4*%
X128740000Y-70610000D03*
%TO.P,U1,35,RB2/AN8/INT2/VMO*%
%TO.N,/RE3*%
X126200000Y-70610000D03*
%TO.P,U1,36,RB3/AN9/CCP2/VPO*%
%TO.N,/RE2*%
X123660000Y-70610000D03*
%TO.P,U1,37,RB4/AN11/KBI0/CSSPP*%
%TO.N,/RE1*%
X121120000Y-70610000D03*
%TO.P,U1,38,RB5/KBI1/PGM*%
%TO.N,/RE0*%
X118580000Y-70610000D03*
%TO.P,U1,39,RB6/KBI2/PGC*%
%TO.N,/AVSS*%
X116040000Y-70610000D03*
%TO.P,U1,40,RB7/KBI3/PGD*%
%TO.N,/AVDD*%
X113500000Y-70610000D03*
%TD*%
D12*
%TO.P,C6,1*%
%TO.N,/5VLDO*%
X138950000Y-88600000D03*
%TO.P,C6,2*%
%TO.N,GND*%
X138950000Y-91100000D03*
%TD*%
D10*
%TO.P,J2,1,Pin_1*%
%TO.N,unconnected-(J2-Pin_1-Pad1)*%
X114905000Y-115425000D03*
D11*
%TO.P,J2,2,Pin_2*%
%TO.N,/5VLDO*%
X117445000Y-115425000D03*
%TO.P,J2,3,Pin_3*%
%TO.N,GND*%
X119985000Y-115425000D03*
%TO.P,J2,4,Pin_4*%
%TO.N,/RBO*%
X122525000Y-115425000D03*
%TO.P,J2,5,Pin_5*%
%TO.N,/RB1*%
X125065000Y-115425000D03*
%TO.P,J2,6,Pin_6*%
%TO.N,/RB2*%
X127605000Y-115425000D03*
%TO.P,J2,7,Pin_7*%
%TO.N,/RB3*%
X130145000Y-115425000D03*
%TO.P,J2,8,Pin_8*%
%TO.N,/RB4*%
X132685000Y-115425000D03*
%TO.P,J2,9,Pin_9*%
%TO.N,/RB5*%
X135225000Y-115425000D03*
%TO.P,J2,10,Pin_10*%
%TO.N,/RB6*%
X137765000Y-115425000D03*
%TO.P,J2,11,Pin_11*%
%TO.N,/RB7*%
X140305000Y-115425000D03*
%TO.P,J2,12,Pin_12*%
%TO.N,/RB8*%
X142845000Y-115425000D03*
%TO.P,J2,13,Pin_13*%
%TO.N,/RC13*%
X145385000Y-115425000D03*
%TO.P,J2,14,Pin_14*%
%TO.N,GND*%
X147925000Y-115425000D03*
%TO.P,J2,15,Pin_15*%
X150465000Y-115425000D03*
%TO.P,J2,16,Pin_16*%
%TO.N,/RC14*%
X153005000Y-115425000D03*
%TO.P,J2,17,Pin_17*%
%TO.N,/RE8*%
X155545000Y-115425000D03*
%TO.P,J2,18,Pin_18*%
%TO.N,/RD1*%
X158085000Y-115425000D03*
%TO.P,J2,19,Pin_19*%
%TO.N,/RD3*%
X160625000Y-115425000D03*
%TD*%
D10*
%TO.P,J4,1,Pin_1*%
%TO.N,unconnected-(J4-Pin_1-Pad1)*%
X161810000Y-56225000D03*
D11*
%TO.P,J4,2,Pin_2*%
%TO.N,/RD2*%
X159270000Y-56225000D03*
%TO.P,J4,3,Pin_3*%
%TO.N,/RD0*%
X156730000Y-56225000D03*
%TO.P,J4,4,Pin_4*%
%TO.N,/RF6*%
X154190000Y-56225000D03*
%TO.P,J4,5,Pin_5*%
%TO.N,/PGD*%
X151650000Y-56225000D03*
%TO.P,J4,6,Pin_6*%
%TO.N,/PGC*%
X149110000Y-56225000D03*
%TO.P,J4,7,Pin_7*%
%TO.N,/RF5*%
X146570000Y-56225000D03*
%TO.P,J4,8,Pin_8*%
%TO.N,/RF4*%
X144030000Y-56225000D03*
%TO.P,J4,9,Pin_9*%
%TO.N,/RF1*%
X141490000Y-56225000D03*
%TO.P,J4,10,Pin_10*%
%TO.N,/RF0*%
X138950000Y-56225000D03*
%TO.P,J4,11,Pin_11*%
%TO.N,GND*%
X136410000Y-56225000D03*
%TO.P,J4,12,Pin_12*%
X133870000Y-56225000D03*
%TO.P,J4,13,Pin_13*%
X131330000Y-56225000D03*
%TO.P,J4,14,Pin_14*%
%TO.N,/RE5*%
X128790000Y-56225000D03*
%TO.P,J4,15,Pin_15*%
%TO.N,/RE4*%
X126250000Y-56225000D03*
%TO.P,J4,16,Pin_16*%
%TO.N,/RE3*%
X123710000Y-56225000D03*
%TO.P,J4,17,Pin_17*%
%TO.N,/RE2*%
X121170000Y-56225000D03*
%TO.P,J4,18,Pin_18*%
%TO.N,/RE1*%
X118630000Y-56225000D03*
%TO.P,J4,19,Pin_19*%
%TO.N,/RE0*%
X116090000Y-56225000D03*
%TO.P,J4,20,Pin_20*%
%TO.N,GND*%
X113550000Y-56225000D03*
%TO.P,J4,21,Pin_21*%
%TO.N,/5VLDO*%
X111010000Y-56225000D03*
%TD*%
D12*
%TO.P,C3,1*%
%TO.N,Net-(U1-RA6{slash}OSC2{slash}CLKO)*%
X150000000Y-91750000D03*
%TO.P,C3,2*%
%TO.N,GND*%
X150000000Y-94250000D03*
%TD*%
%TO.P,C7,1*%
%TO.N,/5VLDO*%
X161800000Y-68150000D03*
%TO.P,C7,2*%
%TO.N,GND*%
X161800000Y-65650000D03*
%TD*%
D17*
%TO.P,J1,1*%
%TO.N,GND*%
X93625000Y-62050000D03*
D18*
%TO.P,J1,2*%
%TO.N,Net-(Dee1-A)*%
X87325000Y-62050000D03*
D19*
%TO.P,J1,3*%
%TO.N,N/C*%
X90725000Y-66850000D03*
%TD*%
D20*
%TO.P,U2,1,IN*%
%TO.N,Net-(Dee1-K)*%
X100500000Y-94305000D03*
D21*
%TO.P,U2,2,GND*%
%TO.N,GND*%
X100500000Y-91765000D03*
%TO.P,U2,3,OUT*%
%TO.N,/5VLDO*%
X100500000Y-89225000D03*
%TD*%
D14*
%TO.P,Dee1,1,K*%
%TO.N,Net-(Dee1-K)*%
X84050000Y-78810000D03*
D15*
%TO.P,Dee1,2,A*%
%TO.N,Net-(Dee1-A)*%
X84050000Y-71190000D03*
%TD*%
D12*
%TO.P,C5,1*%
%TO.N,/5VLDO*%
X133800000Y-67825000D03*
%TO.P,C5,2*%
%TO.N,GND*%
X133800000Y-65325000D03*
%TD*%
%TO.P,R3,1*%
%TO.N,/RESET*%
X107715000Y-99175000D03*
D13*
%TO.P,R3,2*%
%TO.N,/RESET_BOTON*%
X115335000Y-99175000D03*
%TD*%
D12*
%TO.P,C4,1*%
%TO.N,Net-(U1-OSC1{slash}CLKI)*%
X139600000Y-100800000D03*
%TO.P,C4,2*%
%TO.N,GND*%
X139600000Y-103300000D03*
%TD*%
D22*
%TO.N,/RE1*%
X118630000Y-56225000D02*
X118630000Y-68120000D01*
X118630000Y-68120000D02*
X121120000Y-70610000D01*
%TO.N,/RE2*%
X121170000Y-68120000D02*
X123660000Y-70610000D01*
X123500000Y-70450000D02*
X123500000Y-70000000D01*
X123660000Y-70610000D02*
X123500000Y-70450000D01*
X121170000Y-56225000D02*
X121170000Y-68120000D01*
%TO.N,/RD2*%
X159220000Y-70610000D02*
X159220000Y-56275000D01*
X159220000Y-56275000D02*
X159270000Y-56225000D01*
%TO.N,/RE3*%
X123710000Y-56225000D02*
X123710000Y-68120000D01*
X123710000Y-68120000D02*
X126200000Y-70610000D01*
%TO.N,/RESET*%
X126965000Y-72385000D02*
X113500000Y-85850000D01*
X170875000Y-72385000D02*
X126965000Y-72385000D01*
D23*
%TO.N,/PGD*%
X151650000Y-56225000D02*
X151650000Y-70560000D01*
X151650000Y-70560000D02*
X151600000Y-70610000D01*
D24*
%TO.N,/PGC*%
X149060000Y-70610000D02*
X149060000Y-56275000D01*
X149060000Y-56275000D02*
X149110000Y-56225000D01*
D23*
%TO.N,/RF6*%
X154140000Y-56275000D02*
X154190000Y-56225000D01*
X154140000Y-70610000D02*
X154140000Y-56275000D01*
%TO.N,/RF1*%
X141490000Y-70560000D02*
X141440000Y-70610000D01*
X141490000Y-56225000D02*
X141490000Y-70560000D01*
D22*
%TO.N,/RE5*%
X128790000Y-68120000D02*
X131280000Y-70610000D01*
X128790000Y-56225000D02*
X128790000Y-68120000D01*
%TO.N,/RE0*%
X116090000Y-56225000D02*
X116090000Y-68120000D01*
X116090000Y-68120000D02*
X118580000Y-70610000D01*
D23*
%TO.N,/RF5*%
X146570000Y-56225000D02*
X146570000Y-70560000D01*
X146570000Y-70560000D02*
X146520000Y-70610000D01*
%TO.N,/RD0*%
X156680000Y-56275000D02*
X156730000Y-56225000D01*
X156680000Y-70610000D02*
X156680000Y-56275000D01*
%TO.N,/RF0*%
X138900000Y-56275000D02*
X138950000Y-56225000D01*
X138900000Y-70610000D02*
X138900000Y-56275000D01*
D22*
%TO.N,/RE4*%
X126250000Y-67750000D02*
X127500000Y-69000000D01*
X127500000Y-69000000D02*
X127500000Y-69370000D01*
X126250000Y-56225000D02*
X126250000Y-67750000D01*
X127500000Y-69370000D02*
X128740000Y-70610000D01*
D25*
%TO.N,/RC13*%
X145385000Y-89525000D02*
X149060000Y-85850000D01*
X145385000Y-115425000D02*
X145385000Y-89525000D01*
D23*
%TO.N,/RF4*%
X143980000Y-70610000D02*
X143980000Y-56275000D01*
X143980000Y-56275000D02*
X144030000Y-56225000D01*
%TD*%
%TA.AperFunction,Conductor*%
%TO.N,GND*%
G36*
X149999075Y-115232007D02*
G01*
X149965000Y-115359174D01*
X149965000Y-115490826D01*
X149999075Y-115617993D01*
X150031988Y-115675000D01*
X148358012Y-115675000D01*
X148390925Y-115617993D01*
X148425000Y-115490826D01*
X148425000Y-115359174D01*
X148390925Y-115232007D01*
X148358012Y-115175000D01*
X150031988Y-115175000D01*
X149999075Y-115232007D01*
G37*
%TD.AperFunction*%
%TA.AperFunction,Conductor*%
G36*
X136660000Y-57555633D02*
G01*
X136873483Y-57498433D01*
X136873492Y-57498429D01*
X137087578Y-57398600D01*
X137281082Y-57263105D01*
X137448105Y-57096082D01*
X137578119Y-56910405D01*
X137632696Y-56866781D01*
X137702195Y-56859588D01*
X137764549Y-56891110D01*
X137781269Y-56910405D01*
X137911505Y-57096401D01*
X137911506Y-57096402D01*
X138078597Y-57263493D01*
X138078603Y-57263498D01*
X138246623Y-57381147D01*
X138290248Y-57435724D01*
X138299500Y-57482722D01*
X138299500Y-69378306D01*
X138279815Y-69445345D01*
X138246623Y-69479881D01*
X138060859Y-69609953D01*
X137899954Y-69770858D01*
X137769433Y-69957264D01*
X137769432Y-69957266D01*
X137769315Y-69957518D01*
X137742106Y-70015867D01*
X137695933Y-70068306D01*
X137628739Y-70087457D01*
X137561858Y-70067241D01*
X137517342Y-70015865D01*
X137490135Y-69957520D01*
X137490134Y-69957518D01*
X137359657Y-69771179D01*
X137198820Y-69610342D01*
X137012482Y-69479865D01*
X136806328Y-69383734D01*
X136610000Y-69331127D01*
X136610000Y-70294314D01*
X136605606Y-70289920D01*
X136514394Y-70237259D01*
X136412661Y-70210000D01*
X136307339Y-70210000D01*
X136205606Y-70237259D01*
X136114394Y-70289920D01*
X136110000Y-70294314D01*
X136110000Y-69331127D01*
X135913671Y-69383734D01*
X135707517Y-69479865D01*
X135521179Y-69610342D01*
X135360342Y-69771179D01*
X135229867Y-69957515D01*
X135202657Y-70015867D01*
X135156484Y-70068306D01*
X135089290Y-70087457D01*
X135022409Y-70067241D01*
X134977893Y-70015865D01*
X134950685Y-69957518D01*
X134950568Y-69957266D01*
X134820047Y-69770861D01*
X134820045Y-69770858D01*
X134659141Y-69609954D01*
X134472734Y-69479432D01*
X134472732Y-69479431D01*
X134266497Y-69383261D01*
X134266488Y-69383258D01*
X134084873Y-69334595D01*
X134025212Y-69298230D01*
X133994683Y-69235383D01*
X134002978Y-69166007D01*
X134047463Y-69112130D01*
X134084870Y-69095046D01*
X134246496Y-69051739D01*
X134452734Y-68955568D01*
X134639139Y-68825047D01*
X134661454Y-68802732D01*
X134800047Y-68664140D01*
X134855231Y-68585328D01*
X134930568Y-68477734D01*
X135026739Y-68271496D01*
X135085635Y-68051692D01*
X135105468Y-67825000D01*
X135085635Y-67598308D01*
X135026739Y-67378504D01*
X134930568Y-67172266D01*
X134800047Y-66985861D01*
X134800045Y-66985858D01*
X134639141Y-66824954D01*
X134452734Y-66694432D01*
X134452730Y-66694430D01*
X134437022Y-66687105D01*
X134384583Y-66640931D01*
X134365433Y-66573737D01*
X134385650Y-66506857D01*
X134437028Y-66462340D01*
X134452481Y-66455134D01*
X134525471Y-66404024D01*
X133846447Y-65725000D01*
X133852661Y-65725000D01*
X133954394Y-65697741D01*
X134045606Y-65645080D01*
X134120080Y-65570606D01*
X134172741Y-65479394D01*
X134200000Y-65377661D01*
X134200000Y-65371447D01*
X134879024Y-66050471D01*
X134930136Y-65977478D01*
X135026264Y-65771331D01*
X135026269Y-65771317D01*
X135085139Y-65551610D01*
X135085141Y-65551599D01*
X135104966Y-65325002D01*
X135104966Y-65324997D01*
X135085141Y-65098400D01*
X135085139Y-65098389D01*
X135026269Y-64878682D01*
X135026264Y-64878668D01*
X134930136Y-64672521D01*
X134930132Y-64672513D01*
X134879025Y-64599526D01*
X134200000Y-65278551D01*
X134200000Y-65272339D01*
X134172741Y-65170606D01*
X134120080Y-65079394D01*
X134045606Y-65004920D01*
X133954394Y-64952259D01*
X133852661Y-64925000D01*
X133846448Y-64925000D01*
X134525472Y-64245974D01*
X134452478Y-64194863D01*
X134246331Y-64098735D01*
X134246317Y-64098730D01*
X134026610Y-64039860D01*
X134026599Y-64039858D01*
X133800002Y-64020034D01*
X133799998Y-64020034D01*
X133573400Y-64039858D01*
X133573389Y-64039860D01*
X133353682Y-64098730D01*
X133353673Y-64098734D01*
X133147516Y-64194866D01*
X133147512Y-64194868D01*
X133074526Y-64245973D01*
X133074526Y-64245974D01*
X133753553Y-64925000D01*
X133747339Y-64925000D01*
X133645606Y-64952259D01*
X133554394Y-65004920D01*
X133479920Y-65079394D01*
X133427259Y-65170606D01*
X133400000Y-65272339D01*
X133400000Y-65278552D01*
X132720974Y-64599526D01*
X132720973Y-64599526D01*
X132669868Y-64672512D01*
X132669866Y-64672516D01*
X132573734Y-64878673D01*
X132573730Y-64878682D01*
X132514860Y-65098389D01*
X132514858Y-65098400D01*
X132495034Y-65324997D01*
X132495034Y-65325002D01*
X132514858Y-65551599D01*
X132514860Y-65551610D01*
X132573730Y-65771317D01*
X132573735Y-65771331D01*
X132669863Y-65977478D01*
X132720974Y-66050472D01*
X133400000Y-65371446D01*
X133400000Y-65377661D01*
X133427259Y-65479394D01*
X133479920Y-65570606D01*
X133554394Y-65645080D01*
X133645606Y-65697741D01*
X133747339Y-65725000D01*
X133753553Y-65725000D01*
X133074526Y-66404025D01*
X133147513Y-66455132D01*
X133147515Y-66455133D01*
X133162973Y-66462341D01*
X133215413Y-66508513D01*
X133234566Y-66575706D01*
X133214351Y-66642587D01*
X133162979Y-66687104D01*
X133147270Y-66694429D01*
X133147265Y-66694432D01*
X132960858Y-66824954D01*
X132799954Y-66985858D01*
X132669432Y-67172265D01*
X132669431Y-67172267D01*
X132573261Y-67378502D01*
X132573258Y-67378511D01*
X132514366Y-67598302D01*
X132514364Y-67598313D01*
X132494532Y-67824998D01*
X132494532Y-67825001D01*
X132514364Y-68051686D01*
X132514366Y-68051697D01*
X132573258Y-68271488D01*
X132573260Y-68271493D01*
X132573261Y-68271496D01*
X132646299Y-68428125D01*
X132669431Y-68477732D01*
X132669432Y-68477734D01*
X132799953Y-68664140D01*
X132960858Y-68825045D01*
X132960861Y-68825047D01*
X133147266Y-68955568D01*
X133353504Y-69051739D01*
X133535126Y-69100404D01*
X133594787Y-69136769D01*
X133625316Y-69199616D01*
X133617021Y-69268991D01*
X133572536Y-69322869D01*
X133535127Y-69339954D01*
X133373508Y-69383259D01*
X133373502Y-69383261D01*
X133167267Y-69479431D01*
X133167265Y-69479432D01*
X132980858Y-69609954D01*
X132819954Y-69770858D01*
X132689432Y-69957265D01*
X132689431Y-69957267D01*
X132662382Y-70015275D01*
X132616209Y-70067714D01*
X132549016Y-70086866D01*
X132482135Y-70066650D01*
X132437618Y-70015275D01*
X132410686Y-69957520D01*
X132410568Y-69957266D01*
X132280047Y-69770861D01*
X132280045Y-69770858D01*
X132119141Y-69609954D01*
X131932734Y-69479432D01*
X131932732Y-69479431D01*
X131726497Y-69383261D01*
X131726488Y-69383258D01*
X131506697Y-69324366D01*
X131506693Y-69324365D01*
X131506692Y-69324365D01*
X131506691Y-69324364D01*
X131506686Y-69324364D01*
X131280002Y-69304532D01*
X131279998Y-69304532D01*
X131053313Y-69324364D01*
X131053299Y-69324367D01*
X131012834Y-69335209D01*
X130942984Y-69333545D01*
X130893061Y-69303115D01*
X129476819Y-67886873D01*
X129443334Y-67825550D01*
X129440500Y-67799192D01*
X129440500Y-57482722D01*
X129460185Y-57415683D01*
X129493377Y-57381147D01*
X129558199Y-57335758D01*
X129661401Y-57263495D01*
X129828495Y-57096401D01*
X129958730Y-56910405D01*
X130013307Y-56866781D01*
X130082805Y-56859587D01*
X130145160Y-56891110D01*
X130161879Y-56910405D01*
X130291890Y-57096078D01*
X130458917Y-57263105D01*
X130652421Y-57398600D01*
X130866507Y-57498429D01*
X130866516Y-57498433D01*
X131080000Y-57555634D01*
X131080000Y-56658012D01*
X131137007Y-56690925D01*
X131264174Y-56725000D01*
X131395826Y-56725000D01*
X131522993Y-56690925D01*
X131580000Y-56658012D01*
X131580000Y-57555633D01*
X131793483Y-57498433D01*
X131793492Y-57498429D01*
X132007578Y-57398600D01*
X132201082Y-57263105D01*
X132368105Y-57096082D01*
X132498425Y-56909968D01*
X132553002Y-56866344D01*
X132622501Y-56859151D01*
X132684855Y-56890673D01*
X132701575Y-56909968D01*
X132831894Y-57096082D01*
X132998917Y-57263105D01*
X133192421Y-57398600D01*
X133406507Y-57498429D01*
X133406516Y-57498433D01*
X133620000Y-57555634D01*
X133620000Y-56658012D01*
X133677007Y-56690925D01*
X133804174Y-56725000D01*
X133935826Y-56725000D01*
X134062993Y-56690925D01*
X134120000Y-56658012D01*
X134120000Y-57555633D01*
X134333483Y-57498433D01*
X134333492Y-57498429D01*
X134547578Y-57398600D01*
X134741082Y-57263105D01*
X134908105Y-57096082D01*
X135038425Y-56909968D01*
X135093002Y-56866344D01*
X135162501Y-56859151D01*
X135224855Y-56890673D01*
X135241575Y-56909968D01*
X135371894Y-57096082D01*
X135538917Y-57263105D01*
X135732421Y-57398600D01*
X135946507Y-57498429D01*
X135946516Y-57498433D01*
X136160000Y-57555634D01*
X136160000Y-56658012D01*
X136217007Y-56690925D01*
X136344174Y-56725000D01*
X136475826Y-56725000D01*
X136602993Y-56690925D01*
X136660000Y-56658012D01*
X136660000Y-57555633D01*
G37*
%TD.AperFunction*%
%TA.AperFunction,Conductor*%
G36*
X133404075Y-56032007D02*
G01*
X133370000Y-56159174D01*
X133370000Y-56290826D01*
X133404075Y-56417993D01*
X133436988Y-56475000D01*
X131763012Y-56475000D01*
X131795925Y-56417993D01*
X131830000Y-56290826D01*
X131830000Y-56159174D01*
X131795925Y-56032007D01*
X131763012Y-55975000D01*
X133436988Y-55975000D01*
X133404075Y-56032007D01*
G37*
%TD.AperFunction*%
%TA.AperFunction,Conductor*%
G36*
X135944075Y-56032007D02*
G01*
X135910000Y-56159174D01*
X135910000Y-56290826D01*
X135944075Y-56417993D01*
X135976988Y-56475000D01*
X134303012Y-56475000D01*
X134335925Y-56417993D01*
X134370000Y-56290826D01*
X134370000Y-56159174D01*
X134335925Y-56032007D01*
X134303012Y-55975000D01*
X135976988Y-55975000D01*
X135944075Y-56032007D01*
G37*
%TD.AperFunction*%
%TA.AperFunction,Conductor*%
G36*
X173443039Y-53019685D02*
G01*
X173488794Y-53072489D01*
X173500000Y-53124000D01*
X173500000Y-117875349D01*
X173480315Y-117942388D01*
X173427511Y-117988143D01*
X173375351Y-117999347D01*
X78123351Y-117500645D01*
X78056415Y-117480610D01*
X78010937Y-117427567D01*
X78000000Y-117376647D01*
X78000000Y-110309998D01*
X103194532Y-110309998D01*
X103194532Y-110310001D01*
X103214364Y-110536686D01*
X103214366Y-110536697D01*
X103273258Y-110756488D01*
X103273261Y-110756497D01*
X103369431Y-110962732D01*
X103369432Y-110962734D01*
X103499954Y-111149141D01*
X103660858Y-111310045D01*
X103660861Y-111310047D01*
X103847266Y-111440568D01*
X104053504Y-111536739D01*
X104273308Y-111595635D01*
X104435230Y-111609801D01*
X104499998Y-111615468D01*
X104500000Y-111615468D01*
X104500002Y-111615468D01*
X104556673Y-111610509D01*
X104726692Y-111595635D01*
X104946496Y-111536739D01*
X105152734Y-111440568D01*
X105339139Y-111310047D01*
X105500047Y-111149139D01*
X105630568Y-110962734D01*
X105726739Y-110756496D01*
X105785635Y-110536692D01*
X105805468Y-110310000D01*
X105785635Y-110083308D01*
X105726739Y-109863504D01*
X105630568Y-109657266D01*
X105500047Y-109470861D01*
X105500045Y-109470858D01*
X105339141Y-109309954D01*
X105152734Y-109179432D01*
X105152732Y-109179431D01*
X104946497Y-109083261D01*
X104946488Y-109083258D01*
X104726697Y-109024366D01*
X104726693Y-109024365D01*
X104726692Y-109024365D01*
X104726691Y-109024364D01*
X104726686Y-109024364D01*
X104500002Y-109004532D01*
X104499998Y-109004532D01*
X104273313Y-109024364D01*
X104273302Y-109024366D01*
X104053511Y-109083258D01*
X104053502Y-109083261D01*
X103847267Y-109179431D01*
X103847265Y-109179432D01*
X103660858Y-109309954D01*
X103499954Y-109470858D01*
X103369432Y-109657265D01*
X103369431Y-109657267D01*
X103273261Y-109863502D01*
X103273258Y-109863511D01*
X103214366Y-110083302D01*
X103214364Y-110083313D01*
X103194532Y-110309998D01*
X78000000Y-110309998D01*
X78000000Y-102689998D01*
X103194532Y-102689998D01*
X103194532Y-102690001D01*
X103214364Y-102916686D01*
X103214366Y-102916697D01*
X103273258Y-103136488D01*
X103273261Y-103136497D01*
X103369431Y-103342732D01*
X103369432Y-103342734D01*
X103499954Y-103529141D01*
X103660858Y-103690045D01*
X103660861Y-103690047D01*
X103847266Y-103820568D01*
X104053504Y-103916739D01*
X104273308Y-103975635D01*
X104435230Y-103989801D01*
X104499998Y-103995468D01*
X104500000Y-103995468D01*
X104500002Y-103995468D01*
X104556673Y-103990509D01*
X104726692Y-103975635D01*
X104946496Y-103916739D01*
X105152734Y-103820568D01*
X105339139Y-103690047D01*
X105500047Y-103529139D01*
X105630568Y-103342734D01*
X105726739Y-103136496D01*
X105785635Y-102916692D01*
X105805468Y-102690000D01*
X105785635Y-102463308D01*
X105726739Y-102243504D01*
X105630568Y-102037266D01*
X105500047Y-101850861D01*
X105500045Y-101850858D01*
X105339141Y-101689954D01*
X105152734Y-101559432D01*
X105152732Y-101559431D01*
X104946497Y-101463261D01*
X104946488Y-101463258D01*
X104726697Y-101404366D01*
X104726693Y-101404365D01*
X104726692Y-101404365D01*
X104726691Y-101404364D01*
X104726686Y-101404364D01*
X104500002Y-101384532D01*
X104499998Y-101384532D01*
X104273313Y-101404364D01*
X104273302Y-101404366D01*
X104053511Y-101463258D01*
X104053502Y-101463261D01*
X103847267Y-101559431D01*
X103847265Y-101559432D01*
X103660858Y-101689954D01*
X103499954Y-101850858D01*
X103369432Y-102037265D01*
X103369431Y-102037267D01*
X103273261Y-102243502D01*
X103273258Y-102243511D01*
X103214366Y-102463302D01*
X103214364Y-102463313D01*
X103194532Y-102689998D01*
X78000000Y-102689998D01*
X78000000Y-100799998D01*
X138294532Y-100799998D01*
X138294532Y-100800001D01*
X138314364Y-101026686D01*
X138314366Y-101026697D01*
X138373258Y-101246488D01*
X138373261Y-101246497D01*
X138469431Y-101452732D01*
X138469432Y-101452734D01*
X138599954Y-101639141D01*
X138760858Y-101800045D01*
X138760861Y-101800047D01*
X138947266Y-101930568D01*
X138962975Y-101937893D01*
X139015414Y-101984064D01*
X139034567Y-102051257D01*
X139014352Y-102118138D01*
X138962979Y-102162656D01*
X138947514Y-102169867D01*
X138947512Y-102169868D01*
X138874526Y-102220973D01*
X138874526Y-102220974D01*
X139553553Y-102900000D01*
X139547339Y-102900000D01*
X139445606Y-102927259D01*
X139354394Y-102979920D01*
X139279920Y-103054394D01*
X139227259Y-103145606D01*
X139200000Y-103247339D01*
X139200000Y-103253552D01*
X138520974Y-102574526D01*
X138520973Y-102574526D01*
X138469868Y-102647512D01*
X138469866Y-102647516D01*
X138373734Y-102853673D01*
X138373730Y-102853682D01*
X138314860Y-103073389D01*
X138314858Y-103073400D01*
X138295034Y-103299997D01*
X138295034Y-103300002D01*
X138314858Y-103526599D01*
X138314860Y-103526610D01*
X138373730Y-103746317D01*
X138373735Y-103746331D01*
X138469863Y-103952478D01*
X138520974Y-104025472D01*
X139200000Y-103346446D01*
X139200000Y-103352661D01*
X139227259Y-103454394D01*
X139279920Y-103545606D01*
X139354394Y-103620080D01*
X139445606Y-103672741D01*
X139547339Y-103700000D01*
X139553553Y-103700000D01*
X138874526Y-104379025D01*
X138947513Y-104430132D01*
X138947521Y-104430136D01*
X139153668Y-104526264D01*
X139153682Y-104526269D01*
X139373389Y-104585139D01*
X139373400Y-104585141D01*
X139599998Y-104604966D01*
X139600002Y-104604966D01*
X139826599Y-104585141D01*
X139826610Y-104585139D01*
X140046317Y-104526269D01*
X140046331Y-104526264D01*
X140252478Y-104430136D01*
X140325471Y-104379024D01*
X139646447Y-103700000D01*
X139652661Y-103700000D01*
X139754394Y-103672741D01*
X139845606Y-103620080D01*
X139920080Y-103545606D01*
X139972741Y-103454394D01*
X140000000Y-103352661D01*
X140000000Y-103346447D01*
X140679024Y-104025471D01*
X140730136Y-103952478D01*
X140826264Y-103746331D01*
X140826269Y-103746317D01*
X140885139Y-103526610D01*
X140885141Y-103526599D01*
X140904966Y-103300002D01*
X140904966Y-103299997D01*
X140885141Y-103073400D01*
X140885139Y-103073389D01*
X140826269Y-102853682D01*
X140826264Y-102853668D01*
X140730136Y-102647521D01*
X140730132Y-102647513D01*
X140679025Y-102574526D01*
X140000000Y-103253551D01*
X140000000Y-103247339D01*
X139972741Y-103145606D01*
X139920080Y-103054394D01*
X139845606Y-102979920D01*
X139754394Y-102927259D01*
X139652661Y-102900000D01*
X139646448Y-102900000D01*
X140325472Y-102220974D01*
X140252480Y-102169864D01*
X140237024Y-102162657D01*
X140184585Y-102116484D01*
X140165433Y-102049290D01*
X140185649Y-101982409D01*
X140237023Y-101937893D01*
X140252734Y-101930568D01*
X140439139Y-101800047D01*
X140600047Y-101639139D01*
X140730568Y-101452734D01*
X140826739Y-101246496D01*
X140885635Y-101026692D01*
X140905468Y-100800000D01*
X140885635Y-100573308D01*
X140826739Y-100353504D01*
X140730568Y-100147266D01*
X140600047Y-99960861D01*
X140600045Y-99960858D01*
X140439141Y-99799954D01*
X140252734Y-99669432D01*
X140252732Y-99669431D01*
X140046497Y-99573261D01*
X140046488Y-99573258D01*
X139826697Y-99514366D01*
X139826693Y-99514365D01*
X139826692Y-99514365D01*
X139826691Y-99514364D01*
X139826686Y-99514364D01*
X139600002Y-99494532D01*
X139599998Y-99494532D01*
X139373313Y-99514364D01*
X139373302Y-99514366D01*
X139153511Y-99573258D01*
X139153502Y-99573261D01*
X138947267Y-99669431D01*
X138947265Y-99669432D01*
X138760858Y-99799954D01*
X138599954Y-99960858D01*
X138469432Y-100147265D01*
X138469431Y-100147267D01*
X138373261Y-100353502D01*
X138373258Y-100353511D01*
X138314366Y-100573302D01*
X138314364Y-100573313D01*
X138294532Y-100799998D01*
X78000000Y-100799998D01*
X78000000Y-99174998D01*
X106409532Y-99174998D01*
X106409532Y-99175001D01*
X106429364Y-99401686D01*
X106429366Y-99401697D01*
X106488258Y-99621488D01*
X106488261Y-99621497D01*
X106584431Y-99827732D01*
X106584432Y-99827734D01*
X106714954Y-100014141D01*
X106875858Y-100175045D01*
X106875861Y-100175047D01*
X107062266Y-100305568D01*
X107268504Y-100401739D01*
X107488308Y-100460635D01*
X107650230Y-100474801D01*
X107714998Y-100480468D01*
X107715000Y-100480468D01*
X107715002Y-100480468D01*
X107771673Y-100475509D01*
X107941692Y-100460635D01*
X108161496Y-100401739D01*
X108367734Y-100305568D01*
X108554139Y-100175047D01*
X108715047Y-100014139D01*
X108845568Y-99827734D01*
X108941739Y-99621496D01*
X109000635Y-99401692D01*
X109020468Y-99175000D01*
X109020468Y-99174998D01*
X114029532Y-99174998D01*
X114029532Y-99175001D01*
X114049364Y-99401686D01*
X114049366Y-99401697D01*
X114108258Y-99621488D01*
X114108261Y-99621497D01*
X114204431Y-99827732D01*
X114204432Y-99827734D01*
X114334954Y-100014141D01*
X114495858Y-100175045D01*
X114495861Y-100175047D01*
X114682266Y-100305568D01*
X114888504Y-100401739D01*
X115108308Y-100460635D01*
X115270230Y-100474801D01*
X115334998Y-100480468D01*
X115335000Y-100480468D01*
X115335002Y-100480468D01*
X115391673Y-100475509D01*
X115561692Y-100460635D01*
X115781496Y-100401739D01*
X115987734Y-100305568D01*
X116174139Y-100175047D01*
X116335047Y-100014139D01*
X116465568Y-99827734D01*
X116561739Y-99621496D01*
X116620635Y-99401692D01*
X116640468Y-99175000D01*
X116620635Y-98948308D01*
X116561739Y-98728504D01*
X116465568Y-98522266D01*
X116335047Y-98335861D01*
X116335045Y-98335858D01*
X116174141Y-98174954D01*
X115987734Y-98044432D01*
X115987732Y-98044431D01*
X115781497Y-97948261D01*
X115781488Y-97948258D01*
X115561697Y-97889366D01*
X115561693Y-97889365D01*
X115561692Y-97889365D01*
X115561691Y-97889364D01*
X115561686Y-97889364D01*
X115335002Y-97869532D01*
X115334998Y-97869532D01*
X115108313Y-97889364D01*
X115108302Y-97889366D01*
X114888511Y-97948258D01*
X114888502Y-97948261D01*
X114682267Y-98044431D01*
X114682265Y-98044432D01*
X114495858Y-98174954D01*
X114334954Y-98335858D01*
X114204432Y-98522265D01*
X114204431Y-98522267D01*
X114108261Y-98728502D01*
X114108258Y-98728511D01*
X114049366Y-98948302D01*
X114049364Y-98948313D01*
X114029532Y-99174998D01*
X109020468Y-99174998D01*
X109000635Y-98948308D01*
X108941739Y-98728504D01*
X108845568Y-98522266D01*
X108715047Y-98335861D01*
X108715045Y-98335858D01*
X108554141Y-98174954D01*
X108367734Y-98044432D01*
X108367732Y-98044431D01*
X108161497Y-97948261D01*
X108161488Y-97948258D01*
X107941697Y-97889366D01*
X107941693Y-97889365D01*
X107941692Y-97889365D01*
X107941691Y-97889364D01*
X107941686Y-97889364D01*
X107715002Y-97869532D01*
X107714998Y-97869532D01*
X107488313Y-97889364D01*
X107488302Y-97889366D01*
X107268511Y-97948258D01*
X107268502Y-97948261D01*
X107062267Y-98044431D01*
X107062265Y-98044432D01*
X106875858Y-98174954D01*
X106714954Y-98335858D01*
X106584432Y-98522265D01*
X106584431Y-98522267D01*
X106488261Y-98728502D01*
X106488258Y-98728511D01*
X106429366Y-98948302D01*
X106429364Y-98948313D01*
X106409532Y-99174998D01*
X78000000Y-99174998D01*
X78000000Y-91764992D01*
X81584671Y-91764992D01*
X81584671Y-91765007D01*
X81603964Y-92059363D01*
X81603965Y-92059373D01*
X81603966Y-92059380D01*
X81654811Y-92315000D01*
X81661518Y-92348716D01*
X81661521Y-92348730D01*
X81756349Y-92628080D01*
X81886825Y-92892660D01*
X81886829Y-92892667D01*
X82050725Y-93137955D01*
X82245241Y-93359758D01*
X82467044Y-93554274D01*
X82531768Y-93597521D01*
X82712335Y-93718172D01*
X82976923Y-93848652D01*
X83256278Y-93943481D01*
X83545620Y-94001034D01*
X83573888Y-94002886D01*
X83839993Y-94020329D01*
X83840000Y-94020329D01*
X83840007Y-94020329D01*
X84083117Y-94004394D01*
X84134380Y-94001034D01*
X84423722Y-93943481D01*
X84703077Y-93848652D01*
X84967665Y-93718172D01*
X85212957Y-93554273D01*
X85434758Y-93359758D01*
X85629273Y-93137957D01*
X85793172Y-92892665D01*
X85923652Y-92628077D01*
X86018481Y-92348722D01*
X86076034Y-92059380D01*
X86081687Y-91973127D01*
X86095329Y-91765007D01*
X86095329Y-91764992D01*
X86076035Y-91470636D01*
X86076034Y-91470620D01*
X86018481Y-91181278D01*
X85923652Y-90901923D01*
X85793172Y-90637336D01*
X85781208Y-90619431D01*
X85714727Y-90519935D01*
X85629273Y-90392043D01*
X85577742Y-90333283D01*
X85434758Y-90170241D01*
X85212955Y-89975725D01*
X84967667Y-89811829D01*
X84967660Y-89811825D01*
X84703080Y-89681349D01*
X84423730Y-89586521D01*
X84423724Y-89586519D01*
X84423722Y-89586519D01*
X84134380Y-89528966D01*
X84134373Y-89528965D01*
X84134363Y-89528964D01*
X83840007Y-89509671D01*
X83839993Y-89509671D01*
X83545636Y-89528964D01*
X83545624Y-89528965D01*
X83545620Y-89528966D01*
X83545612Y-89528967D01*
X83545609Y-89528968D01*
X83256283Y-89586518D01*
X83256269Y-89586521D01*
X82976919Y-89681349D01*
X82712334Y-89811828D01*
X82467041Y-89975728D01*
X82245241Y-90170241D01*
X82050728Y-90392041D01*
X81886828Y-90637334D01*
X81756349Y-90901919D01*
X81661521Y-91181269D01*
X81661518Y-91181283D01*
X81603968Y-91470609D01*
X81603964Y-91470636D01*
X81584671Y-91764992D01*
X78000000Y-91764992D01*
X78000000Y-89110646D01*
X98999500Y-89110646D01*
X98999500Y-89339353D01*
X99035278Y-89565246D01*
X99035278Y-89565249D01*
X99105950Y-89782755D01*
X99204275Y-89975727D01*
X99209783Y-89986538D01*
X99344214Y-90171566D01*
X99505934Y-90333286D01*
X99590864Y-90394991D01*
X99633529Y-90450321D01*
X99639508Y-90519935D01*
X99606902Y-90581730D01*
X99590864Y-90595627D01*
X99506257Y-90657097D01*
X99344597Y-90818757D01*
X99210211Y-91003723D01*
X99106417Y-91207429D01*
X99035765Y-91424871D01*
X99021491Y-91515000D01*
X100009252Y-91515000D01*
X99987482Y-91552708D01*
X99950000Y-91692591D01*
X99950000Y-91837409D01*
X99987482Y-91977292D01*
X100009252Y-92015000D01*
X99021491Y-92015000D01*
X99035765Y-92105128D01*
X99106417Y-92322570D01*
X99210213Y-92526279D01*
X99343011Y-92709060D01*
X99366491Y-92774866D01*
X99350666Y-92842920D01*
X99300560Y-92891615D01*
X99286026Y-92898127D01*
X99257671Y-92908702D01*
X99257664Y-92908706D01*
X99142455Y-92994952D01*
X99142452Y-92994955D01*
X99056206Y-93110164D01*
X99056202Y-93110171D01*
X99005908Y-93245017D01*
X98999501Y-93304616D01*
X98999501Y-93304623D01*
X98999500Y-93304635D01*
X98999500Y-95305370D01*
X98999501Y-95305376D01*
X99005908Y-95364983D01*
X99056202Y-95499828D01*
X99056206Y-95499835D01*
X99142452Y-95615044D01*
X99142455Y-95615047D01*
X99257664Y-95701293D01*
X99257671Y-95701297D01*
X99392517Y-95751591D01*
X99392516Y-95751591D01*
X99399444Y-95752335D01*
X99452127Y-95758000D01*
X101547872Y-95757999D01*
X101607483Y-95751591D01*
X101742331Y-95701296D01*
X101857546Y-95615046D01*
X101943796Y-95499831D01*
X101994091Y-95364983D01*
X102000500Y-95305373D01*
X102000499Y-93304628D01*
X101994091Y-93245017D01*
X101966474Y-93170973D01*
X101943797Y-93110171D01*
X101943793Y-93110164D01*
X101857547Y-92994955D01*
X101857544Y-92994952D01*
X101742335Y-92908706D01*
X101742326Y-92908701D01*
X101713974Y-92898127D01*
X101658040Y-92856257D01*
X101633622Y-92790792D01*
X101648473Y-92722519D01*
X101656988Y-92709059D01*
X101789788Y-92526276D01*
X101878518Y-92352135D01*
X106089500Y-92352135D01*
X106089500Y-94647870D01*
X106089501Y-94647876D01*
X106095908Y-94707483D01*
X106146202Y-94842328D01*
X106146206Y-94842335D01*
X106232452Y-94957544D01*
X106232455Y-94957547D01*
X106347664Y-95043793D01*
X106347671Y-95043797D01*
X106482517Y-95094091D01*
X106482516Y-95094091D01*
X106489444Y-95094835D01*
X106542127Y-95100500D01*
X108837872Y-95100499D01*
X108897483Y-95094091D01*
X109032331Y-95043796D01*
X109147546Y-94957546D01*
X109233796Y-94842331D01*
X109284091Y-94707483D01*
X109290500Y-94647873D01*
X109290499Y-93500000D01*
X113704551Y-93500000D01*
X113724317Y-93751151D01*
X113783126Y-93996110D01*
X113879533Y-94228859D01*
X114011160Y-94443653D01*
X114011161Y-94443656D01*
X114011164Y-94443659D01*
X114174776Y-94635224D01*
X114323066Y-94761875D01*
X114366343Y-94798838D01*
X114366346Y-94798839D01*
X114581140Y-94930466D01*
X114813889Y-95026873D01*
X115058852Y-95085683D01*
X115310000Y-95105449D01*
X115561148Y-95085683D01*
X115806111Y-95026873D01*
X116038859Y-94930466D01*
X116253659Y-94798836D01*
X116445224Y-94635224D01*
X116608836Y-94443659D01*
X116740466Y-94228859D01*
X116836873Y-93996111D01*
X116895683Y-93751148D01*
X116915449Y-93500000D01*
X116895683Y-93248852D01*
X116836873Y-93003889D01*
X116797446Y-92908704D01*
X116740466Y-92771140D01*
X116608839Y-92556346D01*
X116608838Y-92556343D01*
X116571875Y-92513066D01*
X116445224Y-92364776D01*
X116287576Y-92230132D01*
X116253656Y-92201161D01*
X116253653Y-92201160D01*
X116038859Y-92069533D01*
X115806110Y-91973126D01*
X115561151Y-91914317D01*
X115310000Y-91894551D01*
X115058848Y-91914317D01*
X114813889Y-91973126D01*
X114581140Y-92069533D01*
X114366346Y-92201160D01*
X114366343Y-92201161D01*
X114174776Y-92364776D01*
X114011161Y-92556343D01*
X114011160Y-92556346D01*
X113879533Y-92771140D01*
X113783126Y-93003889D01*
X113724317Y-93248848D01*
X113704551Y-93500000D01*
X109290499Y-93500000D01*
X109290499Y-92352128D01*
X109284091Y-92292517D01*
X109260824Y-92230136D01*
X109233797Y-92157671D01*
X109233793Y-92157664D01*
X109147547Y-92042455D01*
X109147544Y-92042452D01*
X109032335Y-91956206D01*
X109032328Y-91956202D01*
X108897482Y-91905908D01*
X108897483Y-91905908D01*
X108837883Y-91899501D01*
X108837881Y-91899500D01*
X108837873Y-91899500D01*
X108837864Y-91899500D01*
X106542129Y-91899500D01*
X106542123Y-91899501D01*
X106482516Y-91905908D01*
X106347671Y-91956202D01*
X106347664Y-91956206D01*
X106232455Y-92042452D01*
X106232452Y-92042455D01*
X106146206Y-92157664D01*
X106146202Y-92157671D01*
X106095908Y-92292517D01*
X106092280Y-92326269D01*
X106089501Y-92352123D01*
X106089500Y-92352135D01*
X101878518Y-92352135D01*
X101893582Y-92322570D01*
X101964234Y-92105128D01*
X101978509Y-92015000D01*
X100990748Y-92015000D01*
X101012518Y-91977292D01*
X101050000Y-91837409D01*
X101050000Y-91692591D01*
X101012518Y-91552708D01*
X100990748Y-91515000D01*
X101978509Y-91515000D01*
X101964234Y-91424871D01*
X101893582Y-91207429D01*
X101789788Y-91003723D01*
X101655402Y-90818757D01*
X101493742Y-90657097D01*
X101409135Y-90595626D01*
X101366470Y-90540296D01*
X101360491Y-90470682D01*
X101393097Y-90408887D01*
X101409125Y-90394999D01*
X101494066Y-90333286D01*
X101655786Y-90171566D01*
X101790217Y-89986538D01*
X101894048Y-89782758D01*
X101908626Y-89737892D01*
X101964721Y-89565249D01*
X101964721Y-89565248D01*
X101964722Y-89565245D01*
X102000500Y-89339354D01*
X102000500Y-89110646D01*
X101964722Y-88884755D01*
X101964721Y-88884751D01*
X101964721Y-88884750D01*
X101894049Y-88667244D01*
X101859787Y-88600001D01*
X101790217Y-88463462D01*
X101655786Y-88278434D01*
X101494066Y-88116714D01*
X101309038Y-87982283D01*
X101240315Y-87947267D01*
X101105255Y-87878450D01*
X100887748Y-87807778D01*
X100718326Y-87780944D01*
X100661854Y-87772000D01*
X100338146Y-87772000D01*
X100262849Y-87783926D01*
X100112253Y-87807778D01*
X100112250Y-87807778D01*
X99894744Y-87878450D01*
X99690961Y-87982283D01*
X99585396Y-88058980D01*
X99505934Y-88116714D01*
X99505932Y-88116716D01*
X99505931Y-88116716D01*
X99344216Y-88278431D01*
X99344216Y-88278432D01*
X99344214Y-88278434D01*
X99286480Y-88357896D01*
X99209783Y-88463461D01*
X99105950Y-88667244D01*
X99035278Y-88884750D01*
X99035278Y-88884753D01*
X98999500Y-89110646D01*
X78000000Y-89110646D01*
X78000000Y-77662135D01*
X82449500Y-77662135D01*
X82449500Y-79957870D01*
X82449501Y-79957876D01*
X82455908Y-80017483D01*
X82506202Y-80152328D01*
X82506206Y-80152335D01*
X82592452Y-80267544D01*
X82592455Y-80267547D01*
X82707664Y-80353793D01*
X82707671Y-80353797D01*
X82842517Y-80404091D01*
X82842516Y-80404091D01*
X82849444Y-80404835D01*
X82902127Y-80410500D01*
X85197872Y-80410499D01*
X85257483Y-80404091D01*
X85392331Y-80353796D01*
X85507546Y-80267546D01*
X85593796Y-80152331D01*
X85644091Y-80017483D01*
X85650500Y-79957873D01*
X85650499Y-77662128D01*
X85644091Y-77602517D01*
X85633079Y-77572993D01*
X85593797Y-77467671D01*
X85593793Y-77467664D01*
X85507547Y-77352455D01*
X85507544Y-77352452D01*
X85392335Y-77266206D01*
X85392328Y-77266202D01*
X85257482Y-77215908D01*
X85257483Y-77215908D01*
X85197883Y-77209501D01*
X85197881Y-77209500D01*
X85197873Y-77209500D01*
X85197864Y-77209500D01*
X82902129Y-77209500D01*
X82902123Y-77209501D01*
X82842516Y-77215908D01*
X82707671Y-77266202D01*
X82707664Y-77266206D01*
X82592455Y-77352452D01*
X82592452Y-77352455D01*
X82506206Y-77467664D01*
X82506202Y-77467671D01*
X82455908Y-77602517D01*
X82452954Y-77630000D01*
X82449501Y-77662123D01*
X82449500Y-77662135D01*
X78000000Y-77662135D01*
X78000000Y-71190000D01*
X82444551Y-71190000D01*
X82464317Y-71441151D01*
X82523126Y-71686110D01*
X82619533Y-71918859D01*
X82751160Y-72133653D01*
X82751161Y-72133656D01*
X82751164Y-72133659D01*
X82914776Y-72325224D01*
X83063066Y-72451875D01*
X83106343Y-72488838D01*
X83106346Y-72488839D01*
X83321140Y-72620466D01*
X83553889Y-72716873D01*
X83798852Y-72775683D01*
X84050000Y-72795449D01*
X84301148Y-72775683D01*
X84546111Y-72716873D01*
X84778859Y-72620466D01*
X84993659Y-72488836D01*
X85185224Y-72325224D01*
X85348836Y-72133659D01*
X85480466Y-71918859D01*
X85576873Y-71686111D01*
X85635683Y-71441148D01*
X85655449Y-71190000D01*
X85635683Y-70938852D01*
X85576873Y-70693889D01*
X85542124Y-70609998D01*
X85480466Y-70461140D01*
X85348839Y-70246346D01*
X85348838Y-70246343D01*
X85278092Y-70163511D01*
X85185224Y-70054776D01*
X85058571Y-69946604D01*
X84993656Y-69891161D01*
X84993653Y-69891160D01*
X84778859Y-69759533D01*
X84546110Y-69663126D01*
X84301151Y-69604317D01*
X84050000Y-69584551D01*
X83798848Y-69604317D01*
X83553889Y-69663126D01*
X83321140Y-69759533D01*
X83106346Y-69891160D01*
X83106343Y-69891161D01*
X82914776Y-70054776D01*
X82751161Y-70246343D01*
X82751160Y-70246346D01*
X82619533Y-70461140D01*
X82523126Y-70693889D01*
X82464317Y-70938848D01*
X82444551Y-71190000D01*
X78000000Y-71190000D01*
X78000000Y-66731902D01*
X88124500Y-66731902D01*
X88124500Y-66968097D01*
X88161446Y-67201368D01*
X88234433Y-67425996D01*
X88322228Y-67598302D01*
X88341657Y-67636433D01*
X88480483Y-67827510D01*
X88647490Y-67994517D01*
X88838567Y-68133343D01*
X88900048Y-68164669D01*
X89049003Y-68240566D01*
X89049005Y-68240566D01*
X89049008Y-68240568D01*
X89169412Y-68279689D01*
X89273631Y-68313553D01*
X89506903Y-68350500D01*
X89506908Y-68350500D01*
X91943097Y-68350500D01*
X92176368Y-68313553D01*
X92188091Y-68309744D01*
X92400992Y-68240568D01*
X92611433Y-68133343D01*
X92802510Y-67994517D01*
X92969517Y-67827510D01*
X93108343Y-67636433D01*
X93215568Y-67425992D01*
X93288553Y-67201368D01*
X93293162Y-67172266D01*
X93325500Y-66968097D01*
X93325500Y-66731902D01*
X93288553Y-66498631D01*
X93215566Y-66274003D01*
X93108342Y-66063566D01*
X93078681Y-66022741D01*
X92969517Y-65872490D01*
X92802510Y-65705483D01*
X92611433Y-65566657D01*
X92581880Y-65551599D01*
X92400996Y-65459433D01*
X92176368Y-65386446D01*
X91943097Y-65349500D01*
X91943092Y-65349500D01*
X89506908Y-65349500D01*
X89506903Y-65349500D01*
X89273631Y-65386446D01*
X89049003Y-65459433D01*
X88838566Y-65566657D01*
X88730627Y-65645080D01*
X88647490Y-65705483D01*
X88647488Y-65705485D01*
X88647487Y-65705485D01*
X88480485Y-65872487D01*
X88480485Y-65872488D01*
X88480483Y-65872490D01*
X88420862Y-65954550D01*
X88341657Y-66063566D01*
X88234433Y-66274003D01*
X88161446Y-66498631D01*
X88124500Y-66731902D01*
X78000000Y-66731902D01*
X78000000Y-60831902D01*
X85824500Y-60831902D01*
X85824500Y-63268097D01*
X85861446Y-63501368D01*
X85934433Y-63725996D01*
X85980255Y-63815925D01*
X86041657Y-63936433D01*
X86180483Y-64127510D01*
X86347490Y-64294517D01*
X86538567Y-64433343D01*
X86637991Y-64484002D01*
X86749003Y-64540566D01*
X86749005Y-64540566D01*
X86749008Y-64540568D01*
X86842585Y-64570973D01*
X86973631Y-64613553D01*
X87206903Y-64650500D01*
X87206908Y-64650500D01*
X87443097Y-64650500D01*
X87676368Y-64613553D01*
X87900992Y-64540568D01*
X88111433Y-64433343D01*
X88302510Y-64294517D01*
X88469517Y-64127510D01*
X88608343Y-63936433D01*
X88715568Y-63725992D01*
X88788553Y-63501368D01*
X88825500Y-63268097D01*
X88825500Y-60831902D01*
X88788553Y-60598631D01*
X88754689Y-60494412D01*
X88715568Y-60374008D01*
X88715566Y-60374005D01*
X88715566Y-60374003D01*
X88608342Y-60163566D01*
X88469517Y-59972490D01*
X88302510Y-59805483D01*
X88160292Y-59702155D01*
X92125000Y-59702155D01*
X92125000Y-61800000D01*
X93125000Y-61800000D01*
X93125000Y-62300000D01*
X92125000Y-62300000D01*
X92125000Y-64397844D01*
X92131401Y-64457372D01*
X92131403Y-64457379D01*
X92181645Y-64592086D01*
X92181649Y-64592093D01*
X92267809Y-64707187D01*
X92267812Y-64707190D01*
X92382906Y-64793350D01*
X92382913Y-64793354D01*
X92517620Y-64843596D01*
X92517627Y-64843598D01*
X92577155Y-64849999D01*
X92577172Y-64850000D01*
X93375000Y-64850000D01*
X93375000Y-63783012D01*
X93432007Y-63815925D01*
X93559174Y-63850000D01*
X93690826Y-63850000D01*
X93817993Y-63815925D01*
X93875000Y-63783012D01*
X93875000Y-64850000D01*
X94672828Y-64850000D01*
X94672844Y-64849999D01*
X94732372Y-64843598D01*
X94732379Y-64843596D01*
X94867086Y-64793354D01*
X94867093Y-64793350D01*
X94982187Y-64707190D01*
X94982190Y-64707187D01*
X95068350Y-64592093D01*
X95068354Y-64592086D01*
X95118596Y-64457379D01*
X95118598Y-64457372D01*
X95124999Y-64397844D01*
X95125000Y-64397827D01*
X95125000Y-62300000D01*
X94125000Y-62300000D01*
X94125000Y-61800000D01*
X95125000Y-61800000D01*
X95125000Y-59702172D01*
X95124999Y-59702155D01*
X95118598Y-59642627D01*
X95118596Y-59642620D01*
X95068354Y-59507913D01*
X95068350Y-59507906D01*
X94982190Y-59392812D01*
X94982187Y-59392809D01*
X94867093Y-59306649D01*
X94867086Y-59306645D01*
X94732379Y-59256403D01*
X94732372Y-59256401D01*
X94672844Y-59250000D01*
X93875000Y-59250000D01*
X93875000Y-60316988D01*
X93817993Y-60284075D01*
X93690826Y-60250000D01*
X93559174Y-60250000D01*
X93432007Y-60284075D01*
X93375000Y-60316988D01*
X93375000Y-59250000D01*
X92577155Y-59250000D01*
X92517627Y-59256401D01*
X92517620Y-59256403D01*
X92382913Y-59306645D01*
X92382906Y-59306649D01*
X92267812Y-59392809D01*
X92267809Y-59392812D01*
X92181649Y-59507906D01*
X92181645Y-59507913D01*
X92131403Y-59642620D01*
X92131401Y-59642627D01*
X92125000Y-59702155D01*
X88160292Y-59702155D01*
X88111433Y-59666657D01*
X87900996Y-59559433D01*
X87676368Y-59486446D01*
X87443097Y-59449500D01*
X87443092Y-59449500D01*
X87206908Y-59449500D01*
X87206903Y-59449500D01*
X86973631Y-59486446D01*
X86749003Y-59559433D01*
X86538566Y-59666657D01*
X86429550Y-59745862D01*
X86347490Y-59805483D01*
X86347488Y-59805485D01*
X86347487Y-59805485D01*
X86180485Y-59972487D01*
X86180485Y-59972488D01*
X86180483Y-59972490D01*
X86120862Y-60054550D01*
X86041657Y-60163566D01*
X85934433Y-60374003D01*
X85861446Y-60598631D01*
X85824500Y-60831902D01*
X78000000Y-60831902D01*
X78000000Y-56224999D01*
X109654341Y-56224999D01*
X109654341Y-56225000D01*
X109674936Y-56460403D01*
X109674938Y-56460413D01*
X109736094Y-56688655D01*
X109736096Y-56688659D01*
X109736097Y-56688663D01*
X109815801Y-56859588D01*
X109835965Y-56902830D01*
X109835967Y-56902834D01*
X109944281Y-57057521D01*
X109971505Y-57096401D01*
X110138599Y-57263495D01*
X110235384Y-57331265D01*
X110332165Y-57399032D01*
X110332167Y-57399033D01*
X110332170Y-57399035D01*
X110546337Y-57498903D01*
X110774592Y-57560063D01*
X110951034Y-57575500D01*
X111009999Y-57580659D01*
X111010000Y-57580659D01*
X111010001Y-57580659D01*
X111068966Y-57575500D01*
X111245408Y-57560063D01*
X111473663Y-57498903D01*
X111687830Y-57399035D01*
X111881401Y-57263495D01*
X112048495Y-57096401D01*
X112178730Y-56910405D01*
X112233307Y-56866781D01*
X112302805Y-56859587D01*
X112365160Y-56891110D01*
X112381879Y-56910405D01*
X112511890Y-57096078D01*
X112678917Y-57263105D01*
X112872421Y-57398600D01*
X113086507Y-57498429D01*
X113086516Y-57498433D01*
X113300000Y-57555634D01*
X113300000Y-56658012D01*
X113357007Y-56690925D01*
X113484174Y-56725000D01*
X113615826Y-56725000D01*
X113742993Y-56690925D01*
X113800000Y-56658012D01*
X113800000Y-57555633D01*
X114013483Y-57498433D01*
X114013492Y-57498429D01*
X114227578Y-57398600D01*
X114421082Y-57263105D01*
X114588105Y-57096082D01*
X114718119Y-56910405D01*
X114772696Y-56866781D01*
X114842195Y-56859588D01*
X114904549Y-56891110D01*
X114921269Y-56910405D01*
X115051505Y-57096401D01*
X115051506Y-57096402D01*
X115218597Y-57263493D01*
X115218603Y-57263498D01*
X115386623Y-57381147D01*
X115430248Y-57435724D01*
X115439500Y-57482722D01*
X115439500Y-68184069D01*
X115456891Y-68271496D01*
X115464499Y-68309744D01*
X115513535Y-68428127D01*
X115546681Y-68477734D01*
X115584726Y-68534673D01*
X115584727Y-68534674D01*
X116143845Y-69093791D01*
X116177330Y-69155114D01*
X116172346Y-69224805D01*
X116130475Y-69280739D01*
X116065010Y-69305156D01*
X116045362Y-69305001D01*
X116043238Y-69304815D01*
X116040000Y-69304532D01*
X116039999Y-69304532D01*
X116039998Y-69304532D01*
X115813313Y-69324364D01*
X115813302Y-69324366D01*
X115593511Y-69383258D01*
X115593502Y-69383261D01*
X115387267Y-69479431D01*
X115387265Y-69479432D01*
X115200858Y-69609954D01*
X115039954Y-69770858D01*
X114909432Y-69957265D01*
X114909431Y-69957267D01*
X114882382Y-70015275D01*
X114836209Y-70067714D01*
X114769016Y-70086866D01*
X114702135Y-70066650D01*
X114657618Y-70015275D01*
X114630686Y-69957520D01*
X114630568Y-69957266D01*
X114500047Y-69770861D01*
X114500045Y-69770858D01*
X114339141Y-69609954D01*
X114152734Y-69479432D01*
X114152732Y-69479431D01*
X113946497Y-69383261D01*
X113946488Y-69383258D01*
X113726697Y-69324366D01*
X113726693Y-69324365D01*
X113726692Y-69324365D01*
X113726691Y-69324364D01*
X113726686Y-69324364D01*
X113500002Y-69304532D01*
X113499998Y-69304532D01*
X113273313Y-69324364D01*
X113273302Y-69324366D01*
X113053511Y-69383258D01*
X113053502Y-69383261D01*
X112847267Y-69479431D01*
X112847265Y-69479432D01*
X112660858Y-69609954D01*
X112499954Y-69770858D01*
X112369432Y-69957265D01*
X112369431Y-69957267D01*
X112273261Y-70163502D01*
X112273258Y-70163511D01*
X112214366Y-70383302D01*
X112214364Y-70383313D01*
X112194532Y-70609998D01*
X112194532Y-70610001D01*
X112214364Y-70836686D01*
X112214366Y-70836697D01*
X112273258Y-71056488D01*
X112273261Y-71056497D01*
X112369431Y-71262732D01*
X112369432Y-71262734D01*
X112499954Y-71449141D01*
X112660858Y-71610045D01*
X112660861Y-71610047D01*
X112847266Y-71740568D01*
X113053504Y-71836739D01*
X113273308Y-71895635D01*
X113435230Y-71909801D01*
X113499998Y-71915468D01*
X113500000Y-71915468D01*
X113500002Y-71915468D01*
X113556673Y-71910509D01*
X113726692Y-71895635D01*
X113946496Y-71836739D01*
X114152734Y-71740568D01*
X114339139Y-71610047D01*
X114500047Y-71449139D01*
X114630568Y-71262734D01*
X114657618Y-71204724D01*
X114703790Y-71152285D01*
X114770983Y-71133133D01*
X114837865Y-71153348D01*
X114882382Y-71204725D01*
X114909429Y-71262728D01*
X114909432Y-71262734D01*
X115039954Y-71449141D01*
X115200858Y-71610045D01*
X115200861Y-71610047D01*
X115387266Y-71740568D01*
X115593504Y-71836739D01*
X115813308Y-71895635D01*
X115975230Y-71909801D01*
X116039998Y-71915468D01*
X116040000Y-71915468D01*
X116040002Y-71915468D01*
X116096673Y-71910509D01*
X116266692Y-71895635D01*
X116486496Y-71836739D01*
X116692734Y-71740568D01*
X116879139Y-71610047D01*
X117040047Y-71449139D01*
X117170568Y-71262734D01*
X117197618Y-71204724D01*
X117243790Y-71152285D01*
X117310983Y-71133133D01*
X117377865Y-71153348D01*
X117422382Y-71204725D01*
X117449429Y-71262728D01*
X117449432Y-71262734D01*
X117579954Y-71449141D01*
X117740858Y-71610045D01*
X117740861Y-71610047D01*
X117927266Y-71740568D01*
X118133504Y-71836739D01*
X118353308Y-71895635D01*
X118515230Y-71909801D01*
X118579998Y-71915468D01*
X118580000Y-71915468D01*
X118580002Y-71915468D01*
X118636673Y-71910509D01*
X118806692Y-71895635D01*
X119026496Y-71836739D01*
X119232734Y-71740568D01*
X119419139Y-71610047D01*
X119580047Y-71449139D01*
X119710568Y-71262734D01*
X119737618Y-71204724D01*
X119783790Y-71152285D01*
X119850983Y-71133133D01*
X119917865Y-71153348D01*
X119962382Y-71204725D01*
X119989429Y-71262728D01*
X119989432Y-71262734D01*
X120119954Y-71449141D01*
X120280858Y-71610045D01*
X120280861Y-71610047D01*
X120467266Y-71740568D01*
X120673504Y-71836739D01*
X120893308Y-71895635D01*
X121055230Y-71909801D01*
X121119998Y-71915468D01*
X121120000Y-71915468D01*
X121120002Y-71915468D01*
X121176673Y-71910509D01*
X121346692Y-71895635D01*
X121566496Y-71836739D01*
X121772734Y-71740568D01*
X121959139Y-71610047D01*
X122120047Y-71449139D01*
X122250568Y-71262734D01*
X122277618Y-71204724D01*
X122323790Y-71152285D01*
X122390983Y-71133133D01*
X122457865Y-71153348D01*
X122502382Y-71204725D01*
X122529429Y-71262728D01*
X122529432Y-71262734D01*
X122659954Y-71449141D01*
X122820858Y-71610045D01*
X122820861Y-71610047D01*
X123007266Y-71740568D01*
X123213504Y-71836739D01*
X123433308Y-71895635D01*
X123595230Y-71909801D01*
X123659998Y-71915468D01*
X123660000Y-71915468D01*
X123660002Y-71915468D01*
X123716673Y-71910509D01*
X123886692Y-71895635D01*
X124106496Y-71836739D01*
X124312734Y-71740568D01*
X124499139Y-71610047D01*
X124660047Y-71449139D01*
X124790568Y-71262734D01*
X124817618Y-71204724D01*
X124863790Y-71152285D01*
X124930983Y-71133133D01*
X124997865Y-71153348D01*
X125042382Y-71204725D01*
X125069429Y-71262728D01*
X125069432Y-71262734D01*
X125199954Y-71449141D01*
X125360858Y-71610045D01*
X125360861Y-71610047D01*
X125547266Y-71740568D01*
X125753504Y-71836739D01*
X125973308Y-71895635D01*
X126200000Y-71915468D01*
X126205353Y-71914999D01*
X126273852Y-71928763D01*
X126324037Y-71977376D01*
X126339973Y-72045404D01*
X126316601Y-72111249D01*
X126303845Y-72126208D01*
X113916871Y-84513181D01*
X113855548Y-84546666D01*
X113829190Y-84549500D01*
X112652129Y-84549500D01*
X112652123Y-84549501D01*
X112592516Y-84555908D01*
X112457671Y-84606202D01*
X112457664Y-84606206D01*
X112342455Y-84692452D01*
X112342452Y-84692455D01*
X112256206Y-84807664D01*
X112256202Y-84807671D01*
X112205908Y-84942517D01*
X112199501Y-85002116D01*
X112199500Y-85002135D01*
X112199500Y-86697870D01*
X112199501Y-86697876D01*
X112205908Y-86757483D01*
X112256202Y-86892328D01*
X112256206Y-86892335D01*
X112342452Y-87007544D01*
X112342455Y-87007547D01*
X112457664Y-87093793D01*
X112457671Y-87093797D01*
X112592517Y-87144091D01*
X112592516Y-87144091D01*
X112599444Y-87144835D01*
X112652127Y-87150500D01*
X114347872Y-87150499D01*
X114407483Y-87144091D01*
X114542331Y-87093796D01*
X114657546Y-87007546D01*
X114743796Y-86892331D01*
X114794091Y-86757483D01*
X114797862Y-86722401D01*
X114824599Y-86657855D01*
X114881990Y-86618006D01*
X114951816Y-86615511D01*
X115011905Y-86651163D01*
X115022726Y-86664536D01*
X115039956Y-86689143D01*
X115200858Y-86850045D01*
X115200861Y-86850047D01*
X115387266Y-86980568D01*
X115593504Y-87076739D01*
X115813308Y-87135635D01*
X115957921Y-87148287D01*
X116039998Y-87155468D01*
X116040000Y-87155468D01*
X116040002Y-87155468D01*
X116096807Y-87150498D01*
X116266692Y-87135635D01*
X116486496Y-87076739D01*
X116692734Y-86980568D01*
X116879139Y-86850047D01*
X117040047Y-86689139D01*
X117170568Y-86502734D01*
X117197618Y-86444724D01*
X117243790Y-86392285D01*
X117310983Y-86373133D01*
X117377865Y-86393348D01*
X117422382Y-86444725D01*
X117449429Y-86502728D01*
X117449432Y-86502734D01*
X117579954Y-86689141D01*
X117740858Y-86850045D01*
X117740861Y-86850047D01*
X117927266Y-86980568D01*
X118133504Y-87076739D01*
X118353308Y-87135635D01*
X118497921Y-87148287D01*
X118579998Y-87155468D01*
X118580000Y-87155468D01*
X118580002Y-87155468D01*
X118636807Y-87150498D01*
X118806692Y-87135635D01*
X119026496Y-87076739D01*
X119232734Y-86980568D01*
X119419139Y-86850047D01*
X119580047Y-86689139D01*
X119710568Y-86502734D01*
X119737618Y-86444724D01*
X119783790Y-86392285D01*
X119850983Y-86373133D01*
X119917865Y-86393348D01*
X119962382Y-86444725D01*
X119989429Y-86502728D01*
X119989432Y-86502734D01*
X120119954Y-86689141D01*
X120280858Y-86850045D01*
X120280861Y-86850047D01*
X120467266Y-86980568D01*
X120673504Y-87076739D01*
X120893308Y-87135635D01*
X121037921Y-87148287D01*
X121119998Y-87155468D01*
X121120000Y-87155468D01*
X121120002Y-87155468D01*
X121176807Y-87150498D01*
X121346692Y-87135635D01*
X121566496Y-87076739D01*
X121772734Y-86980568D01*
X121959139Y-86850047D01*
X122120047Y-86689139D01*
X122250568Y-86502734D01*
X122277618Y-86444724D01*
X122323790Y-86392285D01*
X122390983Y-86373133D01*
X122457865Y-86393348D01*
X122502382Y-86444725D01*
X122529429Y-86502728D01*
X122529432Y-86502734D01*
X122659954Y-86689141D01*
X122820858Y-86850045D01*
X122820861Y-86850047D01*
X123007266Y-86980568D01*
X123213504Y-87076739D01*
X123433308Y-87135635D01*
X123577921Y-87148287D01*
X123659998Y-87155468D01*
X123660000Y-87155468D01*
X123660002Y-87155468D01*
X123716807Y-87150498D01*
X123886692Y-87135635D01*
X124106496Y-87076739D01*
X124312734Y-86980568D01*
X124499139Y-86850047D01*
X124660047Y-86689139D01*
X124790568Y-86502734D01*
X124817618Y-86444724D01*
X124863790Y-86392285D01*
X124930983Y-86373133D01*
X124997865Y-86393348D01*
X125042382Y-86444725D01*
X125069429Y-86502728D01*
X125069432Y-86502734D01*
X125199954Y-86689141D01*
X125360858Y-86850045D01*
X125360861Y-86850047D01*
X125547266Y-86980568D01*
X125753504Y-87076739D01*
X125973308Y-87135635D01*
X126117921Y-87148287D01*
X126199998Y-87155468D01*
X126200000Y-87155468D01*
X126200002Y-87155468D01*
X126256807Y-87150498D01*
X126426692Y-87135635D01*
X126646496Y-87076739D01*
X126852734Y-86980568D01*
X127039139Y-86850047D01*
X127200047Y-86689139D01*
X127330568Y-86502734D01*
X127357618Y-86444724D01*
X127403790Y-86392285D01*
X127470983Y-86373133D01*
X127537865Y-86393348D01*
X127582382Y-86444725D01*
X127609429Y-86502728D01*
X127609432Y-86502734D01*
X127739954Y-86689141D01*
X127900858Y-86850045D01*
X127900861Y-86850047D01*
X128087266Y-86980568D01*
X128293504Y-87076739D01*
X128513308Y-87135635D01*
X128657921Y-87148287D01*
X128739998Y-87155468D01*
X128740000Y-87155468D01*
X128740002Y-87155468D01*
X128796807Y-87150498D01*
X128966692Y-87135635D01*
X129186496Y-87076739D01*
X129392734Y-86980568D01*
X129579139Y-86850047D01*
X129740047Y-86689139D01*
X129870568Y-86502734D01*
X129897618Y-86444724D01*
X129943790Y-86392285D01*
X130010983Y-86373133D01*
X130077865Y-86393348D01*
X130122382Y-86444725D01*
X130149429Y-86502728D01*
X130149432Y-86502734D01*
X130279954Y-86689141D01*
X130440858Y-86850045D01*
X130440861Y-86850047D01*
X130627266Y-86980568D01*
X130833504Y-87076739D01*
X131053308Y-87135635D01*
X131197921Y-87148287D01*
X131279998Y-87155468D01*
X131280000Y-87155468D01*
X131280002Y-87155468D01*
X131336807Y-87150498D01*
X131506692Y-87135635D01*
X131726496Y-87076739D01*
X131932734Y-86980568D01*
X132119139Y-86850047D01*
X132280047Y-86689139D01*
X132410568Y-86502734D01*
X132437618Y-86444724D01*
X132483790Y-86392285D01*
X132550983Y-86373133D01*
X132617865Y-86393348D01*
X132662382Y-86444725D01*
X132689429Y-86502728D01*
X132689432Y-86502734D01*
X132819954Y-86689141D01*
X132980858Y-86850045D01*
X132980861Y-86850047D01*
X133167266Y-86980568D01*
X133373504Y-87076739D01*
X133593308Y-87135635D01*
X133737921Y-87148287D01*
X133819998Y-87155468D01*
X133820000Y-87155468D01*
X133820002Y-87155468D01*
X133876807Y-87150498D01*
X134046692Y-87135635D01*
X134266496Y-87076739D01*
X134472734Y-86980568D01*
X134659139Y-86850047D01*
X134820047Y-86689139D01*
X134950568Y-86502734D01*
X134977618Y-86444724D01*
X135023790Y-86392285D01*
X135090983Y-86373133D01*
X135157865Y-86393348D01*
X135202382Y-86444725D01*
X135229429Y-86502728D01*
X135229432Y-86502734D01*
X135359954Y-86689141D01*
X135520858Y-86850045D01*
X135520861Y-86850047D01*
X135707266Y-86980568D01*
X135913504Y-87076739D01*
X136133308Y-87135635D01*
X136277921Y-87148287D01*
X136359998Y-87155468D01*
X136360000Y-87155468D01*
X136360002Y-87155468D01*
X136416807Y-87150498D01*
X136586692Y-87135635D01*
X136806496Y-87076739D01*
X137012734Y-86980568D01*
X137199139Y-86850047D01*
X137360047Y-86689139D01*
X137490568Y-86502734D01*
X137517618Y-86444724D01*
X137563790Y-86392285D01*
X137630983Y-86373133D01*
X137697865Y-86393348D01*
X137742382Y-86444725D01*
X137769429Y-86502728D01*
X137769432Y-86502734D01*
X137899954Y-86689141D01*
X138060858Y-86850045D01*
X138060861Y-86850047D01*
X138247266Y-86980568D01*
X138453504Y-87076739D01*
X138584816Y-87111923D01*
X138644475Y-87148287D01*
X138675005Y-87211134D01*
X138666711Y-87280510D01*
X138622226Y-87334388D01*
X138584816Y-87351473D01*
X138503509Y-87373259D01*
X138503502Y-87373261D01*
X138297267Y-87469431D01*
X138297265Y-87469432D01*
X138110858Y-87599954D01*
X137949954Y-87760858D01*
X137819432Y-87947265D01*
X137819431Y-87947267D01*
X137723261Y-88153502D01*
X137723258Y-88153511D01*
X137664366Y-88373302D01*
X137664364Y-88373313D01*
X137644532Y-88599998D01*
X137644532Y-88600001D01*
X137664364Y-88826686D01*
X137664366Y-88826697D01*
X137723258Y-89046488D01*
X137723261Y-89046497D01*
X137819431Y-89252732D01*
X137819432Y-89252734D01*
X137949954Y-89439141D01*
X138110858Y-89600045D01*
X138110861Y-89600047D01*
X138297266Y-89730568D01*
X138312975Y-89737893D01*
X138365414Y-89784064D01*
X138384567Y-89851257D01*
X138364352Y-89918138D01*
X138312979Y-89962656D01*
X138297514Y-89969867D01*
X138297512Y-89969868D01*
X138224526Y-90020973D01*
X138224526Y-90020974D01*
X138903553Y-90700000D01*
X138897339Y-90700000D01*
X138795606Y-90727259D01*
X138704394Y-90779920D01*
X138629920Y-90854394D01*
X138577259Y-90945606D01*
X138550000Y-91047339D01*
X138550000Y-91053552D01*
X137870974Y-90374526D01*
X137870973Y-90374526D01*
X137819868Y-90447512D01*
X137819866Y-90447516D01*
X137723734Y-90653673D01*
X137723730Y-90653682D01*
X137664860Y-90873389D01*
X137664858Y-90873400D01*
X137645034Y-91099997D01*
X137645034Y-91100002D01*
X137664858Y-91326599D01*
X137664860Y-91326610D01*
X137723730Y-91546317D01*
X137723735Y-91546331D01*
X137819863Y-91752478D01*
X137870974Y-91825472D01*
X138550000Y-91146446D01*
X138550000Y-91152661D01*
X138577259Y-91254394D01*
X138629920Y-91345606D01*
X138704394Y-91420080D01*
X138795606Y-91472741D01*
X138897339Y-91500000D01*
X138903553Y-91500000D01*
X138224526Y-92179025D01*
X138297513Y-92230132D01*
X138297521Y-92230136D01*
X138503668Y-92326264D01*
X138503682Y-92326269D01*
X138723389Y-92385139D01*
X138723400Y-92385141D01*
X138949998Y-92404966D01*
X138950002Y-92404966D01*
X139176599Y-92385141D01*
X139176610Y-92385139D01*
X139396317Y-92326269D01*
X139396331Y-92326264D01*
X139602478Y-92230136D01*
X139675471Y-92179024D01*
X138996447Y-91500000D01*
X139002661Y-91500000D01*
X139104394Y-91472741D01*
X139195606Y-91420080D01*
X139270080Y-91345606D01*
X139322741Y-91254394D01*
X139350000Y-91152661D01*
X139350000Y-91146447D01*
X140029024Y-91825471D01*
X140080136Y-91752478D01*
X140176264Y-91546331D01*
X140176269Y-91546317D01*
X140235139Y-91326610D01*
X140235141Y-91326599D01*
X140254966Y-91100002D01*
X140254966Y-91099997D01*
X140235141Y-90873400D01*
X140235139Y-90873389D01*
X140176269Y-90653682D01*
X140176264Y-90653668D01*
X140080136Y-90447521D01*
X140080132Y-90447513D01*
X140029025Y-90374526D01*
X139350000Y-91053551D01*
X139350000Y-91047339D01*
X139322741Y-90945606D01*
X139270080Y-90854394D01*
X139195606Y-90779920D01*
X139104394Y-90727259D01*
X139002661Y-90700000D01*
X138996448Y-90700000D01*
X139675472Y-90020974D01*
X139602480Y-89969864D01*
X139587024Y-89962657D01*
X139534585Y-89916484D01*
X139515433Y-89849290D01*
X139535649Y-89782409D01*
X139587023Y-89737893D01*
X139602734Y-89730568D01*
X139789139Y-89600047D01*
X139950047Y-89439139D01*
X140080568Y-89252734D01*
X140176739Y-89046496D01*
X140235635Y-88826692D01*
X140255468Y-88600000D01*
X140235635Y-88373308D01*
X140176739Y-88153504D01*
X140080568Y-87947266D01*
X139950047Y-87760861D01*
X139950045Y-87760858D01*
X139789141Y-87599954D01*
X139602734Y-87469432D01*
X139602732Y-87469431D01*
X139396497Y-87373261D01*
X139396488Y-87373258D01*
X139265184Y-87338076D01*
X139205523Y-87301711D01*
X139174994Y-87238864D01*
X139183289Y-87169489D01*
X139227774Y-87115611D01*
X139265185Y-87098526D01*
X139346486Y-87076742D01*
X139346489Y-87076740D01*
X139346496Y-87076739D01*
X139552734Y-86980568D01*
X139739139Y-86850047D01*
X139900047Y-86689139D01*
X140030568Y-86502734D01*
X140057895Y-86444129D01*
X140104064Y-86391695D01*
X140171257Y-86372542D01*
X140238139Y-86392757D01*
X140282657Y-86444133D01*
X140309865Y-86502482D01*
X140440342Y-86688820D01*
X140601179Y-86849657D01*
X140787517Y-86980134D01*
X140993673Y-87076265D01*
X140993682Y-87076269D01*
X141189999Y-87128872D01*
X141190000Y-87128871D01*
X141190000Y-86165686D01*
X141194394Y-86170080D01*
X141285606Y-86222741D01*
X141387339Y-86250000D01*
X141492661Y-86250000D01*
X141594394Y-86222741D01*
X141685606Y-86170080D01*
X141690000Y-86165686D01*
X141690000Y-87128872D01*
X141886317Y-87076269D01*
X141886326Y-87076265D01*
X142092482Y-86980134D01*
X142278820Y-86849657D01*
X142439657Y-86688820D01*
X142570132Y-86502484D01*
X142597341Y-86444134D01*
X142643513Y-86391695D01*
X142710707Y-86372542D01*
X142777588Y-86392757D01*
X142822106Y-86444133D01*
X142849431Y-86502732D01*
X142849432Y-86502734D01*
X142979954Y-86689141D01*
X143140858Y-86850045D01*
X143140861Y-86850047D01*
X143327266Y-86980568D01*
X143533504Y-87076739D01*
X143753308Y-87135635D01*
X143897921Y-87148287D01*
X143979998Y-87155468D01*
X143980000Y-87155468D01*
X143980002Y-87155468D01*
X144036807Y-87150498D01*
X144206692Y-87135635D01*
X144426496Y-87076739D01*
X144632734Y-86980568D01*
X144819139Y-86850047D01*
X144980047Y-86689139D01*
X145110568Y-86502734D01*
X145137618Y-86444724D01*
X145183790Y-86392285D01*
X145250983Y-86373133D01*
X145317865Y-86393348D01*
X145362382Y-86444725D01*
X145389429Y-86502728D01*
X145389432Y-86502734D01*
X145519954Y-86689141D01*
X145680858Y-86850045D01*
X145680861Y-86850047D01*
X145867266Y-86980568D01*
X146073504Y-87076739D01*
X146293308Y-87135635D01*
X146479348Y-87151911D01*
X146544416Y-87177363D01*
X146585395Y-87233954D01*
X146589273Y-87303716D01*
X146556221Y-87363120D01*
X144840885Y-89078456D01*
X144777022Y-89174036D01*
X144764230Y-89193180D01*
X144764223Y-89193192D01*
X144711420Y-89320671D01*
X144711418Y-89320677D01*
X144684500Y-89456004D01*
X144684500Y-114202288D01*
X144664815Y-114269327D01*
X144631624Y-114303863D01*
X144513594Y-114386508D01*
X144346505Y-114553597D01*
X144216575Y-114739158D01*
X144161998Y-114782783D01*
X144092500Y-114789977D01*
X144030145Y-114758454D01*
X144013425Y-114739158D01*
X143883494Y-114553597D01*
X143716402Y-114386506D01*
X143716395Y-114386501D01*
X143522834Y-114250967D01*
X143522830Y-114250965D01*
X143519225Y-114249284D01*
X143308663Y-114151097D01*
X143308659Y-114151096D01*
X143308655Y-114151094D01*
X143080413Y-114089938D01*
X143080403Y-114089936D01*
X142845001Y-114069341D01*
X142844999Y-114069341D01*
X142609596Y-114089936D01*
X142609586Y-114089938D01*
X142381344Y-114151094D01*
X142381335Y-114151098D01*
X142167171Y-114250964D01*
X142167169Y-114250965D01*
X141973597Y-114386505D01*
X141806505Y-114553597D01*
X141676575Y-114739158D01*
X141621998Y-114782783D01*
X141552500Y-114789977D01*
X141490145Y-114758454D01*
X141473425Y-114739158D01*
X141343494Y-114553597D01*
X141176402Y-114386506D01*
X141176395Y-114386501D01*
X140982834Y-114250967D01*
X140982830Y-114250965D01*
X140979225Y-114249284D01*
X140768663Y-114151097D01*
X140768659Y-114151096D01*
X140768655Y-114151094D01*
X140540413Y-114089938D01*
X140540403Y-114089936D01*
X140305001Y-114069341D01*
X140304999Y-114069341D01*
X140069596Y-114089936D01*
X140069586Y-114089938D01*
X139841344Y-114151094D01*
X139841335Y-114151098D01*
X139627171Y-114250964D01*
X139627169Y-114250965D01*
X139433597Y-114386505D01*
X139266505Y-114553597D01*
X139136575Y-114739158D01*
X139081998Y-114782783D01*
X139012500Y-114789977D01*
X138950145Y-114758454D01*
X138933425Y-114739158D01*
X138803494Y-114553597D01*
X138636402Y-114386506D01*
X138636395Y-114386501D01*
X138442834Y-114250967D01*
X138442830Y-114250965D01*
X138439225Y-114249284D01*
X138228663Y-114151097D01*
X138228659Y-114151096D01*
X138228655Y-114151094D01*
X138000413Y-114089938D01*
X138000403Y-114089936D01*
X137765001Y-114069341D01*
X137764999Y-114069341D01*
X137529596Y-114089936D01*
X137529586Y-114089938D01*
X137301344Y-114151094D01*
X137301335Y-114151098D01*
X137087171Y-114250964D01*
X137087169Y-114250965D01*
X136893597Y-114386505D01*
X136726505Y-114553597D01*
X136596575Y-114739158D01*
X136541998Y-114782783D01*
X136472500Y-114789977D01*
X136410145Y-114758454D01*
X136393425Y-114739158D01*
X136263494Y-114553597D01*
X136096402Y-114386506D01*
X136096395Y-114386501D01*
X135902834Y-114250967D01*
X135902830Y-114250965D01*
X135899225Y-114249284D01*
X135688663Y-114151097D01*
X135688659Y-114151096D01*
X135688655Y-114151094D01*
X135460413Y-114089938D01*
X135460403Y-114089936D01*
X135225001Y-114069341D01*
X135224999Y-114069341D01*
X134989596Y-114089936D01*
X134989586Y-114089938D01*
X134761344Y-114151094D01*
X134761335Y-114151098D01*
X134547171Y-114250964D01*
X134547169Y-114250965D01*
X134353597Y-114386505D01*
X134186505Y-114553597D01*
X134056575Y-114739158D01*
X134001998Y-114782783D01*
X133932500Y-114789977D01*
X133870145Y-114758454D01*
X133853425Y-114739158D01*
X133723494Y-114553597D01*
X133556402Y-114386506D01*
X133556395Y-114386501D01*
X133362834Y-114250967D01*
X133362830Y-114250965D01*
X133359225Y-114249284D01*
X133148663Y-114151097D01*
X133148659Y-114151096D01*
X133148655Y-114151094D01*
X132920413Y-114089938D01*
X132920403Y-114089936D01*
X132685001Y-114069341D01*
X132684999Y-114069341D01*
X132449596Y-114089936D01*
X132449586Y-114089938D01*
X132221344Y-114151094D01*
X132221335Y-114151098D01*
X132007171Y-114250964D01*
X132007169Y-114250965D01*
X131813597Y-114386505D01*
X131646505Y-114553597D01*
X131516575Y-114739158D01*
X131461998Y-114782783D01*
X131392500Y-114789977D01*
X131330145Y-114758454D01*
X131313425Y-114739158D01*
X131183494Y-114553597D01*
X131016402Y-114386506D01*
X131016395Y-114386501D01*
X130822834Y-114250967D01*
X130822830Y-114250965D01*
X130819225Y-114249284D01*
X130608663Y-114151097D01*
X130608659Y-114151096D01*
X130608655Y-114151094D01*
X130380413Y-114089938D01*
X130380403Y-114089936D01*
X130145001Y-114069341D01*
X130144999Y-114069341D01*
X129909596Y-114089936D01*
X129909586Y-114089938D01*
X129681344Y-114151094D01*
X129681335Y-114151098D01*
X129467171Y-114250964D01*
X129467169Y-114250965D01*
X129273597Y-114386505D01*
X129106505Y-114553597D01*
X128976575Y-114739158D01*
X128921998Y-114782783D01*
X128852500Y-114789977D01*
X128790145Y-114758454D01*
X128773425Y-114739158D01*
X128643494Y-114553597D01*
X128476402Y-114386506D01*
X128476395Y-114386501D01*
X128282834Y-114250967D01*
X128282830Y-114250965D01*
X128279225Y-114249284D01*
X128068663Y-114151097D01*
X128068659Y-114151096D01*
X128068655Y-114151094D01*
X127840413Y-114089938D01*
X127840403Y-114089936D01*
X127605001Y-114069341D01*
X127604999Y-114069341D01*
X127369596Y-114089936D01*
X127369586Y-114089938D01*
X127141344Y-114151094D01*
X127141335Y-114151098D01*
X126927171Y-114250964D01*
X126927169Y-114250965D01*
X126733597Y-114386505D01*
X126566505Y-114553597D01*
X126436575Y-114739158D01*
X126381998Y-114782783D01*
X126312500Y-114789977D01*
X126250145Y-114758454D01*
X126233425Y-114739158D01*
X126103494Y-114553597D01*
X125936402Y-114386506D01*
X125936395Y-114386501D01*
X125742834Y-114250967D01*
X125742830Y-114250965D01*
X125739225Y-114249284D01*
X125528663Y-114151097D01*
X125528659Y-114151096D01*
X125528655Y-114151094D01*
X125300413Y-114089938D01*
X125300403Y-114089936D01*
X125065001Y-114069341D01*
X125064999Y-114069341D01*
X124829596Y-114089936D01*
X124829586Y-114089938D01*
X124601344Y-114151094D01*
X124601335Y-114151098D01*
X124387171Y-114250964D01*
X124387169Y-114250965D01*
X124193597Y-114386505D01*
X124026505Y-114553597D01*
X123896575Y-114739158D01*
X123841998Y-114782783D01*
X123772500Y-114789977D01*
X123710145Y-114758454D01*
X123693425Y-114739158D01*
X123563494Y-114553597D01*
X123396402Y-114386506D01*
X123396395Y-114386501D01*
X123202834Y-114250967D01*
X123202830Y-114250965D01*
X123199225Y-114249284D01*
X122988663Y-114151097D01*
X122988659Y-114151096D01*
X122988655Y-114151094D01*
X122760413Y-114089938D01*
X122760403Y-114089936D01*
X122525001Y-114069341D01*
X122524999Y-114069341D01*
X122289596Y-114089936D01*
X122289586Y-114089938D01*
X122061344Y-114151094D01*
X122061335Y-114151098D01*
X121847171Y-114250964D01*
X121847169Y-114250965D01*
X121653597Y-114386505D01*
X121486508Y-114553594D01*
X121356269Y-114739595D01*
X121301692Y-114783219D01*
X121232193Y-114790412D01*
X121169839Y-114758890D01*
X121153119Y-114739594D01*
X121023113Y-114553926D01*
X121023108Y-114553920D01*
X120856082Y-114386894D01*
X120662578Y-114251399D01*
X120448492Y-114151570D01*
X120448486Y-114151567D01*
X120235000Y-114094364D01*
X120235000Y-114991988D01*
X120177993Y-114959075D01*
X120050826Y-114925000D01*
X119919174Y-114925000D01*
X119792007Y-114959075D01*
X119735000Y-114991988D01*
X119735000Y-114094364D01*
X119734999Y-114094364D01*
X119521513Y-114151567D01*
X119521507Y-114151570D01*
X119307422Y-114251399D01*
X119307420Y-114251400D01*
X119113926Y-114386886D01*
X119113920Y-114386891D01*
X118946891Y-114553920D01*
X118946890Y-114553922D01*
X118816880Y-114739595D01*
X118762303Y-114783219D01*
X118692804Y-114790412D01*
X118630450Y-114758890D01*
X118613730Y-114739594D01*
X118483494Y-114553597D01*
X118316402Y-114386506D01*
X118316395Y-114386501D01*
X118122834Y-114250967D01*
X118122830Y-114250965D01*
X118119225Y-114249284D01*
X117908663Y-114151097D01*
X117908659Y-114151096D01*
X117908655Y-114151094D01*
X117680413Y-114089938D01*
X117680403Y-114089936D01*
X117445001Y-114069341D01*
X117444999Y-114069341D01*
X117209596Y-114089936D01*
X117209586Y-114089938D01*
X116981344Y-114151094D01*
X116981335Y-114151098D01*
X116767171Y-114250964D01*
X116767169Y-114250965D01*
X116573600Y-114386503D01*
X116451673Y-114508430D01*
X116390350Y-114541914D01*
X116320658Y-114536930D01*
X116264725Y-114495058D01*
X116247810Y-114464081D01*
X116198797Y-114332671D01*
X116198793Y-114332664D01*
X116112547Y-114217455D01*
X116112544Y-114217452D01*
X115997335Y-114131206D01*
X115997328Y-114131202D01*
X115862482Y-114080908D01*
X115862483Y-114080908D01*
X115802883Y-114074501D01*
X115802881Y-114074500D01*
X115802873Y-114074500D01*
X115802864Y-114074500D01*
X114007129Y-114074500D01*
X114007123Y-114074501D01*
X113947516Y-114080908D01*
X113812671Y-114131202D01*
X113812664Y-114131206D01*
X113697455Y-114217452D01*
X113697452Y-114217455D01*
X113611206Y-114332664D01*
X113611202Y-114332671D01*
X113560908Y-114467517D01*
X113554501Y-114527116D01*
X113554500Y-114527135D01*
X113554500Y-116322870D01*
X113554501Y-116322876D01*
X113560908Y-116382483D01*
X113611202Y-116517328D01*
X113611206Y-116517335D01*
X113697452Y-116632544D01*
X113697455Y-116632547D01*
X113812664Y-116718793D01*
X113812671Y-116718797D01*
X113947517Y-116769091D01*
X113947516Y-116769091D01*
X113954444Y-116769835D01*
X114007127Y-116775500D01*
X115802872Y-116775499D01*
X115862483Y-116769091D01*
X115997331Y-116718796D01*
X116112546Y-116632546D01*
X116198796Y-116517331D01*
X116247810Y-116385916D01*
X116289681Y-116329984D01*
X116355145Y-116305566D01*
X116423418Y-116320417D01*
X116451673Y-116341569D01*
X116573599Y-116463495D01*
X116670384Y-116531265D01*
X116767165Y-116599032D01*
X116767167Y-116599033D01*
X116767170Y-116599035D01*
X116981337Y-116698903D01*
X117209592Y-116760063D01*
X117386034Y-116775500D01*
X117444999Y-116780659D01*
X117445000Y-116780659D01*
X117445001Y-116780659D01*
X117503966Y-116775500D01*
X117680408Y-116760063D01*
X117908663Y-116698903D01*
X118122830Y-116599035D01*
X118316401Y-116463495D01*
X118483495Y-116296401D01*
X118613730Y-116110405D01*
X118668307Y-116066781D01*
X118737805Y-116059587D01*
X118800160Y-116091110D01*
X118816879Y-116110405D01*
X118946890Y-116296078D01*
X119113917Y-116463105D01*
X119307421Y-116598600D01*
X119521507Y-116698429D01*
X119521516Y-116698433D01*
X119735000Y-116755634D01*
X119735000Y-115858012D01*
X119792007Y-115890925D01*
X119919174Y-115925000D01*
X120050826Y-115925000D01*
X120177993Y-115890925D01*
X120235000Y-115858012D01*
X120235000Y-116755633D01*
X120448483Y-116698433D01*
X120448492Y-116698429D01*
X120662578Y-116598600D01*
X120856082Y-116463105D01*
X121023105Y-116296082D01*
X121153119Y-116110405D01*
X121207696Y-116066781D01*
X121277195Y-116059588D01*
X121339549Y-116091110D01*
X121356269Y-116110405D01*
X121486505Y-116296401D01*
X121653599Y-116463495D01*
X121750384Y-116531265D01*
X121847165Y-116599032D01*
X121847167Y-116599033D01*
X121847170Y-116599035D01*
X122061337Y-116698903D01*
X122289592Y-116760063D01*
X122466034Y-116775500D01*
X122524999Y-116780659D01*
X122525000Y-116780659D01*
X122525001Y-116780659D01*
X122583966Y-116775500D01*
X122760408Y-116760063D01*
X122988663Y-116698903D01*
X123202830Y-116599035D01*
X123396401Y-116463495D01*
X123563495Y-116296401D01*
X123693425Y-116110842D01*
X123748002Y-116067217D01*
X123817500Y-116060023D01*
X123879855Y-116091546D01*
X123896575Y-116110842D01*
X124026500Y-116296395D01*
X124026505Y-116296401D01*
X124193599Y-116463495D01*
X124290384Y-116531265D01*
X124387165Y-116599032D01*
X124387167Y-116599033D01*
X124387170Y-116599035D01*
X124601337Y-116698903D01*
X124829592Y-116760063D01*
X125006034Y-116775500D01*
X125064999Y-116780659D01*
X125065000Y-116780659D01*
X125065001Y-116780659D01*
X125123966Y-116775500D01*
X125300408Y-116760063D01*
X125528663Y-116698903D01*
X125742830Y-116599035D01*
X125936401Y-116463495D01*
X126103495Y-116296401D01*
X126233425Y-116110842D01*
X126288002Y-116067217D01*
X126357500Y-116060023D01*
X126419855Y-116091546D01*
X126436575Y-116110842D01*
X126566500Y-116296395D01*
X126566505Y-116296401D01*
X126733599Y-116463495D01*
X126830384Y-116531265D01*
X126927165Y-116599032D01*
X126927167Y-116599033D01*
X126927170Y-116599035D01*
X127141337Y-116698903D01*
X127369592Y-116760063D01*
X127546034Y-116775500D01*
X127604999Y-116780659D01*
X127605000Y-116780659D01*
X127605001Y-116780659D01*
X127663966Y-116775500D01*
X127840408Y-116760063D01*
X128068663Y-116698903D01*
X128282830Y-116599035D01*
X128476401Y-116463495D01*
X128643495Y-116296401D01*
X128773425Y-116110842D01*
X128828002Y-116067217D01*
X128897500Y-116060023D01*
X128959855Y-116091546D01*
X128976575Y-116110842D01*
X129106500Y-116296395D01*
X129106505Y-116296401D01*
X129273599Y-116463495D01*
X129370384Y-116531265D01*
X129467165Y-116599032D01*
X129467167Y-116599033D01*
X129467170Y-116599035D01*
X129681337Y-116698903D01*
X129909592Y-116760063D01*
X130086034Y-116775500D01*
X130144999Y-116780659D01*
X130145000Y-116780659D01*
X130145001Y-116780659D01*
X130203966Y-116775500D01*
X130380408Y-116760063D01*
X130608663Y-116698903D01*
X130822830Y-116599035D01*
X131016401Y-116463495D01*
X131183495Y-116296401D01*
X131313425Y-116110842D01*
X131368002Y-116067217D01*
X131437500Y-116060023D01*
X131499855Y-116091546D01*
X131516575Y-116110842D01*
X131646500Y-116296395D01*
X131646505Y-116296401D01*
X131813599Y-116463495D01*
X131910384Y-116531265D01*
X132007165Y-116599032D01*
X132007167Y-116599033D01*
X132007170Y-116599035D01*
X132221337Y-116698903D01*
X132449592Y-116760063D01*
X132626034Y-116775500D01*
X132684999Y-116780659D01*
X132685000Y-116780659D01*
X132685001Y-116780659D01*
X132743966Y-116775500D01*
X132920408Y-116760063D01*
X133148663Y-116698903D01*
X133362830Y-116599035D01*
X133556401Y-116463495D01*
X133723495Y-116296401D01*
X133853425Y-116110842D01*
X133908002Y-116067217D01*
X133977500Y-116060023D01*
X134039855Y-116091546D01*
X134056575Y-116110842D01*
X134186500Y-116296395D01*
X134186505Y-116296401D01*
X134353599Y-116463495D01*
X134450384Y-116531265D01*
X134547165Y-116599032D01*
X134547167Y-116599033D01*
X134547170Y-116599035D01*
X134761337Y-116698903D01*
X134989592Y-116760063D01*
X135166034Y-116775500D01*
X135224999Y-116780659D01*
X135225000Y-116780659D01*
X135225001Y-116780659D01*
X135283966Y-116775500D01*
X135460408Y-116760063D01*
X135688663Y-116698903D01*
X135902830Y-116599035D01*
X136096401Y-116463495D01*
X136263495Y-116296401D01*
X136393425Y-116110842D01*
X136448002Y-116067217D01*
X136517500Y-116060023D01*
X136579855Y-116091546D01*
X136596575Y-116110842D01*
X136726500Y-116296395D01*
X136726505Y-116296401D01*
X136893599Y-116463495D01*
X136990384Y-116531265D01*
X137087165Y-116599032D01*
X137087167Y-116599033D01*
X137087170Y-116599035D01*
X137301337Y-116698903D01*
X137529592Y-116760063D01*
X137706034Y-116775500D01*
X137764999Y-116780659D01*
X137765000Y-116780659D01*
X137765001Y-116780659D01*
X137823966Y-116775500D01*
X138000408Y-116760063D01*
X138228663Y-116698903D01*
X138442830Y-116599035D01*
X138636401Y-116463495D01*
X138803495Y-116296401D01*
X138933425Y-116110842D01*
X138988002Y-116067217D01*
X139057500Y-116060023D01*
X139119855Y-116091546D01*
X139136575Y-116110842D01*
X139266500Y-116296395D01*
X139266505Y-116296401D01*
X139433599Y-116463495D01*
X139530384Y-116531265D01*
X139627165Y-116599032D01*
X139627167Y-116599033D01*
X139627170Y-116599035D01*
X139841337Y-116698903D01*
X140069592Y-116760063D01*
X140246034Y-116775500D01*
X140304999Y-116780659D01*
X140305000Y-116780659D01*
X140305001Y-116780659D01*
X140363966Y-116775500D01*
X140540408Y-116760063D01*
X140768663Y-116698903D01*
X140982830Y-116599035D01*
X141176401Y-116463495D01*
X141343495Y-116296401D01*
X141473425Y-116110842D01*
X141528002Y-116067217D01*
X141597500Y-116060023D01*
X141659855Y-116091546D01*
X141676575Y-116110842D01*
X141806500Y-116296395D01*
X141806505Y-116296401D01*
X141973599Y-116463495D01*
X142070384Y-116531265D01*
X142167165Y-116599032D01*
X142167167Y-116599033D01*
X142167170Y-116599035D01*
X142381337Y-116698903D01*
X142609592Y-116760063D01*
X142786034Y-116775500D01*
X142844999Y-116780659D01*
X142845000Y-116780659D01*
X142845001Y-116780659D01*
X142903966Y-116775500D01*
X143080408Y-116760063D01*
X143308663Y-116698903D01*
X143522830Y-116599035D01*
X143716401Y-116463495D01*
X143883495Y-116296401D01*
X144013425Y-116110842D01*
X144068002Y-116067217D01*
X144137500Y-116060023D01*
X144199855Y-116091546D01*
X144216575Y-116110842D01*
X144346500Y-116296395D01*
X144346505Y-116296401D01*
X144513599Y-116463495D01*
X144610384Y-116531265D01*
X144707165Y-116599032D01*
X144707167Y-116599033D01*
X144707170Y-116599035D01*
X144921337Y-116698903D01*
X145149592Y-116760063D01*
X145326034Y-116775500D01*
X145384999Y-116780659D01*
X145385000Y-116780659D01*
X145385001Y-116780659D01*
X145443966Y-116775500D01*
X145620408Y-116760063D01*
X145848663Y-116698903D01*
X146062830Y-116599035D01*
X146256401Y-116463495D01*
X146423495Y-116296401D01*
X146553730Y-116110405D01*
X146608307Y-116066781D01*
X146677805Y-116059587D01*
X146740160Y-116091110D01*
X146756879Y-116110405D01*
X146886890Y-116296078D01*
X147053917Y-116463105D01*
X147247421Y-116598600D01*
X147461507Y-116698429D01*
X147461516Y-116698433D01*
X147675000Y-116755634D01*
X147675000Y-115858012D01*
X147732007Y-115890925D01*
X147859174Y-115925000D01*
X147990826Y-115925000D01*
X148117993Y-115890925D01*
X148175000Y-115858012D01*
X148175000Y-116755633D01*
X148388483Y-116698433D01*
X148388492Y-116698429D01*
X148602578Y-116598600D01*
X148796082Y-116463105D01*
X148963105Y-116296082D01*
X149093425Y-116109968D01*
X149148002Y-116066344D01*
X149217501Y-116059151D01*
X149279855Y-116090673D01*
X149296575Y-116109968D01*
X149426894Y-116296082D01*
X149593917Y-116463105D01*
X149787421Y-116598600D01*
X150001507Y-116698429D01*
X150001516Y-116698433D01*
X150215000Y-116755634D01*
X150215000Y-115858012D01*
X150272007Y-115890925D01*
X150399174Y-115925000D01*
X150530826Y-115925000D01*
X150657993Y-115890925D01*
X150715000Y-115858012D01*
X150715000Y-116755633D01*
X150928483Y-116698433D01*
X150928492Y-116698429D01*
X151142578Y-116598600D01*
X151336082Y-116463105D01*
X151503105Y-116296082D01*
X151633119Y-116110405D01*
X151687696Y-116066781D01*
X151757195Y-116059588D01*
X151819549Y-116091110D01*
X151836269Y-116110405D01*
X151966505Y-116296401D01*
X152133599Y-116463495D01*
X152230384Y-116531265D01*
X152327165Y-116599032D01*
X152327167Y-116599033D01*
X152327170Y-116599035D01*
X152541337Y-116698903D01*
X152769592Y-116760063D01*
X152946034Y-116775500D01*
X153004999Y-116780659D01*
X153005000Y-116780659D01*
X153005001Y-116780659D01*
X153063966Y-116775500D01*
X153240408Y-116760063D01*
X153468663Y-116698903D01*
X153682830Y-116599035D01*
X153876401Y-116463495D01*
X154043495Y-116296401D01*
X154173425Y-116110842D01*
X154228002Y-116067217D01*
X154297500Y-116060023D01*
X154359855Y-116091546D01*
X154376575Y-116110842D01*
X154506500Y-116296395D01*
X154506505Y-116296401D01*
X154673599Y-116463495D01*
X154770384Y-116531265D01*
X154867165Y-116599032D01*
X154867167Y-116599033D01*
X154867170Y-116599035D01*
X155081337Y-116698903D01*
X155309592Y-116760063D01*
X155486034Y-116775500D01*
X155544999Y-116780659D01*
X155545000Y-116780659D01*
X155545001Y-116780659D01*
X155603966Y-116775500D01*
X155780408Y-116760063D01*
X156008663Y-116698903D01*
X156222830Y-116599035D01*
X156416401Y-116463495D01*
X156583495Y-116296401D01*
X156713425Y-116110842D01*
X156768002Y-116067217D01*
X156837500Y-116060023D01*
X156899855Y-116091546D01*
X156916575Y-116110842D01*
X157046500Y-116296395D01*
X157046505Y-116296401D01*
X157213599Y-116463495D01*
X157310384Y-116531265D01*
X157407165Y-116599032D01*
X157407167Y-116599033D01*
X157407170Y-116599035D01*
X157621337Y-116698903D01*
X157849592Y-116760063D01*
X158026034Y-116775500D01*
X158084999Y-116780659D01*
X158085000Y-116780659D01*
X158085001Y-116780659D01*
X158143966Y-116775500D01*
X158320408Y-116760063D01*
X158548663Y-116698903D01*
X158762830Y-116599035D01*
X158956401Y-116463495D01*
X159123495Y-116296401D01*
X159253425Y-116110842D01*
X159308002Y-116067217D01*
X159377500Y-116060023D01*
X159439855Y-116091546D01*
X159456575Y-116110842D01*
X159586500Y-116296395D01*
X159586505Y-116296401D01*
X159753599Y-116463495D01*
X159850384Y-116531265D01*
X159947165Y-116599032D01*
X159947167Y-116599033D01*
X159947170Y-116599035D01*
X160161337Y-116698903D01*
X160389592Y-116760063D01*
X160566034Y-116775500D01*
X160624999Y-116780659D01*
X160625000Y-116780659D01*
X160625001Y-116780659D01*
X160683966Y-116775500D01*
X160860408Y-116760063D01*
X161088663Y-116698903D01*
X161302830Y-116599035D01*
X161496401Y-116463495D01*
X161663495Y-116296401D01*
X161799035Y-116102830D01*
X161898903Y-115888663D01*
X161960063Y-115660408D01*
X161980659Y-115425000D01*
X161960063Y-115189592D01*
X161898903Y-114961337D01*
X161799035Y-114747171D01*
X161793731Y-114739595D01*
X161663494Y-114553597D01*
X161496402Y-114386506D01*
X161496395Y-114386501D01*
X161302834Y-114250967D01*
X161302830Y-114250965D01*
X161299225Y-114249284D01*
X161088663Y-114151097D01*
X161088659Y-114151096D01*
X161088655Y-114151094D01*
X160860413Y-114089938D01*
X160860403Y-114089936D01*
X160625001Y-114069341D01*
X160624999Y-114069341D01*
X160389596Y-114089936D01*
X160389586Y-114089938D01*
X160161344Y-114151094D01*
X160161335Y-114151098D01*
X159947171Y-114250964D01*
X159947169Y-114250965D01*
X159753597Y-114386505D01*
X159586505Y-114553597D01*
X159456575Y-114739158D01*
X159401998Y-114782783D01*
X159332500Y-114789977D01*
X159270145Y-114758454D01*
X159253425Y-114739158D01*
X159123494Y-114553597D01*
X158956402Y-114386506D01*
X158956395Y-114386501D01*
X158762834Y-114250967D01*
X158762830Y-114250965D01*
X158759225Y-114249284D01*
X158548663Y-114151097D01*
X158548659Y-114151096D01*
X158548655Y-114151094D01*
X158320413Y-114089938D01*
X158320403Y-114089936D01*
X158085001Y-114069341D01*
X158084999Y-114069341D01*
X157849596Y-114089936D01*
X157849586Y-114089938D01*
X157621344Y-114151094D01*
X157621335Y-114151098D01*
X157407171Y-114250964D01*
X157407169Y-114250965D01*
X157213597Y-114386505D01*
X157046505Y-114553597D01*
X156916575Y-114739158D01*
X156861998Y-114782783D01*
X156792500Y-114789977D01*
X156730145Y-114758454D01*
X156713425Y-114739158D01*
X156583494Y-114553597D01*
X156416402Y-114386506D01*
X156416395Y-114386501D01*
X156222834Y-114250967D01*
X156222830Y-114250965D01*
X156219225Y-114249284D01*
X156008663Y-114151097D01*
X156008659Y-114151096D01*
X156008655Y-114151094D01*
X155780413Y-114089938D01*
X155780403Y-114089936D01*
X155545001Y-114069341D01*
X155544999Y-114069341D01*
X155309596Y-114089936D01*
X155309586Y-114089938D01*
X155081344Y-114151094D01*
X155081335Y-114151098D01*
X154867171Y-114250964D01*
X154867169Y-114250965D01*
X154673597Y-114386505D01*
X154506505Y-114553597D01*
X154376575Y-114739158D01*
X154321998Y-114782783D01*
X154252500Y-114789977D01*
X154190145Y-114758454D01*
X154173425Y-114739158D01*
X154043494Y-114553597D01*
X153876402Y-114386506D01*
X153876395Y-114386501D01*
X153682834Y-114250967D01*
X153682830Y-114250965D01*
X153679225Y-114249284D01*
X153468663Y-114151097D01*
X153468659Y-114151096D01*
X153468655Y-114151094D01*
X153240413Y-114089938D01*
X153240403Y-114089936D01*
X153005001Y-114069341D01*
X153004999Y-114069341D01*
X152769596Y-114089936D01*
X152769586Y-114089938D01*
X152541344Y-114151094D01*
X152541335Y-114151098D01*
X152327171Y-114250964D01*
X152327169Y-114250965D01*
X152133597Y-114386505D01*
X151966508Y-114553594D01*
X151836269Y-114739595D01*
X151781692Y-114783219D01*
X151712193Y-114790412D01*
X151649839Y-114758890D01*
X151633119Y-114739594D01*
X151503113Y-114553926D01*
X151503108Y-114553920D01*
X151336082Y-114386894D01*
X151142578Y-114251399D01*
X150928492Y-114151570D01*
X150928486Y-114151567D01*
X150715000Y-114094364D01*
X150715000Y-114991988D01*
X150657993Y-114959075D01*
X150530826Y-114925000D01*
X150399174Y-114925000D01*
X150272007Y-114959075D01*
X150215000Y-114991988D01*
X150215000Y-114094364D01*
X150214999Y-114094364D01*
X150001513Y-114151567D01*
X150001507Y-114151570D01*
X149787422Y-114251399D01*
X149787420Y-114251400D01*
X149593926Y-114386886D01*
X149593920Y-114386891D01*
X149426891Y-114553920D01*
X149426890Y-114553922D01*
X149296575Y-114740031D01*
X149241998Y-114783655D01*
X149172499Y-114790848D01*
X149110145Y-114759326D01*
X149093425Y-114740031D01*
X148963109Y-114553922D01*
X148963108Y-114553920D01*
X148796082Y-114386894D01*
X148602578Y-114251399D01*
X148388492Y-114151570D01*
X148388486Y-114151567D01*
X148175000Y-114094364D01*
X148175000Y-114991988D01*
X148117993Y-114959075D01*
X147990826Y-114925000D01*
X147859174Y-114925000D01*
X147732007Y-114959075D01*
X147675000Y-114991988D01*
X147675000Y-114094364D01*
X147674999Y-114094364D01*
X147461513Y-114151567D01*
X147461507Y-114151570D01*
X147247422Y-114251399D01*
X147247420Y-114251400D01*
X147053926Y-114386886D01*
X147053920Y-114386891D01*
X146886891Y-114553920D01*
X146886890Y-114553922D01*
X146756880Y-114739595D01*
X146702303Y-114783219D01*
X146632804Y-114790412D01*
X146570450Y-114758890D01*
X146553730Y-114739594D01*
X146423494Y-114553597D01*
X146256404Y-114386508D01*
X146256402Y-114386506D01*
X146256401Y-114386505D01*
X146256396Y-114386501D01*
X146256393Y-114386499D01*
X146138376Y-114303861D01*
X146094751Y-114249284D01*
X146085500Y-114202287D01*
X146085500Y-91749998D01*
X148694532Y-91749998D01*
X148694532Y-91750001D01*
X148714364Y-91976686D01*
X148714366Y-91976697D01*
X148773258Y-92196488D01*
X148773261Y-92196497D01*
X148869431Y-92402732D01*
X148869432Y-92402734D01*
X148999954Y-92589141D01*
X149160858Y-92750045D01*
X149207693Y-92782839D01*
X149347266Y-92880568D01*
X149362975Y-92887893D01*
X149415414Y-92934064D01*
X149434567Y-93001257D01*
X149414352Y-93068138D01*
X149362979Y-93112656D01*
X149347514Y-93119867D01*
X149347512Y-93119868D01*
X149274526Y-93170973D01*
X149274526Y-93170974D01*
X149953553Y-93850000D01*
X149947339Y-93850000D01*
X149845606Y-93877259D01*
X149754394Y-93929920D01*
X149679920Y-94004394D01*
X149627259Y-94095606D01*
X149600000Y-94197339D01*
X149600000Y-94203552D01*
X148920974Y-93524526D01*
X148920973Y-93524526D01*
X148869868Y-93597512D01*
X148869866Y-93597516D01*
X148773734Y-93803673D01*
X148773730Y-93803682D01*
X148714860Y-94023389D01*
X148714858Y-94023400D01*
X148695034Y-94249997D01*
X148695034Y-94250002D01*
X148714858Y-94476599D01*
X148714860Y-94476610D01*
X148773730Y-94696317D01*
X148773735Y-94696331D01*
X148869863Y-94902478D01*
X148920974Y-94975472D01*
X149600000Y-94296446D01*
X149600000Y-94302661D01*
X149627259Y-94404394D01*
X149679920Y-94495606D01*
X149754394Y-94570080D01*
X149845606Y-94622741D01*
X149947339Y-94650000D01*
X149953553Y-94650000D01*
X149274526Y-95329025D01*
X149347513Y-95380132D01*
X149347521Y-95380136D01*
X149553668Y-95476264D01*
X149553682Y-95476269D01*
X149773389Y-95535139D01*
X149773400Y-95535141D01*
X149999998Y-95554966D01*
X150000002Y-95554966D01*
X150226599Y-95535141D01*
X150226610Y-95535139D01*
X150446317Y-95476269D01*
X150446331Y-95476264D01*
X150652478Y-95380136D01*
X150725471Y-95329024D01*
X150046447Y-94650000D01*
X150052661Y-94650000D01*
X150154394Y-94622741D01*
X150245606Y-94570080D01*
X150320080Y-94495606D01*
X150372741Y-94404394D01*
X150400000Y-94302661D01*
X150400000Y-94296447D01*
X151079024Y-94975471D01*
X151130136Y-94902478D01*
X151226264Y-94696331D01*
X151226269Y-94696317D01*
X151285139Y-94476610D01*
X151285141Y-94476599D01*
X151304966Y-94250002D01*
X151304966Y-94249997D01*
X151285141Y-94023400D01*
X151285139Y-94023389D01*
X151226269Y-93803682D01*
X151226264Y-93803668D01*
X151130136Y-93597521D01*
X151130132Y-93597513D01*
X151079025Y-93524526D01*
X150400000Y-94203551D01*
X150400000Y-94197339D01*
X150372741Y-94095606D01*
X150320080Y-94004394D01*
X150245606Y-93929920D01*
X150154394Y-93877259D01*
X150052661Y-93850000D01*
X150046448Y-93850000D01*
X150725472Y-93170974D01*
X150652480Y-93119864D01*
X150637024Y-93112657D01*
X150584585Y-93066484D01*
X150565433Y-92999290D01*
X150585649Y-92932409D01*
X150637023Y-92887893D01*
X150652734Y-92880568D01*
X150839139Y-92750047D01*
X151000047Y-92589139D01*
X151130568Y-92402734D01*
X151226739Y-92196496D01*
X151285635Y-91976692D01*
X151305468Y-91750000D01*
X151285635Y-91523308D01*
X151226739Y-91303504D01*
X151130568Y-91097266D01*
X151032839Y-90957693D01*
X151000045Y-90910858D01*
X150839141Y-90749954D01*
X150652734Y-90619432D01*
X150652732Y-90619431D01*
X150446497Y-90523261D01*
X150446488Y-90523258D01*
X150226697Y-90464366D01*
X150226693Y-90464365D01*
X150226692Y-90464365D01*
X150226691Y-90464364D01*
X150226686Y-90464364D01*
X150000002Y-90444532D01*
X149999998Y-90444532D01*
X149773313Y-90464364D01*
X149773302Y-90464366D01*
X149553511Y-90523258D01*
X149553502Y-90523261D01*
X149347267Y-90619431D01*
X149347265Y-90619432D01*
X149160858Y-90749954D01*
X148999954Y-90910858D01*
X148869432Y-91097265D01*
X148869431Y-91097267D01*
X148773261Y-91303502D01*
X148773258Y-91303511D01*
X148714366Y-91523302D01*
X148714364Y-91523313D01*
X148694532Y-91749998D01*
X146085500Y-91749998D01*
X146085500Y-89866518D01*
X146105185Y-89799479D01*
X146121814Y-89778842D01*
X148729630Y-87171025D01*
X148790951Y-87137542D01*
X148828117Y-87135180D01*
X148833303Y-87135633D01*
X148833308Y-87135635D01*
X149038263Y-87153566D01*
X149059999Y-87155468D01*
X149060000Y-87155468D01*
X149060002Y-87155468D01*
X149116807Y-87150498D01*
X149286692Y-87135635D01*
X149506496Y-87076739D01*
X149712734Y-86980568D01*
X149899139Y-86850047D01*
X150060047Y-86689139D01*
X150190568Y-86502734D01*
X150217618Y-86444724D01*
X150263790Y-86392285D01*
X150330983Y-86373133D01*
X150397865Y-86393348D01*
X150442382Y-86444725D01*
X150469429Y-86502728D01*
X150469432Y-86502734D01*
X150599954Y-86689141D01*
X150760858Y-86850045D01*
X150760861Y-86850047D01*
X150947266Y-86980568D01*
X151153504Y-87076739D01*
X151373308Y-87135635D01*
X151517921Y-87148287D01*
X151599998Y-87155468D01*
X151600000Y-87155468D01*
X151600002Y-87155468D01*
X151656807Y-87150498D01*
X151826692Y-87135635D01*
X152046496Y-87076739D01*
X152252734Y-86980568D01*
X152439139Y-86850047D01*
X152600047Y-86689139D01*
X152730568Y-86502734D01*
X152757618Y-86444724D01*
X152803790Y-86392285D01*
X152870983Y-86373133D01*
X152937865Y-86393348D01*
X152982382Y-86444725D01*
X153009429Y-86502728D01*
X153009432Y-86502734D01*
X153139954Y-86689141D01*
X153300858Y-86850045D01*
X153300861Y-86850047D01*
X153487266Y-86980568D01*
X153693504Y-87076739D01*
X153913308Y-87135635D01*
X154057921Y-87148287D01*
X154139998Y-87155468D01*
X154140000Y-87155468D01*
X154140002Y-87155468D01*
X154196807Y-87150498D01*
X154366692Y-87135635D01*
X154586496Y-87076739D01*
X154792734Y-86980568D01*
X154979139Y-86850047D01*
X155140047Y-86689139D01*
X155270568Y-86502734D01*
X155297618Y-86444724D01*
X155343790Y-86392285D01*
X155410983Y-86373133D01*
X155477865Y-86393348D01*
X155522382Y-86444725D01*
X155549429Y-86502728D01*
X155549432Y-86502734D01*
X155679954Y-86689141D01*
X155840858Y-86850045D01*
X155840861Y-86850047D01*
X156027266Y-86980568D01*
X156233504Y-87076739D01*
X156453308Y-87135635D01*
X156597921Y-87148287D01*
X156679998Y-87155468D01*
X156680000Y-87155468D01*
X156680002Y-87155468D01*
X156736807Y-87150498D01*
X156906692Y-87135635D01*
X157126496Y-87076739D01*
X157332734Y-86980568D01*
X157519139Y-86850047D01*
X157680047Y-86689139D01*
X157810568Y-86502734D01*
X157837618Y-86444724D01*
X157883790Y-86392285D01*
X157950983Y-86373133D01*
X158017865Y-86393348D01*
X158062382Y-86444725D01*
X158089429Y-86502728D01*
X158089432Y-86502734D01*
X158219954Y-86689141D01*
X158380858Y-86850045D01*
X158380861Y-86850047D01*
X158567266Y-86980568D01*
X158773504Y-87076739D01*
X158993308Y-87135635D01*
X159137921Y-87148287D01*
X159219998Y-87155468D01*
X159220000Y-87155468D01*
X159220002Y-87155468D01*
X159276807Y-87150498D01*
X159446692Y-87135635D01*
X159666496Y-87076739D01*
X159872734Y-86980568D01*
X160059139Y-86850047D01*
X160220047Y-86689139D01*
X160350568Y-86502734D01*
X160377895Y-86444129D01*
X160424064Y-86391695D01*
X160491257Y-86372542D01*
X160558139Y-86392757D01*
X160602657Y-86444133D01*
X160629865Y-86502482D01*
X160760342Y-86688820D01*
X160921179Y-86849657D01*
X161107517Y-86980134D01*
X161313673Y-87076265D01*
X161313682Y-87076269D01*
X161509999Y-87128872D01*
X161510000Y-87128871D01*
X161510000Y-86165686D01*
X161514394Y-86170080D01*
X161605606Y-86222741D01*
X161707339Y-86250000D01*
X161812661Y-86250000D01*
X161914394Y-86222741D01*
X162005606Y-86170080D01*
X162010000Y-86165686D01*
X162010000Y-87128872D01*
X162206317Y-87076269D01*
X162206326Y-87076265D01*
X162412482Y-86980134D01*
X162598820Y-86849657D01*
X162759657Y-86688820D01*
X162890134Y-86502482D01*
X162986265Y-86296326D01*
X162986269Y-86296317D01*
X163038872Y-86100000D01*
X162075686Y-86100000D01*
X162080080Y-86095606D01*
X162132741Y-86004394D01*
X162160000Y-85902661D01*
X162160000Y-85797339D01*
X162132741Y-85695606D01*
X162080080Y-85604394D01*
X162075686Y-85600000D01*
X163038872Y-85600000D01*
X163038872Y-85599999D01*
X162986269Y-85403682D01*
X162986265Y-85403673D01*
X162890134Y-85197517D01*
X162759657Y-85011179D01*
X162598820Y-84850342D01*
X162412482Y-84719865D01*
X162206328Y-84623734D01*
X162010000Y-84571127D01*
X162010000Y-85534314D01*
X162005606Y-85529920D01*
X161914394Y-85477259D01*
X161812661Y-85450000D01*
X161707339Y-85450000D01*
X161605606Y-85477259D01*
X161514394Y-85529920D01*
X161510000Y-85534314D01*
X161510000Y-84571127D01*
X161313671Y-84623734D01*
X161107517Y-84719865D01*
X160921179Y-84850342D01*
X160760342Y-85011179D01*
X160629867Y-85197515D01*
X160602657Y-85255867D01*
X160556484Y-85308306D01*
X160489290Y-85327457D01*
X160422409Y-85307241D01*
X160377893Y-85255865D01*
X160368351Y-85235403D01*
X160350568Y-85197266D01*
X160220047Y-85010861D01*
X160220045Y-85010858D01*
X160059141Y-84849954D01*
X159872734Y-84719432D01*
X159872732Y-84719431D01*
X159666497Y-84623261D01*
X159666488Y-84623258D01*
X159446697Y-84564366D01*
X159446693Y-84564365D01*
X159446692Y-84564365D01*
X159446691Y-84564364D01*
X159446686Y-84564364D01*
X159220002Y-84544532D01*
X159219998Y-84544532D01*
X158993313Y-84564364D01*
X158993302Y-84564366D01*
X158773511Y-84623258D01*
X158773502Y-84623261D01*
X158567267Y-84719431D01*
X158567265Y-84719432D01*
X158380858Y-84849954D01*
X158219954Y-85010858D01*
X158089432Y-85197265D01*
X158089431Y-85197267D01*
X158062382Y-85255275D01*
X158016209Y-85307714D01*
X157949016Y-85326866D01*
X157882135Y-85306650D01*
X157837618Y-85255275D01*
X157828354Y-85235408D01*
X157810568Y-85197266D01*
X157680047Y-85010861D01*
X157680045Y-85010858D01*
X157519141Y-84849954D01*
X157332734Y-84719432D01*
X157332732Y-84719431D01*
X157126497Y-84623261D01*
X157126488Y-84623258D01*
X156906697Y-84564366D01*
X156906693Y-84564365D01*
X156906692Y-84564365D01*
X156906691Y-84564364D01*
X156906686Y-84564364D01*
X156680002Y-84544532D01*
X156679998Y-84544532D01*
X156453313Y-84564364D01*
X156453302Y-84564366D01*
X156233511Y-84623258D01*
X156233502Y-84623261D01*
X156027267Y-84719431D01*
X156027265Y-84719432D01*
X155840858Y-84849954D01*
X155679954Y-85010858D01*
X155549432Y-85197265D01*
X155549431Y-85197267D01*
X155522382Y-85255275D01*
X155476209Y-85307714D01*
X155409016Y-85326866D01*
X155342135Y-85306650D01*
X155297618Y-85255275D01*
X155288354Y-85235408D01*
X155270568Y-85197266D01*
X155140047Y-85010861D01*
X155140045Y-85010858D01*
X154979141Y-84849954D01*
X154792734Y-84719432D01*
X154792732Y-84719431D01*
X154586497Y-84623261D01*
X154586488Y-84623258D01*
X154366697Y-84564366D01*
X154366693Y-84564365D01*
X154366692Y-84564365D01*
X154366691Y-84564364D01*
X154366686Y-84564364D01*
X154140002Y-84544532D01*
X154139998Y-84544532D01*
X153913313Y-84564364D01*
X153913302Y-84564366D01*
X153693511Y-84623258D01*
X153693502Y-84623261D01*
X153487267Y-84719431D01*
X153487265Y-84719432D01*
X153300858Y-84849954D01*
X153139954Y-85010858D01*
X153009432Y-85197265D01*
X153009431Y-85197267D01*
X152982382Y-85255275D01*
X152936209Y-85307714D01*
X152869016Y-85326866D01*
X152802135Y-85306650D01*
X152757618Y-85255275D01*
X152748354Y-85235408D01*
X152730568Y-85197266D01*
X152600047Y-85010861D01*
X152600045Y-85010858D01*
X152439141Y-84849954D01*
X152252734Y-84719432D01*
X152252732Y-84719431D01*
X152046497Y-84623261D01*
X152046488Y-84623258D01*
X151826697Y-84564366D01*
X151826693Y-84564365D01*
X151826692Y-84564365D01*
X151826691Y-84564364D01*
X151826686Y-84564364D01*
X151600002Y-84544532D01*
X151599998Y-84544532D01*
X151373313Y-84564364D01*
X151373302Y-84564366D01*
X151153511Y-84623258D01*
X151153502Y-84623261D01*
X150947267Y-84719431D01*
X150947265Y-84719432D01*
X150760858Y-84849954D01*
X150599954Y-85010858D01*
X150469432Y-85197265D01*
X150469431Y-85197267D01*
X150442382Y-85255275D01*
X150396209Y-85307714D01*
X150329016Y-85326866D01*
X150262135Y-85306650D01*
X150217618Y-85255275D01*
X150208354Y-85235408D01*
X150190568Y-85197266D01*
X150060047Y-85010861D01*
X150060045Y-85010858D01*
X149899141Y-84849954D01*
X149712734Y-84719432D01*
X149712732Y-84719431D01*
X149506497Y-84623261D01*
X149506488Y-84623258D01*
X149286697Y-84564366D01*
X149286693Y-84564365D01*
X149286692Y-84564365D01*
X149286691Y-84564364D01*
X149286686Y-84564364D01*
X149060002Y-84544532D01*
X149059998Y-84544532D01*
X148833313Y-84564364D01*
X148833302Y-84564366D01*
X148613511Y-84623258D01*
X148613502Y-84623261D01*
X148407267Y-84719431D01*
X148407265Y-84719432D01*
X148220858Y-84849954D01*
X148059954Y-85010858D01*
X147929432Y-85197265D01*
X147929431Y-85197267D01*
X147902382Y-85255275D01*
X147856209Y-85307714D01*
X147789016Y-85326866D01*
X147722135Y-85306650D01*
X147677618Y-85255275D01*
X147668354Y-85235408D01*
X147650568Y-85197266D01*
X147520047Y-85010861D01*
X147520045Y-85010858D01*
X147359141Y-84849954D01*
X147172734Y-84719432D01*
X147172732Y-84719431D01*
X146966497Y-84623261D01*
X146966488Y-84623258D01*
X146746697Y-84564366D01*
X146746693Y-84564365D01*
X146746692Y-84564365D01*
X146746691Y-84564364D01*
X146746686Y-84564364D01*
X146520002Y-84544532D01*
X146519998Y-84544532D01*
X146293313Y-84564364D01*
X146293302Y-84564366D01*
X146073511Y-84623258D01*
X146073502Y-84623261D01*
X145867267Y-84719431D01*
X145867265Y-84719432D01*
X145680858Y-84849954D01*
X145519954Y-85010858D01*
X145389432Y-85197265D01*
X145389431Y-85197267D01*
X145362382Y-85255275D01*
X145316209Y-85307714D01*
X145249016Y-85326866D01*
X145182135Y-85306650D01*
X145137618Y-85255275D01*
X145128354Y-85235408D01*
X145110568Y-85197266D01*
X144980047Y-85010861D01*
X144980045Y-85010858D01*
X144819141Y-84849954D01*
X144632734Y-84719432D01*
X144632732Y-84719431D01*
X144426497Y-84623261D01*
X144426488Y-84623258D01*
X144206697Y-84564366D01*
X144206693Y-84564365D01*
X144206692Y-84564365D01*
X144206691Y-84564364D01*
X144206686Y-84564364D01*
X143980002Y-84544532D01*
X143979998Y-84544532D01*
X143753313Y-84564364D01*
X143753302Y-84564366D01*
X143533511Y-84623258D01*
X143533502Y-84623261D01*
X143327267Y-84719431D01*
X143327265Y-84719432D01*
X143140858Y-84849954D01*
X142979954Y-85010858D01*
X142849433Y-85197264D01*
X142849432Y-85197266D01*
X142831649Y-85235403D01*
X142822106Y-85255867D01*
X142775933Y-85308306D01*
X142708739Y-85327457D01*
X142641858Y-85307241D01*
X142597342Y-85255865D01*
X142570135Y-85197520D01*
X142570134Y-85197518D01*
X142439657Y-85011179D01*
X142278820Y-84850342D01*
X142092482Y-84719865D01*
X141886328Y-84623734D01*
X141690000Y-84571127D01*
X141690000Y-85534314D01*
X141685606Y-85529920D01*
X141594394Y-85477259D01*
X141492661Y-85450000D01*
X141387339Y-85450000D01*
X141285606Y-85477259D01*
X141194394Y-85529920D01*
X141190000Y-85534314D01*
X141190000Y-84571127D01*
X140993671Y-84623734D01*
X140787517Y-84719865D01*
X140601179Y-84850342D01*
X140440342Y-85011179D01*
X140309867Y-85197515D01*
X140282657Y-85255867D01*
X140236484Y-85308306D01*
X140169290Y-85327457D01*
X140102409Y-85307241D01*
X140057893Y-85255865D01*
X140048351Y-85235403D01*
X140030568Y-85197266D01*
X139900047Y-85010861D01*
X139900045Y-85010858D01*
X139739141Y-84849954D01*
X139552734Y-84719432D01*
X139552732Y-84719431D01*
X139346497Y-84623261D01*
X139346488Y-84623258D01*
X139126697Y-84564366D01*
X139126693Y-84564365D01*
X139126692Y-84564365D01*
X139126691Y-84564364D01*
X139126686Y-84564364D01*
X138900002Y-84544532D01*
X138899998Y-84544532D01*
X138673313Y-84564364D01*
X138673302Y-84564366D01*
X138453511Y-84623258D01*
X138453502Y-84623261D01*
X138247267Y-84719431D01*
X138247265Y-84719432D01*
X138060858Y-84849954D01*
X137899954Y-85010858D01*
X137769432Y-85197265D01*
X137769431Y-85197267D01*
X137742382Y-85255275D01*
X137696209Y-85307714D01*
X137629016Y-85326866D01*
X137562135Y-85306650D01*
X137517618Y-85255275D01*
X137508354Y-85235408D01*
X137490568Y-85197266D01*
X137360047Y-85010861D01*
X137360045Y-85010858D01*
X137199141Y-84849954D01*
X137012734Y-84719432D01*
X137012732Y-84719431D01*
X136806497Y-84623261D01*
X136806488Y-84623258D01*
X136586697Y-84564366D01*
X136586693Y-84564365D01*
X136586692Y-84564365D01*
X136586691Y-84564364D01*
X136586686Y-84564364D01*
X136360002Y-84544532D01*
X136359998Y-84544532D01*
X136133313Y-84564364D01*
X136133302Y-84564366D01*
X135913511Y-84623258D01*
X135913502Y-84623261D01*
X135707267Y-84719431D01*
X135707265Y-84719432D01*
X135520858Y-84849954D01*
X135359954Y-85010858D01*
X135229432Y-85197265D01*
X135229431Y-85197267D01*
X135202382Y-85255275D01*
X135156209Y-85307714D01*
X135089016Y-85326866D01*
X135022135Y-85306650D01*
X134977618Y-85255275D01*
X134968354Y-85235408D01*
X134950568Y-85197266D01*
X134820047Y-85010861D01*
X134820045Y-85010858D01*
X134659141Y-84849954D01*
X134472734Y-84719432D01*
X134472732Y-84719431D01*
X134266497Y-84623261D01*
X134266488Y-84623258D01*
X134046697Y-84564366D01*
X134046693Y-84564365D01*
X134046692Y-84564365D01*
X134046691Y-84564364D01*
X134046686Y-84564364D01*
X133820002Y-84544532D01*
X133819998Y-84544532D01*
X133593313Y-84564364D01*
X133593302Y-84564366D01*
X133373511Y-84623258D01*
X133373502Y-84623261D01*
X133167267Y-84719431D01*
X133167265Y-84719432D01*
X132980858Y-84849954D01*
X132819954Y-85010858D01*
X132689432Y-85197265D01*
X132689431Y-85197267D01*
X132662382Y-85255275D01*
X132616209Y-85307714D01*
X132549016Y-85326866D01*
X132482135Y-85306650D01*
X132437618Y-85255275D01*
X132428354Y-85235408D01*
X132410568Y-85197266D01*
X132280047Y-85010861D01*
X132280045Y-85010858D01*
X132119141Y-84849954D01*
X131932734Y-84719432D01*
X131932732Y-84719431D01*
X131726497Y-84623261D01*
X131726488Y-84623258D01*
X131506697Y-84564366D01*
X131506693Y-84564365D01*
X131506692Y-84564365D01*
X131506691Y-84564364D01*
X131506686Y-84564364D01*
X131280002Y-84544532D01*
X131279998Y-84544532D01*
X131053313Y-84564364D01*
X131053302Y-84564366D01*
X130833511Y-84623258D01*
X130833502Y-84623261D01*
X130627267Y-84719431D01*
X130627265Y-84719432D01*
X130440858Y-84849954D01*
X130279954Y-85010858D01*
X130149432Y-85197265D01*
X130149431Y-85197267D01*
X130122382Y-85255275D01*
X130076209Y-85307714D01*
X130009016Y-85326866D01*
X129942135Y-85306650D01*
X129897618Y-85255275D01*
X129888354Y-85235408D01*
X129870568Y-85197266D01*
X129740047Y-85010861D01*
X129740045Y-85010858D01*
X129579141Y-84849954D01*
X129392734Y-84719432D01*
X129392732Y-84719431D01*
X129186497Y-84623261D01*
X129186488Y-84623258D01*
X128966697Y-84564366D01*
X128966693Y-84564365D01*
X128966692Y-84564365D01*
X128966691Y-84564364D01*
X128966686Y-84564364D01*
X128740002Y-84544532D01*
X128739998Y-84544532D01*
X128513313Y-84564364D01*
X128513302Y-84564366D01*
X128293511Y-84623258D01*
X128293502Y-84623261D01*
X128087267Y-84719431D01*
X128087265Y-84719432D01*
X127900858Y-84849954D01*
X127739954Y-85010858D01*
X127609432Y-85197265D01*
X127609431Y-85197267D01*
X127582382Y-85255275D01*
X127536209Y-85307714D01*
X127469016Y-85326866D01*
X127402135Y-85306650D01*
X127357618Y-85255275D01*
X127348354Y-85235408D01*
X127330568Y-85197266D01*
X127200047Y-85010861D01*
X127200045Y-85010858D01*
X127039141Y-84849954D01*
X126852734Y-84719432D01*
X126852732Y-84719431D01*
X126646497Y-84623261D01*
X126646488Y-84623258D01*
X126426697Y-84564366D01*
X126426693Y-84564365D01*
X126426692Y-84564365D01*
X126426691Y-84564364D01*
X126426686Y-84564364D01*
X126200002Y-84544532D01*
X126199998Y-84544532D01*
X125973313Y-84564364D01*
X125973302Y-84564366D01*
X125753511Y-84623258D01*
X125753502Y-84623261D01*
X125547267Y-84719431D01*
X125547265Y-84719432D01*
X125360858Y-84849954D01*
X125199954Y-85010858D01*
X125069432Y-85197265D01*
X125069431Y-85197267D01*
X125042382Y-85255275D01*
X124996209Y-85307714D01*
X124929016Y-85326866D01*
X124862135Y-85306650D01*
X124817618Y-85255275D01*
X124808354Y-85235408D01*
X124790568Y-85197266D01*
X124660047Y-85010861D01*
X124660045Y-85010858D01*
X124499141Y-84849954D01*
X124312734Y-84719432D01*
X124312732Y-84719431D01*
X124106497Y-84623261D01*
X124106488Y-84623258D01*
X123886697Y-84564366D01*
X123886693Y-84564365D01*
X123886692Y-84564365D01*
X123886691Y-84564364D01*
X123886686Y-84564364D01*
X123660002Y-84544532D01*
X123659998Y-84544532D01*
X123433313Y-84564364D01*
X123433302Y-84564366D01*
X123213511Y-84623258D01*
X123213502Y-84623261D01*
X123007267Y-84719431D01*
X123007265Y-84719432D01*
X122820858Y-84849954D01*
X122659954Y-85010858D01*
X122529432Y-85197265D01*
X122529431Y-85197267D01*
X122502382Y-85255275D01*
X122456209Y-85307714D01*
X122389016Y-85326866D01*
X122322135Y-85306650D01*
X122277618Y-85255275D01*
X122268354Y-85235408D01*
X122250568Y-85197266D01*
X122120047Y-85010861D01*
X122120045Y-85010858D01*
X121959141Y-84849954D01*
X121772734Y-84719432D01*
X121772732Y-84719431D01*
X121566497Y-84623261D01*
X121566488Y-84623258D01*
X121346697Y-84564366D01*
X121346693Y-84564365D01*
X121346692Y-84564365D01*
X121346691Y-84564364D01*
X121346686Y-84564364D01*
X121120002Y-84544532D01*
X121119998Y-84544532D01*
X120893313Y-84564364D01*
X120893302Y-84564366D01*
X120673511Y-84623258D01*
X120673502Y-84623261D01*
X120467267Y-84719431D01*
X120467265Y-84719432D01*
X120280858Y-84849954D01*
X120119954Y-85010858D01*
X119989432Y-85197265D01*
X119989431Y-85197267D01*
X119962382Y-85255275D01*
X119916209Y-85307714D01*
X119849016Y-85326866D01*
X119782135Y-85306650D01*
X119737618Y-85255275D01*
X119728354Y-85235408D01*
X119710568Y-85197266D01*
X119580047Y-85010861D01*
X119580045Y-85010858D01*
X119419141Y-84849954D01*
X119232734Y-84719432D01*
X119232732Y-84719431D01*
X119026497Y-84623261D01*
X119026488Y-84623258D01*
X118806697Y-84564366D01*
X118806693Y-84564365D01*
X118806692Y-84564365D01*
X118806691Y-84564364D01*
X118806686Y-84564364D01*
X118580002Y-84544532D01*
X118579998Y-84544532D01*
X118353313Y-84564364D01*
X118353302Y-84564366D01*
X118133511Y-84623258D01*
X118133502Y-84623261D01*
X117927267Y-84719431D01*
X117927265Y-84719432D01*
X117740858Y-84849954D01*
X117579954Y-85010858D01*
X117449432Y-85197265D01*
X117449431Y-85197267D01*
X117422382Y-85255275D01*
X117376209Y-85307714D01*
X117309016Y-85326866D01*
X117242135Y-85306650D01*
X117197618Y-85255275D01*
X117188354Y-85235408D01*
X117170568Y-85197266D01*
X117040047Y-85010861D01*
X117040045Y-85010858D01*
X116879141Y-84849954D01*
X116692734Y-84719432D01*
X116692732Y-84719431D01*
X116486497Y-84623261D01*
X116486488Y-84623258D01*
X116266697Y-84564366D01*
X116266693Y-84564365D01*
X116266692Y-84564365D01*
X116266691Y-84564364D01*
X116266686Y-84564364D01*
X116040002Y-84544532D01*
X116039999Y-84544532D01*
X116034634Y-84545001D01*
X115966134Y-84531230D01*
X115915955Y-84482611D01*
X115900026Y-84414582D01*
X115923405Y-84348740D01*
X115936147Y-84333797D01*
X127198127Y-73071819D01*
X127259450Y-73038334D01*
X127285808Y-73035500D01*
X169525501Y-73035500D01*
X169592540Y-73055185D01*
X169638295Y-73107989D01*
X169649501Y-73159500D01*
X169649501Y-73197876D01*
X169655908Y-73257483D01*
X169706202Y-73392328D01*
X169706206Y-73392335D01*
X169792452Y-73507544D01*
X169792455Y-73507547D01*
X169907664Y-73593793D01*
X169907671Y-73593797D01*
X170039081Y-73642810D01*
X170095015Y-73684681D01*
X170119432Y-73750145D01*
X170104580Y-73818418D01*
X170083430Y-73846673D01*
X169961503Y-73968600D01*
X169825965Y-74162169D01*
X169825964Y-74162171D01*
X169726098Y-74376335D01*
X169726094Y-74376344D01*
X169664938Y-74604586D01*
X169664936Y-74604596D01*
X169644341Y-74839999D01*
X169644341Y-74840000D01*
X169664936Y-75075403D01*
X169664938Y-75075413D01*
X169726094Y-75303655D01*
X169726096Y-75303659D01*
X169726097Y-75303663D01*
X169825965Y-75517830D01*
X169825967Y-75517834D01*
X169961501Y-75711395D01*
X169961506Y-75711402D01*
X170128597Y-75878493D01*
X170128603Y-75878498D01*
X170314594Y-76008730D01*
X170358219Y-76063307D01*
X170365413Y-76132805D01*
X170333890Y-76195160D01*
X170314595Y-76211880D01*
X170128922Y-76341890D01*
X170128920Y-76341891D01*
X169961891Y-76508920D01*
X169961886Y-76508926D01*
X169826400Y-76702420D01*
X169826399Y-76702422D01*
X169726570Y-76916507D01*
X169726567Y-76916513D01*
X169669364Y-77129999D01*
X169669364Y-77130000D01*
X170566988Y-77130000D01*
X170534075Y-77187007D01*
X170500000Y-77314174D01*
X170500000Y-77445826D01*
X170534075Y-77572993D01*
X170566988Y-77630000D01*
X169669364Y-77630000D01*
X169726567Y-77843486D01*
X169726570Y-77843492D01*
X169826399Y-78057578D01*
X169961894Y-78251082D01*
X170128917Y-78418105D01*
X170314595Y-78548119D01*
X170358219Y-78602696D01*
X170365412Y-78672195D01*
X170333890Y-78734549D01*
X170314595Y-78751269D01*
X170128594Y-78881508D01*
X169961505Y-79048597D01*
X169825965Y-79242169D01*
X169825964Y-79242171D01*
X169726098Y-79456335D01*
X169726094Y-79456344D01*
X169664938Y-79684586D01*
X169664936Y-79684596D01*
X169644341Y-79919999D01*
X169644341Y-79920000D01*
X169664936Y-80155403D01*
X169664938Y-80155413D01*
X169726094Y-80383655D01*
X169726096Y-80383659D01*
X169726097Y-80383663D01*
X169825965Y-80597830D01*
X169825967Y-80597834D01*
X169961501Y-80791395D01*
X169961506Y-80791402D01*
X170128597Y-80958493D01*
X170128603Y-80958498D01*
X170314158Y-81088425D01*
X170357783Y-81143002D01*
X170364977Y-81212500D01*
X170333454Y-81274855D01*
X170314158Y-81291575D01*
X170128597Y-81421505D01*
X169961505Y-81588597D01*
X169825965Y-81782169D01*
X169825964Y-81782171D01*
X169726098Y-81996335D01*
X169726094Y-81996344D01*
X169664938Y-82224586D01*
X169664936Y-82224596D01*
X169644341Y-82459999D01*
X169644341Y-82460000D01*
X169664936Y-82695403D01*
X169664938Y-82695413D01*
X169726094Y-82923655D01*
X169726096Y-82923659D01*
X169726097Y-82923663D01*
X169825965Y-83137830D01*
X169825967Y-83137834D01*
X169961501Y-83331395D01*
X169961506Y-83331402D01*
X170128597Y-83498493D01*
X170128603Y-83498498D01*
X170314158Y-83628425D01*
X170357783Y-83683002D01*
X170364977Y-83752500D01*
X170333454Y-83814855D01*
X170314158Y-83831575D01*
X170128597Y-83961505D01*
X169961505Y-84128597D01*
X169825965Y-84322169D01*
X169825964Y-84322171D01*
X169726098Y-84536335D01*
X169726094Y-84536344D01*
X169664938Y-84764586D01*
X169664936Y-84764596D01*
X169644341Y-84999999D01*
X169644341Y-85000000D01*
X169664936Y-85235403D01*
X169664938Y-85235413D01*
X169726094Y-85463655D01*
X169726096Y-85463659D01*
X169726097Y-85463663D01*
X169789672Y-85599999D01*
X169825965Y-85677830D01*
X169825967Y-85677834D01*
X169909646Y-85797339D01*
X169961505Y-85871401D01*
X170128599Y-86038495D01*
X170183150Y-86076692D01*
X170322165Y-86174032D01*
X170322167Y-86174033D01*
X170322170Y-86174035D01*
X170536337Y-86273903D01*
X170764592Y-86335063D01*
X170952918Y-86351539D01*
X170999999Y-86355659D01*
X171000000Y-86355659D01*
X171000001Y-86355659D01*
X171039234Y-86352226D01*
X171235408Y-86335063D01*
X171463663Y-86273903D01*
X171677830Y-86174035D01*
X171871401Y-86038495D01*
X172038495Y-85871401D01*
X172174035Y-85677830D01*
X172273903Y-85463663D01*
X172335063Y-85235408D01*
X172355659Y-85000000D01*
X172335063Y-84764592D01*
X172276671Y-84546666D01*
X172273905Y-84536344D01*
X172273904Y-84536343D01*
X172273903Y-84536337D01*
X172174035Y-84322171D01*
X172038495Y-84128599D01*
X172038494Y-84128597D01*
X171871402Y-83961506D01*
X171871396Y-83961501D01*
X171685842Y-83831575D01*
X171642217Y-83776998D01*
X171635023Y-83707500D01*
X171666546Y-83645145D01*
X171685842Y-83628425D01*
X171708026Y-83612891D01*
X171871401Y-83498495D01*
X172038495Y-83331401D01*
X172174035Y-83137830D01*
X172273903Y-82923663D01*
X172335063Y-82695408D01*
X172355659Y-82460000D01*
X172335063Y-82224592D01*
X172273903Y-81996337D01*
X172174035Y-81782171D01*
X172038495Y-81588599D01*
X172038494Y-81588597D01*
X171871402Y-81421506D01*
X171871396Y-81421501D01*
X171685842Y-81291575D01*
X171642217Y-81236998D01*
X171635023Y-81167500D01*
X171666546Y-81105145D01*
X171685842Y-81088425D01*
X171708026Y-81072891D01*
X171871401Y-80958495D01*
X172038495Y-80791401D01*
X172174035Y-80597830D01*
X172273903Y-80383663D01*
X172335063Y-80155408D01*
X172355659Y-79920000D01*
X172335063Y-79684592D01*
X172273903Y-79456337D01*
X172174035Y-79242171D01*
X172038495Y-79048599D01*
X172038494Y-79048597D01*
X171871402Y-78881506D01*
X171871401Y-78881505D01*
X171685405Y-78751269D01*
X171641781Y-78696692D01*
X171634588Y-78627193D01*
X171666110Y-78564839D01*
X171685405Y-78548119D01*
X171871082Y-78418105D01*
X172038105Y-78251082D01*
X172173600Y-78057578D01*
X172273429Y-77843492D01*
X172273432Y-77843486D01*
X172330636Y-77630000D01*
X171433012Y-77630000D01*
X171465925Y-77572993D01*
X171500000Y-77445826D01*
X171500000Y-77314174D01*
X171465925Y-77187007D01*
X171433012Y-77130000D01*
X172330636Y-77130000D01*
X172330635Y-77129999D01*
X172273432Y-76916513D01*
X172273429Y-76916507D01*
X172173600Y-76702422D01*
X172173599Y-76702420D01*
X172038113Y-76508926D01*
X172038108Y-76508920D01*
X171871078Y-76341890D01*
X171685405Y-76211879D01*
X171641780Y-76157302D01*
X171634588Y-76087804D01*
X171666110Y-76025449D01*
X171685406Y-76008730D01*
X171871401Y-75878495D01*
X172038495Y-75711401D01*
X172174035Y-75517830D01*
X172273903Y-75303663D01*
X172335063Y-75075408D01*
X172355659Y-74840000D01*
X172335063Y-74604592D01*
X172273903Y-74376337D01*
X172174035Y-74162171D01*
X172038495Y-73968599D01*
X171916567Y-73846671D01*
X171883084Y-73785351D01*
X171888068Y-73715659D01*
X171929939Y-73659725D01*
X171960915Y-73642810D01*
X172092331Y-73593796D01*
X172207546Y-73507546D01*
X172293796Y-73392331D01*
X172344091Y-73257483D01*
X172350500Y-73197873D01*
X172350499Y-71402128D01*
X172344091Y-71342517D01*
X172293796Y-71207669D01*
X172293795Y-71207668D01*
X172293793Y-71207664D01*
X172207547Y-71092455D01*
X172207544Y-71092452D01*
X172092335Y-71006206D01*
X172092328Y-71006202D01*
X171957482Y-70955908D01*
X171957483Y-70955908D01*
X171897883Y-70949501D01*
X171897881Y-70949500D01*
X171897873Y-70949500D01*
X171897864Y-70949500D01*
X170102129Y-70949500D01*
X170102123Y-70949501D01*
X170042516Y-70955908D01*
X169907671Y-71006202D01*
X169907664Y-71006206D01*
X169792455Y-71092452D01*
X169792452Y-71092455D01*
X169706206Y-71207664D01*
X169706202Y-71207671D01*
X169655908Y-71342517D01*
X169649501Y-71402116D01*
X169649501Y-71402123D01*
X169649500Y-71402135D01*
X169649500Y-71610500D01*
X169629815Y-71677539D01*
X169577011Y-71723294D01*
X169525500Y-71734500D01*
X162774049Y-71734500D01*
X162707010Y-71714815D01*
X162661255Y-71662011D01*
X162651311Y-71592853D01*
X162680336Y-71529297D01*
X162686368Y-71522819D01*
X162760045Y-71449141D01*
X162760047Y-71449139D01*
X162890568Y-71262734D01*
X162986739Y-71056496D01*
X163045635Y-70836692D01*
X163065468Y-70610000D01*
X163045635Y-70383308D01*
X162986739Y-70163504D01*
X162890568Y-69957266D01*
X162760047Y-69770861D01*
X162760045Y-69770858D01*
X162599141Y-69609954D01*
X162434179Y-69494448D01*
X162390554Y-69439872D01*
X162383360Y-69370373D01*
X162414882Y-69308018D01*
X162448341Y-69283793D01*
X162448043Y-69283276D01*
X162452725Y-69280572D01*
X162452734Y-69280568D01*
X162639139Y-69150047D01*
X162800047Y-68989139D01*
X162930568Y-68802734D01*
X163026739Y-68596496D01*
X163085635Y-68376692D01*
X163105468Y-68150000D01*
X163085635Y-67923308D01*
X163026739Y-67703504D01*
X162930568Y-67497266D01*
X162800047Y-67310861D01*
X162800045Y-67310858D01*
X162639141Y-67149954D01*
X162452734Y-67019432D01*
X162452730Y-67019430D01*
X162437022Y-67012105D01*
X162384583Y-66965931D01*
X162365433Y-66898737D01*
X162385650Y-66831857D01*
X162437028Y-66787340D01*
X162452481Y-66780134D01*
X162525471Y-66729024D01*
X161846447Y-66050000D01*
X161852661Y-66050000D01*
X161954394Y-66022741D01*
X162045606Y-65970080D01*
X162120080Y-65895606D01*
X162172741Y-65804394D01*
X162200000Y-65702661D01*
X162200000Y-65696447D01*
X162879024Y-66375471D01*
X162930136Y-66302478D01*
X163026264Y-66096331D01*
X163026269Y-66096317D01*
X163085139Y-65876610D01*
X163085141Y-65876599D01*
X163104966Y-65650002D01*
X163104966Y-65649997D01*
X163085141Y-65423400D01*
X163085139Y-65423389D01*
X163026269Y-65203682D01*
X163026264Y-65203668D01*
X162930136Y-64997521D01*
X162930132Y-64997513D01*
X162879025Y-64924526D01*
X162200000Y-65603551D01*
X162200000Y-65597339D01*
X162172741Y-65495606D01*
X162120080Y-65404394D01*
X162045606Y-65329920D01*
X161954394Y-65277259D01*
X161852661Y-65250000D01*
X161846448Y-65250000D01*
X162525472Y-64570974D01*
X162452478Y-64519863D01*
X162246331Y-64423735D01*
X162246317Y-64423730D01*
X162026610Y-64364860D01*
X162026599Y-64364858D01*
X161800002Y-64345034D01*
X161799998Y-64345034D01*
X161573400Y-64364858D01*
X161573389Y-64364860D01*
X161353682Y-64423730D01*
X161353673Y-64423734D01*
X161147516Y-64519866D01*
X161147512Y-64519868D01*
X161074526Y-64570973D01*
X161074526Y-64570974D01*
X161753553Y-65250000D01*
X161747339Y-65250000D01*
X161645606Y-65277259D01*
X161554394Y-65329920D01*
X161479920Y-65404394D01*
X161427259Y-65495606D01*
X161400000Y-65597339D01*
X161400000Y-65603552D01*
X160720974Y-64924526D01*
X160720973Y-64924526D01*
X160669868Y-64997512D01*
X160669866Y-64997516D01*
X160573734Y-65203673D01*
X160573730Y-65203682D01*
X160514860Y-65423389D01*
X160514858Y-65423400D01*
X160495034Y-65649997D01*
X160495034Y-65650002D01*
X160514858Y-65876599D01*
X160514860Y-65876610D01*
X160573730Y-66096317D01*
X160573735Y-66096331D01*
X160669863Y-66302478D01*
X160720974Y-66375472D01*
X161400000Y-65696446D01*
X161400000Y-65702661D01*
X161427259Y-65804394D01*
X161479920Y-65895606D01*
X161554394Y-65970080D01*
X161645606Y-66022741D01*
X161747339Y-66050000D01*
X161753553Y-66050000D01*
X161074526Y-66729025D01*
X161147513Y-66780132D01*
X161147515Y-66780133D01*
X161162973Y-66787341D01*
X161215413Y-66833513D01*
X161234566Y-66900706D01*
X161214351Y-66967587D01*
X161162979Y-67012104D01*
X161147270Y-67019429D01*
X161147265Y-67019432D01*
X160960858Y-67149954D01*
X160799954Y-67310858D01*
X160669432Y-67497265D01*
X160669431Y-67497267D01*
X160573261Y-67703502D01*
X160573258Y-67703511D01*
X160514366Y-67923302D01*
X160514364Y-67923313D01*
X160494532Y-68149998D01*
X160494532Y-68150001D01*
X160514364Y-68376686D01*
X160514366Y-68376697D01*
X160573258Y-68596488D01*
X160573261Y-68596497D01*
X160669431Y-68802732D01*
X160669432Y-68802734D01*
X160799954Y-68989141D01*
X160960858Y-69150045D01*
X160960861Y-69150047D01*
X161125820Y-69265552D01*
X161169445Y-69320127D01*
X161176639Y-69389626D01*
X161145117Y-69451980D01*
X161111660Y-69476210D01*
X161111957Y-69476724D01*
X161107265Y-69479432D01*
X160920858Y-69609954D01*
X160759954Y-69770858D01*
X160629432Y-69957265D01*
X160629431Y-69957267D01*
X160602382Y-70015275D01*
X160556209Y-70067714D01*
X160489016Y-70086866D01*
X160422135Y-70066650D01*
X160377618Y-70015275D01*
X160350686Y-69957520D01*
X160350568Y-69957266D01*
X160220047Y-69770861D01*
X160220045Y-69770858D01*
X160059140Y-69609953D01*
X159923377Y-69514891D01*
X159879752Y-69460314D01*
X159870500Y-69413316D01*
X159870500Y-57514090D01*
X159890185Y-57447051D01*
X159942101Y-57401706D01*
X159947830Y-57399035D01*
X160141401Y-57263495D01*
X160263329Y-57141566D01*
X160324648Y-57108084D01*
X160394340Y-57113068D01*
X160450274Y-57154939D01*
X160467189Y-57185917D01*
X160516202Y-57317328D01*
X160516206Y-57317335D01*
X160602452Y-57432544D01*
X160602455Y-57432547D01*
X160717664Y-57518793D01*
X160717671Y-57518797D01*
X160852517Y-57569091D01*
X160852516Y-57569091D01*
X160859444Y-57569835D01*
X160912127Y-57575500D01*
X162707872Y-57575499D01*
X162767483Y-57569091D01*
X162902331Y-57518796D01*
X163017546Y-57432546D01*
X163103796Y-57317331D01*
X163154091Y-57182483D01*
X163160500Y-57122873D01*
X163160499Y-55327128D01*
X163154091Y-55267517D01*
X163152810Y-55264083D01*
X163103797Y-55132671D01*
X163103793Y-55132664D01*
X163017547Y-55017455D01*
X163017544Y-55017452D01*
X162902335Y-54931206D01*
X162902328Y-54931202D01*
X162767482Y-54880908D01*
X162767483Y-54880908D01*
X162707883Y-54874501D01*
X162707881Y-54874500D01*
X162707873Y-54874500D01*
X162707864Y-54874500D01*
X160912129Y-54874500D01*
X160912123Y-54874501D01*
X160852516Y-54880908D01*
X160717671Y-54931202D01*
X160717664Y-54931206D01*
X160602455Y-55017452D01*
X160602452Y-55017455D01*
X160516206Y-55132664D01*
X160516203Y-55132669D01*
X160467189Y-55264083D01*
X160425317Y-55320016D01*
X160359853Y-55344433D01*
X160291580Y-55329581D01*
X160263326Y-55308430D01*
X160141402Y-55186506D01*
X160141395Y-55186501D01*
X159947834Y-55050967D01*
X159947830Y-55050965D01*
X159947828Y-55050964D01*
X159733663Y-54951097D01*
X159733659Y-54951096D01*
X159733655Y-54951094D01*
X159505413Y-54889938D01*
X159505403Y-54889936D01*
X159270001Y-54869341D01*
X159269999Y-54869341D01*
X159034596Y-54889936D01*
X159034586Y-54889938D01*
X158806344Y-54951094D01*
X158806335Y-54951098D01*
X158592171Y-55050964D01*
X158592169Y-55050965D01*
X158398597Y-55186505D01*
X158231505Y-55353597D01*
X158101575Y-55539158D01*
X158046998Y-55582783D01*
X157977500Y-55589977D01*
X157915145Y-55558454D01*
X157898425Y-55539158D01*
X157768494Y-55353597D01*
X157601402Y-55186506D01*
X157601395Y-55186501D01*
X157407834Y-55050967D01*
X157407830Y-55050965D01*
X157407828Y-55050964D01*
X157193663Y-54951097D01*
X157193659Y-54951096D01*
X157193655Y-54951094D01*
X156965413Y-54889938D01*
X156965403Y-54889936D01*
X156730001Y-54869341D01*
X156729999Y-54869341D01*
X156494596Y-54889936D01*
X156494586Y-54889938D01*
X156266344Y-54951094D01*
X156266335Y-54951098D01*
X156052171Y-55050964D01*
X156052169Y-55050965D01*
X155858597Y-55186505D01*
X155691505Y-55353597D01*
X155561575Y-55539158D01*
X155506998Y-55582783D01*
X155437500Y-55589977D01*
X155375145Y-55558454D01*
X155358425Y-55539158D01*
X155228494Y-55353597D01*
X155061402Y-55186506D01*
X155061395Y-55186501D01*
X154867834Y-55050967D01*
X154867830Y-55050965D01*
X154867828Y-55050964D01*
X154653663Y-54951097D01*
X154653659Y-54951096D01*
X154653655Y-54951094D01*
X154425413Y-54889938D01*
X154425403Y-54889936D01*
X154190001Y-54869341D01*
X154189999Y-54869341D01*
X153954596Y-54889936D01*
X153954586Y-54889938D01*
X153726344Y-54951094D01*
X153726335Y-54951098D01*
X153512171Y-55050964D01*
X153512169Y-55050965D01*
X153318597Y-55186505D01*
X153151505Y-55353597D01*
X153021575Y-55539158D01*
X152966998Y-55582783D01*
X152897500Y-55589977D01*
X152835145Y-55558454D01*
X152818425Y-55539158D01*
X152688494Y-55353597D01*
X152521402Y-55186506D01*
X152521395Y-55186501D01*
X152327834Y-55050967D01*
X152327830Y-55050965D01*
X152327828Y-55050964D01*
X152113663Y-54951097D01*
X152113659Y-54951096D01*
X152113655Y-54951094D01*
X151885413Y-54889938D01*
X151885403Y-54889936D01*
X151650001Y-54869341D01*
X151649999Y-54869341D01*
X151414596Y-54889936D01*
X151414586Y-54889938D01*
X151186344Y-54951094D01*
X151186335Y-54951098D01*
X150972171Y-55050964D01*
X150972169Y-55050965D01*
X150778597Y-55186505D01*
X150611505Y-55353597D01*
X150481575Y-55539158D01*
X150426998Y-55582783D01*
X150357500Y-55589977D01*
X150295145Y-55558454D01*
X150278425Y-55539158D01*
X150148494Y-55353597D01*
X149981402Y-55186506D01*
X149981395Y-55186501D01*
X149787834Y-55050967D01*
X149787830Y-55050965D01*
X149787828Y-55050964D01*
X149573663Y-54951097D01*
X149573659Y-54951096D01*
X149573655Y-54951094D01*
X149345413Y-54889938D01*
X149345403Y-54889936D01*
X149110001Y-54869341D01*
X149109999Y-54869341D01*
X148874596Y-54889936D01*
X148874586Y-54889938D01*
X148646344Y-54951094D01*
X148646335Y-54951098D01*
X148432171Y-55050964D01*
X148432169Y-55050965D01*
X148238597Y-55186505D01*
X148071505Y-55353597D01*
X147941575Y-55539158D01*
X147886998Y-55582783D01*
X147817500Y-55589977D01*
X147755145Y-55558454D01*
X147738425Y-55539158D01*
X147608494Y-55353597D01*
X147441402Y-55186506D01*
X147441395Y-55186501D01*
X147247834Y-55050967D01*
X147247830Y-55050965D01*
X147247828Y-55050964D01*
X147033663Y-54951097D01*
X147033659Y-54951096D01*
X147033655Y-54951094D01*
X146805413Y-54889938D01*
X146805403Y-54889936D01*
X146570001Y-54869341D01*
X146569999Y-54869341D01*
X146334596Y-54889936D01*
X146334586Y-54889938D01*
X146106344Y-54951094D01*
X146106335Y-54951098D01*
X145892171Y-55050964D01*
X145892169Y-55050965D01*
X145698597Y-55186505D01*
X145531505Y-55353597D01*
X145401575Y-55539158D01*
X145346998Y-55582783D01*
X145277500Y-55589977D01*
X145215145Y-55558454D01*
X145198425Y-55539158D01*
X145068494Y-55353597D01*
X144901402Y-55186506D01*
X144901395Y-55186501D01*
X144707834Y-55050967D01*
X144707830Y-55050965D01*
X144707828Y-55050964D01*
X144493663Y-54951097D01*
X144493659Y-54951096D01*
X144493655Y-54951094D01*
X144265413Y-54889938D01*
X144265403Y-54889936D01*
X144030001Y-54869341D01*
X144029999Y-54869341D01*
X143794596Y-54889936D01*
X143794586Y-54889938D01*
X143566344Y-54951094D01*
X143566335Y-54951098D01*
X143352171Y-55050964D01*
X143352169Y-55050965D01*
X143158597Y-55186505D01*
X142991505Y-55353597D01*
X142861575Y-55539158D01*
X142806998Y-55582783D01*
X142737500Y-55589977D01*
X142675145Y-55558454D01*
X142658425Y-55539158D01*
X142528494Y-55353597D01*
X142361402Y-55186506D01*
X142361395Y-55186501D01*
X142167834Y-55050967D01*
X142167830Y-55050965D01*
X142167828Y-55050964D01*
X141953663Y-54951097D01*
X141953659Y-54951096D01*
X141953655Y-54951094D01*
X141725413Y-54889938D01*
X141725403Y-54889936D01*
X141490001Y-54869341D01*
X141489999Y-54869341D01*
X141254596Y-54889936D01*
X141254586Y-54889938D01*
X141026344Y-54951094D01*
X141026335Y-54951098D01*
X140812171Y-55050964D01*
X140812169Y-55050965D01*
X140618597Y-55186505D01*
X140451505Y-55353597D01*
X140321575Y-55539158D01*
X140266998Y-55582783D01*
X140197500Y-55589977D01*
X140135145Y-55558454D01*
X140118425Y-55539158D01*
X139988494Y-55353597D01*
X139821402Y-55186506D01*
X139821395Y-55186501D01*
X139627834Y-55050967D01*
X139627830Y-55050965D01*
X139627828Y-55050964D01*
X139413663Y-54951097D01*
X139413659Y-54951096D01*
X139413655Y-54951094D01*
X139185413Y-54889938D01*
X139185403Y-54889936D01*
X138950001Y-54869341D01*
X138949999Y-54869341D01*
X138714596Y-54889936D01*
X138714586Y-54889938D01*
X138486344Y-54951094D01*
X138486335Y-54951098D01*
X138272171Y-55050964D01*
X138272169Y-55050965D01*
X138078597Y-55186505D01*
X137911508Y-55353594D01*
X137781269Y-55539595D01*
X137726692Y-55583219D01*
X137657193Y-55590412D01*
X137594839Y-55558890D01*
X137578119Y-55539594D01*
X137448113Y-55353926D01*
X137448108Y-55353920D01*
X137281082Y-55186894D01*
X137087578Y-55051399D01*
X136873492Y-54951570D01*
X136873486Y-54951567D01*
X136660000Y-54894364D01*
X136660000Y-55791988D01*
X136602993Y-55759075D01*
X136475826Y-55725000D01*
X136344174Y-55725000D01*
X136217007Y-55759075D01*
X136160000Y-55791988D01*
X136160000Y-54894364D01*
X136159999Y-54894364D01*
X135946513Y-54951567D01*
X135946507Y-54951570D01*
X135732422Y-55051399D01*
X135732420Y-55051400D01*
X135538926Y-55186886D01*
X135538920Y-55186891D01*
X135371891Y-55353920D01*
X135371890Y-55353922D01*
X135241575Y-55540031D01*
X135186998Y-55583655D01*
X135117499Y-55590848D01*
X135055145Y-55559326D01*
X135038425Y-55540031D01*
X134908109Y-55353922D01*
X134908108Y-55353920D01*
X134741082Y-55186894D01*
X134547578Y-55051399D01*
X134333492Y-54951570D01*
X134333486Y-54951567D01*
X134120000Y-54894364D01*
X134120000Y-55791988D01*
X134062993Y-55759075D01*
X133935826Y-55725000D01*
X133804174Y-55725000D01*
X133677007Y-55759075D01*
X133620000Y-55791988D01*
X133620000Y-54894364D01*
X133619999Y-54894364D01*
X133406513Y-54951567D01*
X133406507Y-54951570D01*
X133192422Y-55051399D01*
X133192420Y-55051400D01*
X132998926Y-55186886D01*
X132998920Y-55186891D01*
X132831891Y-55353920D01*
X132831890Y-55353922D01*
X132701575Y-55540031D01*
X132646998Y-55583655D01*
X132577499Y-55590848D01*
X132515145Y-55559326D01*
X132498425Y-55540031D01*
X132368109Y-55353922D01*
X132368108Y-55353920D01*
X132201082Y-55186894D01*
X132007578Y-55051399D01*
X131793492Y-54951570D01*
X131793486Y-54951567D01*
X131580000Y-54894364D01*
X131580000Y-55791988D01*
X131522993Y-55759075D01*
X131395826Y-55725000D01*
X131264174Y-55725000D01*
X131137007Y-55759075D01*
X131080000Y-55791988D01*
X131080000Y-54894364D01*
X131079999Y-54894364D01*
X130866513Y-54951567D01*
X130866507Y-54951570D01*
X130652422Y-55051399D01*
X130652420Y-55051400D01*
X130458926Y-55186886D01*
X130458920Y-55186891D01*
X130291891Y-55353920D01*
X130291890Y-55353922D01*
X130161880Y-55539595D01*
X130107303Y-55583219D01*
X130037804Y-55590412D01*
X129975450Y-55558890D01*
X129958730Y-55539594D01*
X129828494Y-55353597D01*
X129661402Y-55186506D01*
X129661395Y-55186501D01*
X129467834Y-55050967D01*
X129467830Y-55050965D01*
X129467828Y-55050964D01*
X129253663Y-54951097D01*
X129253659Y-54951096D01*
X129253655Y-54951094D01*
X129025413Y-54889938D01*
X129025403Y-54889936D01*
X128790001Y-54869341D01*
X128789999Y-54869341D01*
X128554596Y-54889936D01*
X128554586Y-54889938D01*
X128326344Y-54951094D01*
X128326335Y-54951098D01*
X128112171Y-55050964D01*
X128112169Y-55050965D01*
X127918597Y-55186505D01*
X127751505Y-55353597D01*
X127621575Y-55539158D01*
X127566998Y-55582783D01*
X127497500Y-55589977D01*
X127435145Y-55558454D01*
X127418425Y-55539158D01*
X127288494Y-55353597D01*
X127121402Y-55186506D01*
X127121395Y-55186501D01*
X126927834Y-55050967D01*
X126927830Y-55050965D01*
X126927828Y-55050964D01*
X126713663Y-54951097D01*
X126713659Y-54951096D01*
X126713655Y-54951094D01*
X126485413Y-54889938D01*
X126485403Y-54889936D01*
X126250001Y-54869341D01*
X126249999Y-54869341D01*
X126014596Y-54889936D01*
X126014586Y-54889938D01*
X125786344Y-54951094D01*
X125786335Y-54951098D01*
X125572171Y-55050964D01*
X125572169Y-55050965D01*
X125378597Y-55186505D01*
X125211505Y-55353597D01*
X125081575Y-55539158D01*
X125026998Y-55582783D01*
X124957500Y-55589977D01*
X124895145Y-55558454D01*
X124878425Y-55539158D01*
X124748494Y-55353597D01*
X124581402Y-55186506D01*
X124581395Y-55186501D01*
X124387834Y-55050967D01*
X124387830Y-55050965D01*
X124387828Y-55050964D01*
X124173663Y-54951097D01*
X124173659Y-54951096D01*
X124173655Y-54951094D01*
X123945413Y-54889938D01*
X123945403Y-54889936D01*
X123710001Y-54869341D01*
X123709999Y-54869341D01*
X123474596Y-54889936D01*
X123474586Y-54889938D01*
X123246344Y-54951094D01*
X123246335Y-54951098D01*
X123032171Y-55050964D01*
X123032169Y-55050965D01*
X122838597Y-55186505D01*
X122671505Y-55353597D01*
X122541575Y-55539158D01*
X122486998Y-55582783D01*
X122417500Y-55589977D01*
X122355145Y-55558454D01*
X122338425Y-55539158D01*
X122208494Y-55353597D01*
X122041402Y-55186506D01*
X122041395Y-55186501D01*
X121847834Y-55050967D01*
X121847830Y-55050965D01*
X121847828Y-55050964D01*
X121633663Y-54951097D01*
X121633659Y-54951096D01*
X121633655Y-54951094D01*
X121405413Y-54889938D01*
X121405403Y-54889936D01*
X121170001Y-54869341D01*
X121169999Y-54869341D01*
X120934596Y-54889936D01*
X120934586Y-54889938D01*
X120706344Y-54951094D01*
X120706335Y-54951098D01*
X120492171Y-55050964D01*
X120492169Y-55050965D01*
X120298597Y-55186505D01*
X120131505Y-55353597D01*
X120001575Y-55539158D01*
X119946998Y-55582783D01*
X119877500Y-55589977D01*
X119815145Y-55558454D01*
X119798425Y-55539158D01*
X119668494Y-55353597D01*
X119501402Y-55186506D01*
X119501395Y-55186501D01*
X119307834Y-55050967D01*
X119307830Y-55050965D01*
X119307828Y-55050964D01*
X119093663Y-54951097D01*
X119093659Y-54951096D01*
X119093655Y-54951094D01*
X118865413Y-54889938D01*
X118865403Y-54889936D01*
X118630001Y-54869341D01*
X118629999Y-54869341D01*
X118394596Y-54889936D01*
X118394586Y-54889938D01*
X118166344Y-54951094D01*
X118166335Y-54951098D01*
X117952171Y-55050964D01*
X117952169Y-55050965D01*
X117758597Y-55186505D01*
X117591505Y-55353597D01*
X117461575Y-55539158D01*
X117406998Y-55582783D01*
X117337500Y-55589977D01*
X117275145Y-55558454D01*
X117258425Y-55539158D01*
X117128494Y-55353597D01*
X116961402Y-55186506D01*
X116961395Y-55186501D01*
X116767834Y-55050967D01*
X116767830Y-55050965D01*
X116767828Y-55050964D01*
X116553663Y-54951097D01*
X116553659Y-54951096D01*
X116553655Y-54951094D01*
X116325413Y-54889938D01*
X116325403Y-54889936D01*
X116090001Y-54869341D01*
X116089999Y-54869341D01*
X115854596Y-54889936D01*
X115854586Y-54889938D01*
X115626344Y-54951094D01*
X115626335Y-54951098D01*
X115412171Y-55050964D01*
X115412169Y-55050965D01*
X115218597Y-55186505D01*
X115051508Y-55353594D01*
X114921269Y-55539595D01*
X114866692Y-55583219D01*
X114797193Y-55590412D01*
X114734839Y-55558890D01*
X114718119Y-55539594D01*
X114588113Y-55353926D01*
X114588108Y-55353920D01*
X114421082Y-55186894D01*
X114227578Y-55051399D01*
X114013492Y-54951570D01*
X114013486Y-54951567D01*
X113800000Y-54894364D01*
X113800000Y-55791988D01*
X113742993Y-55759075D01*
X113615826Y-55725000D01*
X113484174Y-55725000D01*
X113357007Y-55759075D01*
X113300000Y-55791988D01*
X113300000Y-54894364D01*
X113299999Y-54894364D01*
X113086513Y-54951567D01*
X113086507Y-54951570D01*
X112872422Y-55051399D01*
X112872420Y-55051400D01*
X112678926Y-55186886D01*
X112678920Y-55186891D01*
X112511891Y-55353920D01*
X112511890Y-55353922D01*
X112381880Y-55539595D01*
X112327303Y-55583219D01*
X112257804Y-55590412D01*
X112195450Y-55558890D01*
X112178730Y-55539594D01*
X112048494Y-55353597D01*
X111881402Y-55186506D01*
X111881395Y-55186501D01*
X111687834Y-55050967D01*
X111687830Y-55050965D01*
X111687828Y-55050964D01*
X111473663Y-54951097D01*
X111473659Y-54951096D01*
X111473655Y-54951094D01*
X111245413Y-54889938D01*
X111245403Y-54889936D01*
X111010001Y-54869341D01*
X111009999Y-54869341D01*
X110774596Y-54889936D01*
X110774586Y-54889938D01*
X110546344Y-54951094D01*
X110546335Y-54951098D01*
X110332171Y-55050964D01*
X110332169Y-55050965D01*
X110138597Y-55186505D01*
X109971505Y-55353597D01*
X109835965Y-55547169D01*
X109835964Y-55547171D01*
X109736098Y-55761335D01*
X109736094Y-55761344D01*
X109674938Y-55989586D01*
X109674936Y-55989596D01*
X109654341Y-56224999D01*
X78000000Y-56224999D01*
X78000000Y-53124000D01*
X78019685Y-53056961D01*
X78072489Y-53011206D01*
X78124000Y-53000000D01*
X173376000Y-53000000D01*
X173443039Y-53019685D01*
G37*
%TD.AperFunction*%
%TD*%
M02*
