M48
; DRILL file {KiCad 8.0.5} date 2025-05-13T16:34:19-0600
; FORMAT={-:-/ absolute / inch / decimal}
; #@! TF.CreationDate,2025-05-13T16:34:19-06:00
; #@! TF.GenerationSoftware,Kicad,Pcbnew,8.0.5
; #@! TF.FileFunction,Plated,1,2,PTH
FMAT,2
INCH
; #@! TA.AperFunction,Plated,PTH,ViaDrill
T1C0.0118
; #@! TA.AperFunction,Plated,PTH,ComponentDrill
T2C0.0315
; #@! TA.AperFunction,Plated,PTH,ComponentDrill
T3C0.0394
; #@! TA.AperFunction,Plated,PTH,ComponentDrill
T4C0.0433
%
G90
G05
T1
X4.0748Y-2.2047
X4.1142Y-2.2047
T2
X3.7581Y-3.0118
X3.8368Y-3.0118
X4.0354Y-3.0118
X4.0748Y-3.5236
X4.0748Y-3.8236
X4.0945Y-2.4878
X4.0945Y-2.7878
X4.1142Y-3.0118
X4.4654Y-2.7953
X4.4654Y-3.3953
X4.5654Y-2.7953
X4.5654Y-3.3953
X4.6654Y-2.7953
X4.6654Y-3.3953
X4.7654Y-2.7953
X4.7654Y-3.3953
X4.8654Y-2.7953
X4.8654Y-3.3953
X4.9654Y-2.7953
X4.9654Y-3.3953
X5.0654Y-2.7953
X5.0654Y-3.3953
X5.1654Y-2.7953
X5.1654Y-3.3953
X5.2654Y-2.7953
X5.2654Y-3.3953
X5.3654Y-2.7953
X5.3654Y-3.3953
X5.4654Y-2.7953
X5.4654Y-3.3953
X5.5654Y-2.7953
X5.5654Y-3.3953
X5.6496Y-3.7205
X5.6496Y-3.9173
X5.6654Y-2.7953
X5.6654Y-3.3953
X5.7654Y-2.7953
X5.7654Y-3.3953
X5.8465Y-3.7205
X5.8465Y-3.9173
X5.8654Y-2.7953
X5.8654Y-3.3953
X5.9654Y-2.7953
X5.9654Y-3.3953
X6.0654Y-2.7953
X6.0654Y-3.3953
X6.1654Y-2.7953
X6.1654Y-3.3953
X6.2654Y-2.7953
X6.2654Y-3.3953
X6.3654Y-2.7953
X6.3654Y-3.3953
T3
X4.2717Y-2.7931
X4.2717Y-2.8931
X4.2717Y-2.9931
X4.2913Y-3.2252
X4.2913Y-3.3252
X4.2913Y-3.4252
X4.3705Y-2.2136
X4.4587Y-2.3622
X4.4587Y-2.6575
X4.4705Y-2.2136
X4.5228Y-4.2323
X4.5705Y-2.2136
X4.6228Y-4.2323
X4.6705Y-2.2136
X4.7228Y-4.2323
X4.7705Y-2.2136
X4.8228Y-4.2323
X4.8705Y-2.2136
X4.9228Y-4.2323
X4.9705Y-2.2136
X5.0228Y-4.2323
X5.0705Y-2.2136
X5.1228Y-4.2323
X5.1705Y-2.2136
X5.2228Y-4.2323
X5.2677Y-2.372
X5.2677Y-2.6673
X5.2705Y-2.2136
X5.3228Y-4.2323
X5.3705Y-2.2136
X5.4228Y-4.2323
X5.4705Y-2.2136
X5.4724Y-3.5236
X5.4724Y-3.8189
X5.5228Y-4.2323
X5.5705Y-2.2136
X5.6228Y-4.2323
X5.6693Y-3.563
X5.6705Y-2.2136
X5.7228Y-4.2323
X5.7705Y-2.2136
X5.8228Y-4.2323
X5.8661Y-3.563
X5.8705Y-2.2136
X5.9228Y-4.2323
X5.9705Y-2.2136
X6.0228Y-4.2323
X6.0705Y-2.2136
X6.1228Y-4.2323
X6.1705Y-2.2136
X6.2228Y-4.2323
X6.2705Y-2.2136
X6.3228Y-4.2323
X6.3701Y-2.3878
X6.3701Y-2.6831
X6.3705Y-2.2136
X6.5748Y-2.874
X6.5748Y-2.974
X6.5748Y-3.074
X6.5748Y-3.174
X6.5748Y-3.274
X6.5748Y-3.374
T4
X3.878Y-2.4681
X3.878Y-2.7681
X3.9264Y-3.2858
X3.9264Y-3.3858
X3.9264Y-3.4858
X4.2323Y-3.6417
X4.2323Y-3.8189
X4.4882Y-3.6417
X4.4882Y-3.8189
T3
G00X3.438Y-2.3996
M15
G01X3.438Y-2.4862
M16
G05
G00X3.6152Y-2.6319
M15
G01X3.5285Y-2.6319
M16
G05
G00X3.686Y-2.3917
M15
G01X3.686Y-2.4941
M16
G05
M30
